<svg width="162" height="205" viewBox="0 0 162 205" fill="none" xmlns="http://www.w3.org/2000/svg">
<rect width="162" height="205" fill="#FDE1E1"/>
<path d="M52.2461 97.1289C53.1895 97.1289 53.9368 97.3317 54.4883 97.7373C55.0443 98.1429 55.3223 98.7467 55.3223 99.5488C55.3223 100.734 54.764 101.504 53.6475 101.859C54.2992 102.046 54.7936 102.331 55.1309 102.714C55.4727 103.097 55.6436 103.559 55.6436 104.102C55.6436 106.034 54.4313 107 52.0068 107H47.5566V105.811L48.6025 105.387V98.8105L47.5566 98.3867V97.1973L50.7764 97.1289H52.2461ZM51.5898 101.162C52.1003 101.162 52.4876 101.053 52.752 100.834C53.0208 100.615 53.1553 100.292 53.1553 99.8633C53.1553 99.5169 53.0459 99.2549 52.8271 99.0771C52.6084 98.8994 52.3213 98.8105 51.9658 98.8105H50.7764V101.162H51.5898ZM51.9385 105.318C52.4215 105.318 52.7907 105.214 53.0459 105.004C53.3057 104.794 53.4355 104.493 53.4355 104.102C53.4355 103.596 53.2852 103.224 52.9844 102.987C52.6882 102.75 52.2233 102.632 51.5898 102.632H50.7764V105.318H51.9385ZM60.5518 99.3027C61.6774 99.3027 62.5456 99.6309 63.1562 100.287C63.7715 100.943 64.0791 101.875 64.0791 103.083C64.0791 103.912 63.9242 104.632 63.6143 105.243C63.3089 105.854 62.876 106.323 62.3154 106.651C61.7549 106.975 61.0964 107.137 60.3398 107.137C57.9609 107.137 56.7715 105.854 56.7715 103.288C56.7715 102.459 56.9264 101.745 57.2363 101.148C57.5508 100.551 57.9928 100.096 58.5625 99.7812C59.1322 99.4622 59.7952 99.3027 60.5518 99.3027ZM60.4766 100.978C59.9479 100.978 59.5583 101.148 59.3076 101.49C59.0615 101.832 58.9385 102.409 58.9385 103.22C58.9385 103.994 59.0547 104.562 59.2871 104.922C59.5241 105.282 59.8978 105.462 60.4082 105.462C60.9232 105.462 61.3014 105.282 61.543 104.922C61.7845 104.562 61.9053 103.972 61.9053 103.151C61.9053 102.422 61.7913 101.878 61.5635 101.518C61.3356 101.158 60.9733 100.978 60.4766 100.978ZM68.8369 99.3027C69.9626 99.3027 70.8307 99.6309 71.4414 100.287C72.0566 100.943 72.3643 101.875 72.3643 103.083C72.3643 103.912 72.2093 104.632 71.8994 105.243C71.5941 105.854 71.1611 106.323 70.6006 106.651C70.04 106.975 69.3815 107.137 68.625 107.137C66.2461 107.137 65.0566 105.854 65.0566 103.288C65.0566 102.459 65.2116 101.745 65.5215 101.148C65.8359 100.551 66.278 100.096 66.8477 99.7812C67.4173 99.4622 68.0804 99.3027 68.8369 99.3027ZM68.7617 100.978C68.2331 100.978 67.8434 101.148 67.5928 101.49C67.3467 101.832 67.2236 102.409 67.2236 103.22C67.2236 103.994 67.3398 104.562 67.5723 104.922C67.8092 105.282 68.1829 105.462 68.6934 105.462C69.2083 105.462 69.5866 105.282 69.8281 104.922C70.0697 104.562 70.1904 103.972 70.1904 103.151C70.1904 102.422 70.0765 101.878 69.8486 101.518C69.6208 101.158 69.2585 100.978 68.7617 100.978ZM77.2725 102.256L78.2227 100.827L77.6074 100.629V99.5078L81.2236 99.4395V100.629L80.2393 100.813L78.9404 102.646L80.5059 105.544L81.5723 105.879V107H78.9814L77.2451 103.582H76.3496V105.53L77.1221 105.879V107H73.1299V105.879L74.251 105.53V97.6621L73.1299 97.3818V96.2607L76.3496 96.1514V102.256H77.2725ZM88.8457 105.947C88.5312 106.23 88.1188 106.499 87.6084 106.754C87.1025 107.009 86.5124 107.137 85.8379 107.137C84.6895 107.137 83.7962 106.802 83.1582 106.132C82.5202 105.462 82.2012 104.528 82.2012 103.329C82.2012 102.08 82.5384 101.098 83.2129 100.383C83.8919 99.6628 84.8376 99.3027 86.0498 99.3027C86.4053 99.3027 86.763 99.3392 87.123 99.4121C87.4876 99.485 87.7907 99.5602 88.0322 99.6377C88.2783 99.7106 88.4333 99.7607 88.4971 99.7881L88.4287 102.085H87.1709L86.9727 101.094C86.9271 101.085 86.8132 101.064 86.6309 101.032C86.4486 100.996 86.2412 100.978 86.0088 100.978C85.4938 100.978 85.0905 101.153 84.7988 101.504C84.5117 101.855 84.3682 102.37 84.3682 103.049C84.3682 103.824 84.514 104.421 84.8057 104.84C85.1019 105.255 85.5394 105.462 86.1182 105.462C86.4827 105.462 86.8018 105.407 87.0752 105.298C87.3532 105.184 87.5856 105.068 87.7725 104.949C87.9593 104.831 88.0846 104.753 88.1484 104.717L88.8457 105.947ZM93.3369 99.3027C94.4626 99.3027 95.3307 99.6309 95.9414 100.287C96.5566 100.943 96.8643 101.875 96.8643 103.083C96.8643 103.912 96.7093 104.632 96.3994 105.243C96.0941 105.854 95.6611 106.323 95.1006 106.651C94.54 106.975 93.8815 107.137 93.125 107.137C90.7461 107.137 89.5566 105.854 89.5566 103.288C89.5566 102.459 89.7116 101.745 90.0215 101.148C90.3359 100.551 90.778 100.096 91.3477 99.7812C91.9173 99.4622 92.5804 99.3027 93.3369 99.3027ZM93.2617 100.978C92.7331 100.978 92.3434 101.148 92.0928 101.49C91.8467 101.832 91.7236 102.409 91.7236 103.22C91.7236 103.994 91.8398 104.562 92.0723 104.922C92.3092 105.282 92.6829 105.462 93.1934 105.462C93.7083 105.462 94.0866 105.282 94.3281 104.922C94.5697 104.562 94.6904 103.972 94.6904 103.151C94.6904 102.422 94.5765 101.878 94.3486 101.518C94.1208 101.158 93.7585 100.978 93.2617 100.978ZM101.711 99.5078L105.382 99.4395V100.629L104.582 100.813L102.326 107H100.016L97.8076 100.854L97.1309 100.629V99.5078L100.802 99.4395V100.629L100.016 100.772L101.287 104.901L102.524 100.813L101.711 100.629V99.5078ZM107.829 103.685C107.866 104.245 108.034 104.683 108.335 104.997C108.64 105.307 109.037 105.462 109.524 105.462C109.871 105.462 110.217 105.414 110.563 105.318C110.914 105.218 111.204 105.118 111.432 105.018C111.664 104.913 111.812 104.84 111.876 104.799L112.478 105.961C112.478 105.979 112.313 106.095 111.985 106.31C111.662 106.519 111.263 106.711 110.789 106.884C110.32 107.052 109.818 107.137 109.285 107.137C108.1 107.137 107.198 106.809 106.578 106.152C105.958 105.496 105.648 104.566 105.648 103.363C105.648 102.552 105.797 101.841 106.093 101.23C106.394 100.615 106.824 100.141 107.385 99.8086C107.945 99.4714 108.611 99.3027 109.381 99.3027C110.406 99.3027 111.192 99.5967 111.739 100.185C112.286 100.772 112.56 101.575 112.56 102.591C112.56 102.814 112.548 103.031 112.525 103.24C112.503 103.45 112.487 103.582 112.478 103.637L107.829 103.685ZM109.244 100.978C108.861 100.978 108.549 101.107 108.308 101.367C108.066 101.622 107.916 101.96 107.856 102.379H110.393C110.393 101.96 110.299 101.622 110.112 101.367C109.925 101.107 109.636 100.978 109.244 100.978ZM116.613 100.403C116.613 100.385 116.723 100.278 116.941 100.082C117.16 99.8861 117.413 99.7083 117.7 99.5488C117.992 99.3848 118.279 99.3027 118.562 99.3027C118.785 99.3027 118.994 99.321 119.19 99.3574C119.386 99.3939 119.539 99.4326 119.648 99.4736C119.762 99.5146 119.833 99.5397 119.86 99.5488L119.751 102.242H118.493L118.281 101.053C118.04 101.053 117.805 101.112 117.577 101.23C117.354 101.344 117.162 101.472 117.003 101.613C116.848 101.75 116.771 101.823 116.771 101.832V105.53L118.172 105.879V107H113.551V105.879L114.672 105.53V100.978L113.551 100.629V99.5078L116.49 99.4395L116.613 100.403Z" fill="#DA4A3E"/>
</svg>
