<svg width="652" height="167" viewBox="0 0 652 167" fill="none" xmlns="http://www.w3.org/2000/svg">
<g opacity="0.7" filter="url(#filter0_dd_551_5076)">
<path d="M12.5977 46.7031C12.7344 46.7943 13.099 46.9538 13.6914 47.1816C14.3066 47.4095 15.1156 47.6374 16.1182 47.8652C17.1208 48.0703 18.2259 48.1729 19.4336 48.1729C21.8034 48.1729 23.8086 47.6715 25.4492 46.6689C27.0898 45.6663 27.9102 44.2764 27.9102 42.499C27.9102 41.4281 27.5456 40.528 26.8164 39.7988C26.11 39.0697 25.1986 38.4658 24.082 37.9873C22.9883 37.486 21.3932 36.8594 19.2969 36.1074C16.2207 35.0365 13.68 33.9769 11.6748 32.9287C9.6696 31.8805 7.92643 30.3652 6.44531 28.3828C4.98698 26.4004 4.25781 23.8255 4.25781 20.6582C4.25781 17.5365 5.02116 14.859 6.54785 12.626C8.09733 10.3701 10.2165 8.67253 12.9053 7.5332C15.5941 6.39388 18.6361 5.82422 22.0312 5.82422C24.3555 5.82422 26.6569 6.0293 28.9355 6.43945C31.237 6.84961 33.1283 7.28255 34.6094 7.73828C36.1133 8.17122 37.0589 8.46745 37.4463 8.62695L37.0703 21.3418H30.6445L28.9014 15.3945C28.7191 15.349 28.3203 15.2464 27.7051 15.0869C27.0898 14.9274 26.3265 14.7679 25.415 14.6084C24.5036 14.4261 23.6149 14.335 22.749 14.335C20.3792 14.335 18.5449 14.8021 17.2461 15.7363C15.9473 16.6706 15.2979 17.8669 15.2979 19.3252C15.2979 20.8291 15.9928 22.014 17.3828 22.8799C18.7956 23.723 21.0173 24.68 24.0479 25.751C27.124 26.8219 29.6533 27.8701 31.6357 28.8955C33.641 29.9209 35.3499 31.3906 36.7627 33.3047C38.1982 35.2188 38.916 37.6683 38.916 40.6533C38.916 44.0713 38.0957 47.0107 36.4551 49.4717C34.8145 51.9098 32.57 53.7669 29.7217 55.043C26.8734 56.2962 23.6377 56.9229 20.0146 56.9229C17.6904 56.9229 15.3662 56.7178 13.042 56.3076C10.7406 55.9202 8.8265 55.5215 7.2998 55.1113C5.77311 54.6784 4.80469 54.3936 4.39453 54.2568V40.8242H11.5381L12.5977 46.7031ZM55.8008 39.4229C55.9831 42.2256 56.8262 44.4131 58.3301 45.9854C59.8568 47.5348 61.8392 48.3096 64.2773 48.3096C66.0091 48.3096 67.7409 48.0703 69.4727 47.5918C71.2272 47.0905 72.6742 46.5892 73.8135 46.0879C74.9756 45.5638 75.7161 45.1992 76.0352 44.9941L79.043 50.8047C79.043 50.8958 78.2227 51.4769 76.582 52.5479C74.9642 53.596 72.9704 54.5531 70.6006 55.4189C68.2536 56.262 65.7471 56.6836 63.0811 56.6836C57.1566 56.6836 52.6449 55.043 49.5459 51.7617C46.4469 48.4805 44.8975 43.832 44.8975 37.8164C44.8975 33.7604 45.638 30.2057 47.1191 27.1523C48.623 24.0762 50.7764 21.7064 53.5791 20.043C56.3818 18.3568 59.7087 17.5137 63.5596 17.5137C68.6865 17.5137 72.6172 18.9834 75.3516 21.9229C78.0859 24.8623 79.4531 28.8727 79.4531 33.9541C79.4531 35.0706 79.3962 36.153 79.2822 37.2012C79.1683 38.2493 79.0885 38.9102 79.043 39.1836L55.8008 39.4229ZM62.876 25.8877C60.9619 25.8877 59.401 26.5371 58.1934 27.8359C56.9857 29.112 56.2337 30.7982 55.9375 32.8945H68.6182C68.6182 30.7982 68.151 29.112 67.2168 27.8359C66.2826 26.5371 64.8356 25.8877 62.876 25.8877ZM105.806 50.3945V56H83.3496V50.3945L88.9551 48.6514V9.31055L83.3496 7.90918V2.30371L99.5166 1.75684V48.6514L105.806 50.3945ZM131.201 51.4541C131.201 51.5452 130.597 52.0579 129.39 52.9922C128.182 53.9264 126.735 54.7809 125.049 55.5557C123.363 56.3076 121.631 56.6836 119.854 56.6836C116.436 56.6836 113.758 55.738 111.821 53.8467C109.907 51.9326 108.95 49.221 108.95 45.7119C108.95 41.7015 110.386 38.7734 113.257 36.9277C116.128 35.082 120.309 34.1592 125.801 34.1592H130.723V30.2969C130.723 26.8789 128.923 25.1813 125.322 25.2041C124.251 25.2041 123.26 25.2839 122.349 25.4434C121.437 25.6029 120.708 25.7738 120.161 25.9561C119.637 26.1156 119.307 26.2181 119.17 26.2637L118.11 30.6729H111.821L111.343 20.3164C111.753 20.1797 112.756 19.8835 114.351 19.4277C115.968 18.972 117.894 18.5391 120.127 18.1289C122.383 17.7188 124.513 17.5137 126.519 17.5137C130.119 17.5137 132.979 17.9694 135.098 18.8809C137.217 19.7695 138.766 21.2279 139.746 23.2559C140.726 25.2611 141.216 27.9613 141.216 31.3564V48.6514L146.479 49.916V55.5215L132.466 56L131.201 51.4541ZM119.102 44.6523C119.102 46.0195 119.455 47.0677 120.161 47.7969C120.89 48.5033 121.916 48.8564 123.237 48.8564C124.354 48.8564 125.459 48.5602 126.553 47.9678C127.646 47.3525 128.569 46.7259 129.321 46.0879C130.073 45.4271 130.54 44.9941 130.723 44.7891V40.1064H126.724C124.012 40.1064 122.064 40.471 120.879 41.2002C119.694 41.9294 119.102 43.0801 119.102 44.6523ZM215.933 56H196.963V50.3945L200.688 48.6514V32.0059C200.688 30.0462 200.369 28.5993 199.731 27.665C199.116 26.7308 198.079 26.2637 196.621 26.2637C195.277 26.2637 194.023 26.5371 192.861 27.084C191.722 27.6081 190.765 28.1891 189.99 28.8271C189.238 29.4424 188.862 29.7956 188.862 29.8867V48.6514L192.485 50.3945V56H174.712V50.3945L178.369 48.6514V32.0059C178.369 30.0007 178.062 28.5423 177.446 27.6309C176.831 26.7194 175.806 26.2637 174.37 26.2637C173.026 26.2637 171.761 26.5371 170.576 27.084C169.414 27.6081 168.446 28.2005 167.671 28.8613C166.919 29.4993 166.543 29.8411 166.543 29.8867V48.6514L170.234 50.3945V56H150.649V50.3945L156.016 48.6514V25.8877L150.718 24.1445V18.5391L165.347 18.1973L165.825 23.1533C165.825 23.0622 166.497 22.5153 167.842 21.5127C169.209 20.5101 170.804 19.5986 172.627 18.7783C174.45 17.9352 176.261 17.5137 178.062 17.5137C182.778 17.5137 186.003 19.5189 187.734 23.5293C189.033 22.2305 190.799 20.9089 193.032 19.5645C195.288 18.1973 197.749 17.5137 200.415 17.5137C204.015 17.5137 206.704 18.6074 208.481 20.7949C210.282 22.9824 211.182 26.0814 211.182 30.0918V48.6514L215.933 50.3945V56ZM242.764 51.4541C242.764 51.5452 242.16 52.0579 240.952 52.9922C239.744 53.9264 238.298 54.7809 236.611 55.5557C234.925 56.3076 233.193 56.6836 231.416 56.6836C227.998 56.6836 225.321 55.738 223.384 53.8467C221.47 51.9326 220.513 49.221 220.513 45.7119C220.513 41.7015 221.948 38.7734 224.819 36.9277C227.69 35.082 231.872 34.1592 237.363 34.1592H242.285V30.2969C242.285 26.8789 240.485 25.1813 236.885 25.2041C235.814 25.2041 234.823 25.2839 233.911 25.4434C233 25.6029 232.271 25.7738 231.724 25.9561C231.2 26.1156 230.869 26.2181 230.732 26.2637L229.673 30.6729H223.384L222.905 20.3164C223.315 20.1797 224.318 19.8835 225.913 19.4277C227.531 18.972 229.456 18.5391 231.689 18.1289C233.945 17.7188 236.076 17.5137 238.081 17.5137C241.681 17.5137 244.541 17.9694 246.66 18.8809C248.779 19.7695 250.329 21.2279 251.309 23.2559C252.288 25.2611 252.778 27.9613 252.778 31.3564V48.6514L258.042 49.916V55.5215L244.028 56L242.764 51.4541ZM230.664 44.6523C230.664 46.0195 231.017 47.0677 231.724 47.7969C232.453 48.5033 233.478 48.8564 234.8 48.8564C235.916 48.8564 237.021 48.5602 238.115 47.9678C239.209 47.3525 240.132 46.7259 240.884 46.0879C241.636 45.4271 242.103 44.9941 242.285 44.7891V40.1064H238.286C235.575 40.1064 233.626 40.471 232.441 41.2002C231.257 41.9294 230.664 43.0801 230.664 44.6523ZM277.661 56.6836C273.879 56.6836 271.201 55.5101 269.629 53.1631C268.079 50.8161 267.305 47.4437 267.305 43.0459V26.9473H260.811V20.1455L267.305 19.2568V9.58398L277.798 7.7041V19.2568H287.607V26.9473H277.798V42.3623C277.798 44.6865 278.049 46.3158 278.55 47.25C279.074 48.1842 280.065 48.6514 281.523 48.6514C282.367 48.6514 283.346 48.4691 284.463 48.1045C285.579 47.7171 286.445 47.3639 287.061 47.0449L289.556 52.377C285.636 55.2708 281.672 56.7064 277.661 56.6836ZM314.78 15.0527L309.517 12.9336V6.98633L325.615 6.64453H332.28C339.367 6.64453 344.847 8.70671 348.721 12.8311C352.594 16.9326 354.531 22.8799 354.531 30.6729C354.531 35.8454 353.574 40.3457 351.66 44.1738C349.746 48.002 347.035 50.93 343.525 52.958C340.039 54.986 335.938 56 331.221 56H309.517V50.0527L314.78 47.9336V15.0527ZM331.426 47.5918C335.072 47.5918 337.874 46.3271 339.834 43.7979C341.794 41.2458 342.773 36.9847 342.773 31.0146C342.773 25.318 341.862 21.2393 340.039 18.7783C338.216 16.2946 335.505 15.0527 331.904 15.0527H325.615V47.5918H331.426ZM383.105 51.4541C383.105 51.5452 382.502 52.0579 381.294 52.9922C380.086 53.9264 378.639 54.7809 376.953 55.5557C375.267 56.3076 373.535 56.6836 371.758 56.6836C368.34 56.6836 365.662 55.738 363.726 53.8467C361.812 51.9326 360.854 49.221 360.854 45.7119C360.854 41.7015 362.29 38.7734 365.161 36.9277C368.032 35.082 372.214 34.1592 377.705 34.1592H382.627V30.2969C382.627 26.8789 380.827 25.1813 377.227 25.2041C376.156 25.2041 375.164 25.2839 374.253 25.4434C373.341 25.6029 372.612 25.7738 372.065 25.9561C371.541 26.1156 371.211 26.2181 371.074 26.2637L370.015 30.6729H363.726L363.247 20.3164C363.657 20.1797 364.66 19.8835 366.255 19.4277C367.873 18.972 369.798 18.5391 372.031 18.1289C374.287 17.7188 376.418 17.5137 378.423 17.5137C382.023 17.5137 384.883 17.9694 387.002 18.8809C389.121 19.7695 390.671 21.2279 391.65 23.2559C392.63 25.2611 393.12 27.9613 393.12 31.3564V48.6514L398.384 49.916V55.5215L384.37 56L383.105 51.4541ZM371.006 44.6523C371.006 46.0195 371.359 47.0677 372.065 47.7969C372.795 48.5033 373.82 48.8564 375.142 48.8564C376.258 48.8564 377.363 48.5602 378.457 47.9678C379.551 47.3525 380.474 46.7259 381.226 46.0879C381.978 45.4271 382.445 44.9941 382.627 44.7891V40.1064H378.628C375.916 40.1064 373.968 40.471 372.783 41.2002C371.598 41.9294 371.006 43.0801 371.006 44.6523ZM418.003 56.6836C414.22 56.6836 411.543 55.5101 409.971 53.1631C408.421 50.8161 407.646 47.4437 407.646 43.0459V26.9473H401.152V20.1455L407.646 19.2568V9.58398L418.14 7.7041V19.2568H427.949V26.9473H418.14V42.3623C418.14 44.6865 418.39 46.3158 418.892 47.25C419.416 48.1842 420.407 48.6514 421.865 48.6514C422.708 48.6514 423.688 48.4691 424.805 48.1045C425.921 47.7171 426.787 47.3639 427.402 47.0449L429.897 52.377C425.978 55.2708 422.013 56.7064 418.003 56.6836ZM455.635 51.4541C455.635 51.5452 455.031 52.0579 453.823 52.9922C452.616 53.9264 451.169 54.7809 449.482 55.5557C447.796 56.3076 446.064 56.6836 444.287 56.6836C440.869 56.6836 438.192 55.738 436.255 53.8467C434.341 51.9326 433.384 49.221 433.384 45.7119C433.384 41.7015 434.819 38.7734 437.69 36.9277C440.562 35.082 444.743 34.1592 450.234 34.1592H455.156V30.2969C455.156 26.8789 453.356 25.1813 449.756 25.2041C448.685 25.2041 447.694 25.2839 446.782 25.4434C445.871 25.6029 445.142 25.7738 444.595 25.9561C444.071 26.1156 443.74 26.2181 443.604 26.2637L442.544 30.6729H436.255L435.776 20.3164C436.187 20.1797 437.189 19.8835 438.784 19.4277C440.402 18.972 442.327 18.5391 444.561 18.1289C446.816 17.7188 448.947 17.5137 450.952 17.5137C454.552 17.5137 457.412 17.9694 459.531 18.8809C461.65 19.7695 463.2 21.2279 464.18 23.2559C465.16 25.2611 465.649 27.9613 465.649 31.3564V48.6514L470.913 49.916V55.5215L456.899 56L455.635 51.4541ZM443.535 44.6523C443.535 46.0195 443.888 47.0677 444.595 47.7969C445.324 48.5033 446.349 48.8564 447.671 48.8564C448.787 48.8564 449.893 48.5602 450.986 47.9678C452.08 47.3525 453.003 46.7259 453.755 46.0879C454.507 45.4271 454.974 44.9941 455.156 44.7891V40.1064H451.157C448.446 40.1064 446.497 40.471 445.312 41.2002C444.128 41.9294 443.535 43.0801 443.535 44.6523ZM490.396 23.0166C490.396 22.9255 491.125 22.4014 492.583 21.4443C494.064 20.4873 495.75 19.6214 497.642 18.8467C499.533 18.0492 501.413 17.6504 503.281 17.6504C506.631 17.6504 509.24 18.7555 511.108 20.9658C512.977 23.1761 513.911 26.2181 513.911 30.0918V48.6514L518.833 50.3945V56H499.556V50.3945L503.418 48.6514V32.0059C503.418 30.3652 502.985 29.0208 502.119 27.9727C501.253 26.9245 500.103 26.4004 498.667 26.4004C497.368 26.4004 496.16 26.6966 495.044 27.2891C493.95 27.8587 493.027 28.4967 492.275 29.2031C491.546 29.8867 491.182 30.2741 491.182 30.3652V48.6514L495.01 50.3945V56H475.083V50.3945L480.688 48.6514V25.8877L475.083 24.1445V18.5391L489.917 18.1973L490.396 23.0166ZM523.345 63.6904C523.345 61.9131 523.892 60.3978 524.985 59.1445C526.079 57.8913 527.298 56.9115 528.643 56.2051C530.01 55.4987 530.693 55.2025 530.693 55.3164C530.693 55.4076 530.306 55.305 529.531 55.0088C528.757 54.6898 528.05 54.1885 527.412 53.5049C526.797 52.7985 526.489 51.8529 526.489 50.668C526.489 49.2324 527.708 46.6006 530.146 42.7725C528.802 41.8838 527.56 40.5736 526.421 38.8418C525.304 37.11 524.746 34.7744 524.746 31.835C524.746 27.2093 526.296 23.666 529.395 21.2051C532.493 18.7441 536.538 17.5137 541.528 17.5137C544.65 17.5137 547.407 18.0719 549.8 19.1885L561.831 18.915V24.4863L556.089 25.4775C556.134 25.6598 556.34 26.2409 556.704 27.2207C557.091 28.2005 557.285 29.4652 557.285 31.0146C557.285 35.8682 555.77 39.4798 552.739 41.8496C549.709 44.1966 545.63 45.3701 540.503 45.3701C539.614 45.3701 538.828 45.3132 538.145 45.1992C537.461 45.0625 537.051 44.9941 536.914 44.9941L536.641 49.7109H546.997C551.486 49.7109 554.938 50.6452 557.354 52.5137C559.792 54.3822 561.011 57.0596 561.011 60.5459C561.011 64.5563 559.359 67.7692 556.055 70.1846C552.773 72.6227 547.886 73.8418 541.392 73.8418C535.513 73.8418 531.035 73.0671 527.959 71.5176C524.883 69.9909 523.345 67.3818 523.345 63.6904ZM541.187 24.7256C539.136 24.7256 537.632 25.2725 536.675 26.3662C535.718 27.46 535.239 29.1234 535.239 31.3564C535.239 33.5439 535.695 35.2643 536.606 36.5176C537.518 37.748 538.931 38.3633 540.845 38.3633C542.987 38.3633 544.513 37.805 545.425 36.6885C546.336 35.5719 546.792 33.7946 546.792 31.3564C546.792 29.1234 546.336 27.46 545.425 26.3662C544.513 25.2725 543.101 24.7256 541.187 24.7256ZM536.846 57.4014C536.663 57.4925 536.299 57.709 535.752 58.0508C535.228 58.4154 534.715 58.9281 534.214 59.5889C533.735 60.2725 533.496 61.0586 533.496 61.9473C533.496 63.6335 534.18 64.75 535.547 65.2969C536.937 65.8665 539.17 66.1514 542.246 66.1514C545.413 66.1514 547.692 65.7754 549.082 65.0234C550.495 64.2715 551.201 63.0638 551.201 61.4004C551.201 59.8965 550.654 58.8483 549.561 58.2559C548.467 57.6862 546.678 57.4014 544.194 57.4014H536.846ZM607.461 52.2744C606.436 53.3226 605.057 54.3252 603.325 55.2822C601.593 56.2165 599.451 56.6836 596.899 56.6836C592.091 56.6836 588.491 55.0544 586.099 51.7959C583.729 48.5374 582.544 43.946 582.544 38.0215C582.544 31.3451 584.139 26.2637 587.329 22.7773C590.519 19.2682 595.293 17.5137 601.65 17.5137C603.086 17.5137 604.84 17.7415 606.914 18.1973V9.31055L601.309 7.90918V2.30371L617.407 1.75684V48.5146L623.013 49.916V55.5215L608.076 56L607.461 52.2744ZM606.914 26.9473C605.41 26.2409 603.587 25.8877 601.445 25.8877C598.597 25.8877 596.535 26.8903 595.259 28.8955C594.006 30.9007 593.379 33.749 593.379 37.4404C593.379 41.0407 593.914 43.7523 594.985 45.5752C596.079 47.3981 597.788 48.3096 600.112 48.3096C601.411 48.3096 602.573 48.0247 603.599 47.4551C604.624 46.8626 605.433 46.2132 606.025 45.5068C606.618 44.8005 606.914 44.4017 606.914 44.3105V26.9473ZM631.182 6.64453C631.182 4.73047 631.774 3.20378 632.959 2.06445C634.144 0.92513 635.557 0.355469 637.197 0.355469C641.117 0.355469 643.076 2.45182 643.076 6.64453C643.076 8.60417 642.472 10.165 641.265 11.3271C640.08 12.4665 638.724 13.0361 637.197 13.0361C635.283 13.0361 633.802 12.4893 632.754 11.3955C631.706 10.279 631.182 8.69531 631.182 6.64453ZM647.827 50.3945V56H626.841V50.3945L632.446 48.6514V25.8877L626.841 24.1445V18.5391L642.939 18.1973V48.6514L647.827 50.3945ZM134.79 95.0527L129.526 92.9336V86.9863L145.625 86.6445H152.29C159.377 86.6445 164.857 88.7067 168.73 92.8311C172.604 96.9326 174.541 102.88 174.541 110.673C174.541 115.845 173.584 120.346 171.67 124.174C169.756 128.002 167.044 130.93 163.535 132.958C160.049 134.986 155.947 136 151.23 136H129.526V130.053L134.79 127.934V95.0527ZM151.436 127.592C155.081 127.592 157.884 126.327 159.844 123.798C161.803 121.246 162.783 116.985 162.783 111.015C162.783 105.318 161.872 101.239 160.049 98.7783C158.226 96.2946 155.514 95.0527 151.914 95.0527H145.625V127.592H151.436ZM191.426 119.423C191.608 122.226 192.451 124.413 193.955 125.985C195.482 127.535 197.464 128.31 199.902 128.31C201.634 128.31 203.366 128.07 205.098 127.592C206.852 127.09 208.299 126.589 209.438 126.088C210.601 125.564 211.341 125.199 211.66 124.994L214.668 130.805C214.668 130.896 213.848 131.477 212.207 132.548C210.589 133.596 208.595 134.553 206.226 135.419C203.879 136.262 201.372 136.684 198.706 136.684C192.782 136.684 188.27 135.043 185.171 131.762C182.072 128.48 180.522 123.832 180.522 117.816C180.522 113.76 181.263 110.206 182.744 107.152C184.248 104.076 186.401 101.706 189.204 100.043C192.007 98.3568 195.334 97.5137 199.185 97.5137C204.312 97.5137 208.242 98.9834 210.977 101.923C213.711 104.862 215.078 108.873 215.078 113.954C215.078 115.071 215.021 116.153 214.907 117.201C214.793 118.249 214.714 118.91 214.668 119.184L191.426 119.423ZM198.501 105.888C196.587 105.888 195.026 106.537 193.818 107.836C192.611 109.112 191.859 110.798 191.562 112.895H204.243C204.243 110.798 203.776 109.112 202.842 107.836C201.908 106.537 200.461 105.888 198.501 105.888ZM231.621 119.423C231.803 122.226 232.646 124.413 234.15 125.985C235.677 127.535 237.66 128.31 240.098 128.31C241.829 128.31 243.561 128.07 245.293 127.592C247.048 127.09 248.494 126.589 249.634 126.088C250.796 125.564 251.536 125.199 251.855 124.994L254.863 130.805C254.863 130.896 254.043 131.477 252.402 132.548C250.785 133.596 248.791 134.553 246.421 135.419C244.074 136.262 241.567 136.684 238.901 136.684C232.977 136.684 228.465 135.043 225.366 131.762C222.267 128.48 220.718 123.832 220.718 117.816C220.718 113.76 221.458 110.206 222.939 107.152C224.443 104.076 226.597 101.706 229.399 100.043C232.202 98.3568 235.529 97.5137 239.38 97.5137C244.507 97.5137 248.438 98.9834 251.172 101.923C253.906 104.862 255.273 108.873 255.273 113.954C255.273 115.071 255.216 116.153 255.103 117.201C254.989 118.249 254.909 118.91 254.863 119.184L231.621 119.423ZM238.696 105.888C236.782 105.888 235.221 106.537 234.014 107.836C232.806 109.112 232.054 110.798 231.758 112.895H244.438C244.438 110.798 243.971 109.112 243.037 107.836C242.103 106.537 240.656 105.888 238.696 105.888ZM274.072 98.1973L274.722 102.128C274.722 102.037 275.269 101.581 276.362 100.761C277.456 99.9404 278.755 99.1999 280.259 98.5391C281.785 97.8555 283.392 97.5137 285.078 97.5137C289.84 97.5137 293.452 99.1543 295.913 102.436C298.397 105.717 299.639 110.251 299.639 116.039C299.639 122.624 298.066 127.717 294.922 131.317C291.8 134.895 287.231 136.684 281.216 136.684C279.256 136.684 277.274 136.456 275.269 136V144.887L281.934 146.493V152.099H259.307V146.493L264.775 144.887V105.888L259.17 104.145V98.5391L274.072 98.1973ZM275.269 127.592C276.864 128.298 278.687 128.651 280.737 128.651C283.631 128.651 285.693 127.694 286.924 125.78C288.154 123.866 288.77 121.041 288.77 117.304C288.77 113.612 288.223 110.787 287.129 108.827C286.035 106.868 284.246 105.888 281.763 105.888C280.418 105.888 279.268 106.173 278.311 106.742C277.354 107.312 276.602 107.938 276.055 108.622C275.531 109.283 275.269 109.659 275.269 109.75V127.592ZM303.467 98.5391L319.565 98.1973V122.362C319.565 124.322 319.884 125.746 320.522 126.635C321.183 127.501 322.288 127.934 323.838 127.934C325.182 127.934 326.436 127.66 327.598 127.113C328.76 126.544 329.74 125.94 330.537 125.302C331.335 124.641 331.733 124.265 331.733 124.174V105.888L326.128 104.145V98.5391L342.227 98.1973V128.651L347.832 130.053V135.521L333.066 136L332.383 131.112C332.383 131.203 331.733 131.739 330.435 132.719C329.159 133.699 327.609 134.61 325.786 135.453C323.963 136.273 322.072 136.684 320.112 136.684C316.603 136.684 313.88 135.578 311.943 133.368C310.029 131.158 309.072 128.093 309.072 124.174V105.888L303.467 104.145V98.5391ZM365.332 101.205C366.585 100.225 367.998 99.3708 369.57 98.6416C371.143 97.8896 373.068 97.5137 375.347 97.5137C380.018 97.5137 383.573 99.1201 386.011 102.333C388.472 105.546 389.702 110.115 389.702 116.039C389.702 122.715 387.97 127.854 384.507 131.454C381.066 135.054 376.03 136.854 369.399 136.854C367.121 136.854 364.899 136.729 362.734 136.479C360.592 136.251 358.826 136.023 357.437 135.795C356.069 135.567 355.203 135.408 354.839 135.316V89.3105L349.575 87.9092V82.3037L365.332 81.7568V101.205ZM365.332 127.865C365.332 127.911 365.822 128.025 366.802 128.207C367.782 128.367 369.023 128.446 370.527 128.446C376.087 128.446 378.856 124.55 378.833 116.757C378.833 113.157 378.286 110.445 377.192 108.622C376.099 106.799 374.367 105.888 371.997 105.888C370.744 105.888 369.616 106.127 368.613 106.605C367.633 107.061 366.836 107.574 366.221 108.144C365.628 108.69 365.332 108.998 365.332 109.066V127.865ZM416.362 130.395V136H393.906V130.395L399.512 128.651V89.3105L393.906 87.9092V82.3037L410.073 81.7568V128.651L416.362 130.395ZM423.506 86.6445C423.506 84.7305 424.098 83.2038 425.283 82.0645C426.468 80.9251 427.881 80.3555 429.521 80.3555C433.441 80.3555 435.4 82.4518 435.4 86.6445C435.4 88.6042 434.797 90.165 433.589 91.3271C432.404 92.4665 431.048 93.0361 429.521 93.0361C427.607 93.0361 426.126 92.4893 425.078 91.3955C424.03 90.279 423.506 88.6953 423.506 86.6445ZM440.151 130.395V136H419.165V130.395L424.771 128.651V105.888L419.165 104.145V98.5391L435.264 98.1973V128.651L440.151 130.395ZM451.807 128.31C451.807 128.355 452.422 128.48 453.652 128.686C454.883 128.891 456.227 128.993 457.686 128.993C461.514 128.993 463.416 127.854 463.394 125.575C463.394 124.55 462.858 123.718 461.787 123.08C460.716 122.442 459.019 121.736 456.694 120.961C454.211 120.118 452.171 119.298 450.576 118.5C449.004 117.702 447.637 116.575 446.475 115.116C445.312 113.635 444.731 111.755 444.731 109.477C444.731 105.375 446.099 102.356 448.833 100.419C451.59 98.4821 455.031 97.5137 459.155 97.5137C461.024 97.5137 462.915 97.6618 464.829 97.958C466.766 98.2542 468.384 98.5846 469.683 98.9492C471.004 99.291 471.825 99.5075 472.144 99.5986L471.87 110.092H465.923L464.897 105.888C464.897 105.842 464.373 105.717 463.325 105.512C462.3 105.307 461.206 105.204 460.044 105.204C458.494 105.204 457.298 105.512 456.455 106.127C455.635 106.719 455.225 107.597 455.225 108.759C455.225 109.784 455.76 110.604 456.831 111.22C457.902 111.835 459.6 112.484 461.924 113.168C464.408 113.965 466.447 114.729 468.042 115.458C469.66 116.187 471.038 117.258 472.178 118.671C473.34 120.061 473.921 121.872 473.921 124.105C473.921 128.07 472.463 131.158 469.546 133.368C466.629 135.578 462.721 136.684 457.822 136.684C455.863 136.684 453.926 136.57 452.012 136.342C450.098 136.114 448.514 135.886 447.261 135.658C446.03 135.43 445.256 135.259 444.937 135.146V123.764H451.226L451.807 128.31ZM493.882 102.265C495.317 101.057 497.061 99.9632 499.111 98.9834C501.185 98.0036 503.361 97.5137 505.64 97.5137C509.194 97.5137 511.917 98.6188 513.809 100.829C515.7 103.039 516.646 106.127 516.646 110.092V128.651L521.533 130.395V136H502.495V130.395L506.118 128.72V111.767C506.118 108.03 504.58 106.173 501.504 106.195C500.342 106.195 499.202 106.48 498.086 107.05C496.969 107.597 496.035 108.166 495.283 108.759C494.531 109.328 494.064 109.704 493.882 109.887V128.651L497.607 130.395V136H477.783V130.395L483.389 128.651V89.3105L477.783 87.9092V82.3037L493.882 81.7568V102.265Z" fill="white"/>
</g>
<defs>
<filter id="filter0_dd_551_5076" x="0.257812" y="0.355469" width="651.57" height="165.743" filterUnits="userSpaceOnUse" color-interpolation-filters="sRGB">
<feFlood flood-opacity="0" result="BackgroundImageFix"/>
<feColorMatrix in="SourceAlpha" type="matrix" values="0 0 0 0 0 0 0 0 0 0 0 0 0 0 0 0 0 0 127 0" result="hardAlpha"/>
<feOffset dy="4"/>
<feGaussianBlur stdDeviation="2"/>
<feComposite in2="hardAlpha" operator="out"/>
<feColorMatrix type="matrix" values="0 0 0 0 0 0 0 0 0 0 0 0 0 0 0 0 0 0 0.25 0"/>
<feBlend mode="normal" in2="BackgroundImageFix" result="effect1_dropShadow_551_5076"/>
<feColorMatrix in="SourceAlpha" type="matrix" values="0 0 0 0 0 0 0 0 0 0 0 0 0 0 0 0 0 0 127 0" result="hardAlpha"/>
<feOffset dy="10"/>
<feGaussianBlur stdDeviation="2"/>
<feComposite in2="hardAlpha" operator="out"/>
<feColorMatrix type="matrix" values="0 0 0 0 0.854902 0 0 0 0 0.290196 0 0 0 0 0.243137 0 0 0 1 0"/>
<feBlend mode="normal" in2="effect1_dropShadow_551_5076" result="effect2_dropShadow_551_5076"/>
<feBlend mode="normal" in="SourceGraphic" in2="effect2_dropShadow_551_5076" result="shape"/>
</filter>
</defs>
</svg>
