<svg width="372" height="253" viewBox="0 0 372 253" fill="none" xmlns="http://www.w3.org/2000/svg">
<path d="M362.524 97.8792L358.58 110.175L361.376 111.507L365.32 99.211L362.524 97.8792Z" fill="#FCAE49"/>
<path d="M116.172 67.729L113.936 70.1697L121.163 80.0037L123.399 77.563L116.172 67.729Z" fill="#0098BA"/>
<path d="M149.307 111.744L140.637 119.658L142.437 122.587L151.107 114.672L149.307 111.744Z" fill="#FCAE49"/>
<path d="M249.587 20.9232L247.529 23.5874L255.419 32.6346L257.476 29.9704L249.587 20.9232Z" fill="#FCAE49"/>
<path d="M192.222 23.8651L186.822 35.3105L189.425 37.1338L194.824 25.6884L192.222 23.8651Z" fill="#0098BA"/>
<path d="M270.625 121.742L268.086 123.694L273.867 134.858L276.406 132.906L270.625 121.742Z" fill="#0098BA"/>
<path d="M152.906 176.107L150.221 177.742L155.062 189.551L157.748 187.916L152.906 176.107Z" fill="#0098BA"/>
<path d="M113.617 145.033L110.506 157.679L113.381 158.729L116.492 146.084L113.617 145.033Z" fill="#FCAE49"/>
<path d="M301.538 184.438L292.541 191.791L294.213 194.829L303.21 187.476L301.538 184.438Z" fill="#FCAE49"/>
<path d="M302.885 -2.12666e-05L297.486 11.4451L300.089 13.2683L305.488 1.82321L302.885 -2.12666e-05Z" fill="#0098BA"/>
<path d="M2.79595 93.6335L0 94.9653L3.94369 107.261L6.73964 105.929L2.79595 93.6335Z" fill="#0098BA"/>
<path d="M293.034 78.4435L291.234 81.3718L299.905 89.2863L301.705 86.3579L293.034 78.4435Z" fill="#0098BA"/>
<path d="M49.4871 24.5033L41.5977 33.5505L43.6549 36.2147L51.5443 27.1675L49.4871 24.5033Z" fill="#FCAE49"/>
<path d="M136.872 13.7294L134.27 15.5527L139.669 26.9981L142.271 25.1748L136.872 13.7294Z" fill="#FCAE49"/>
<path d="M30.7207 157.432L24.9395 168.596L27.4782 170.549L33.2594 159.384L30.7207 157.432Z" fill="#0098BA"/>
<path d="M5.11349 188.015L3.44141 191.055L12.4435 198.408L14.1156 195.368L5.11349 188.015Z" fill="#FCAE49"/>
<path d="M352.421 42.2222L349.818 44.0454L355.217 55.4905L357.82 53.6673L352.421 42.2222Z" fill="#FCAE49"/>
<path d="M239.633 73.4128L232.406 83.2468L234.642 85.6875L241.87 75.8535L239.633 73.4128Z" fill="#FCAE49"/>
<path d="M176.185 184.258L171.344 196.068L174.029 197.703L178.871 185.893L176.185 184.258Z" fill="#0098BA"/>
<path d="M215.477 153.186L212.602 154.236L215.712 166.882L218.587 165.831L215.477 153.186Z" fill="#FCAE49"/>
<path d="M216.446 160.402L206.214 150.924C205.989 150.716 205.731 150.567 205.457 150.487C205.182 150.407 204.897 150.397 204.619 150.459C204.341 150.521 204.077 150.652 203.843 150.845C203.609 151.038 203.411 151.288 203.26 151.58C202.997 152.128 202.91 152.776 203.017 153.399C203.123 154.021 203.415 154.573 203.837 154.948L206.031 156.98L196.725 154.448C195.694 154.145 194.27 154.576 194.067 156.007C193.959 156.552 194.006 157.125 194.2 157.633C194.394 158.141 194.723 158.553 195.134 158.804C195.129 158.815 195.126 158.827 195.123 158.839C195.122 158.848 195.122 158.858 195.123 158.867L193.533 158.399C193.239 158.313 192.932 158.307 192.636 158.384C192.34 158.46 192.061 158.616 191.82 158.84C191.58 159.064 191.383 159.351 191.245 159.679C191.107 160.007 191.03 160.369 191.022 160.738C191.017 161.319 191.177 161.885 191.473 162.34C191.77 162.795 192.186 163.112 192.652 163.239L193.327 163.438C193.332 163.464 193.34 163.489 193.351 163.513C192.869 163.507 192.4 163.712 192.03 164.089C191.659 164.466 191.411 164.991 191.329 165.57C191.255 166.208 191.381 166.856 191.681 167.385C191.981 167.915 192.435 168.286 192.95 168.427L194.631 168.921C194.603 168.935 194.578 168.956 194.559 168.983C194.539 169.011 194.525 169.043 194.518 169.079C194.511 169.121 194.515 169.165 194.528 169.205C194.097 169.346 193.716 169.655 193.444 170.086C193.171 170.516 193.022 171.044 193.02 171.587C193.027 172.158 193.192 172.71 193.488 173.152C193.784 173.595 194.194 173.903 194.651 174.026L208.826 178.199C210.809 178.783 212.89 178.631 214.802 177.765C216.714 176.898 218.37 175.355 219.558 173.334C220.582 171.591 221.008 169.431 220.746 167.311C220.483 165.191 219.553 163.28 218.153 161.983L216.446 160.402Z" fill="#E98862"/>
<g opacity="0.2">
<path d="M204.335 161.366C204.323 161.424 204.293 161.474 204.252 161.505C204.21 161.536 204.16 161.547 204.112 161.533L195.264 159.11C195.24 159.103 195.217 159.091 195.197 159.074C195.177 159.056 195.159 159.034 195.146 159.009C195.133 158.984 195.124 158.955 195.12 158.926C195.116 158.896 195.116 158.866 195.122 158.836C195.127 158.807 195.137 158.779 195.152 158.755C195.166 158.73 195.184 158.709 195.205 158.693C195.225 158.677 195.249 158.666 195.273 158.661C195.297 158.656 195.322 158.657 195.346 158.664L204.194 161.087C204.218 161.094 204.241 161.106 204.261 161.123C204.281 161.141 204.299 161.163 204.312 161.188C204.325 161.214 204.334 161.242 204.338 161.272C204.342 161.302 204.341 161.332 204.336 161.362L204.335 161.366Z" fill="#0C0C0C"/>
</g>
<g opacity="0.2">
<path d="M203.567 166.151C203.555 166.209 203.524 166.26 203.482 166.291C203.44 166.322 203.39 166.332 203.341 166.318L193.467 163.616C193.443 163.609 193.42 163.597 193.4 163.58C193.38 163.562 193.362 163.54 193.349 163.515C193.336 163.489 193.327 163.461 193.323 163.431C193.319 163.401 193.32 163.371 193.325 163.341C193.338 163.283 193.368 163.233 193.41 163.201C193.451 163.169 193.502 163.157 193.55 163.169L203.425 165.871C203.449 165.878 203.472 165.89 203.492 165.908C203.512 165.925 203.529 165.947 203.542 165.972C203.556 165.998 203.565 166.026 203.569 166.056C203.573 166.086 203.572 166.116 203.567 166.146V166.151Z" fill="#0C0C0C"/>
</g>
<g opacity="0.2">
<path d="M202.758 171.339C202.746 171.397 202.716 171.447 202.675 171.478C202.633 171.51 202.583 171.52 202.535 171.507L194.658 169.351C194.61 169.338 194.568 169.302 194.541 169.25C194.514 169.199 194.505 169.137 194.516 169.078C194.527 169.019 194.557 168.967 194.599 168.935C194.641 168.902 194.692 168.892 194.74 168.905L202.617 171.061C202.641 171.067 202.664 171.079 202.684 171.097C202.705 171.114 202.722 171.136 202.735 171.162C202.748 171.187 202.757 171.216 202.762 171.245C202.766 171.275 202.765 171.306 202.759 171.335L202.758 171.339Z" fill="#0C0C0C"/>
</g>
<path d="M167.868 95.2093L173.581 81.1792C173.706 80.871 173.883 80.5979 174.1 80.3775C174.317 80.157 174.569 79.9941 174.84 79.8989C175.112 79.8037 175.396 79.7785 175.676 79.8248C175.956 79.8711 176.225 79.9879 176.465 80.1677C176.902 80.5164 177.216 81.05 177.348 81.6652C177.48 82.2804 177.419 82.9332 177.178 83.4972L175.953 86.5057L183.368 79.2015C184.18 78.3715 185.614 77.9869 186.317 79.1594C186.612 79.589 186.779 80.1278 186.79 80.6878C186.802 81.2478 186.657 81.796 186.38 82.2429C186.388 82.2503 186.396 82.2587 186.403 82.268C186.407 82.2761 186.41 82.2845 186.414 82.2932L187.667 81.0128C187.899 80.7759 188.172 80.6052 188.465 80.5131C188.759 80.421 189.065 80.4097 189.362 80.4802C189.66 80.5507 189.94 80.7012 190.184 80.9206C190.427 81.14 190.628 81.4229 190.77 81.7486C190.986 82.267 191.049 82.86 190.949 83.4284C190.849 83.9968 190.592 84.5062 190.221 84.8714L189.688 85.416C189.694 85.442 189.695 85.4692 189.693 85.496C190.124 85.2301 190.618 85.1593 191.087 85.2965C191.556 85.4336 191.97 85.7697 192.255 86.2446C192.553 86.7756 192.677 87.4243 192.6 88.0614C192.524 88.6984 192.253 89.2768 191.842 89.6811L190.517 91.0333C190.547 91.0302 190.577 91.0358 190.604 91.0496C190.632 91.0634 190.657 91.0852 190.676 91.1129C190.697 91.1475 190.71 91.1889 190.713 91.2323C191.151 91.125 191.605 91.1958 192.006 91.4338C192.407 91.6719 192.733 92.064 192.933 92.5497C193.135 93.065 193.188 93.6483 193.084 94.2051C192.98 94.7619 192.725 95.2596 192.36 95.6177L181.182 107.029C179.618 108.625 177.698 109.616 175.669 109.875C173.64 110.133 171.594 109.647 169.794 108.479C168.241 107.472 167.072 105.767 166.534 103.726C165.997 101.685 166.133 99.4698 166.915 97.5497L167.868 95.2093Z" fill="#E98862"/>
<g opacity="0.2">
<path d="M179.07 89.5171C179.102 89.5631 179.147 89.5921 179.196 89.5977C179.246 89.6032 179.295 89.585 179.333 89.5468L186.378 82.5878C186.416 82.5496 186.441 82.4942 186.446 82.4339C186.451 82.3735 186.436 82.3132 186.405 82.2661C186.374 82.2189 186.328 82.1889 186.279 82.1826C186.229 82.1763 186.18 82.1943 186.141 82.2325L179.096 89.1915C179.058 89.2296 179.034 89.2846 179.028 89.3446C179.023 89.4045 179.038 89.4645 179.069 89.5116L179.07 89.5171Z" fill="#0C0C0C"/>
</g>
<g opacity="0.2">
<path d="M181.501 93.3883C181.533 93.4343 181.578 93.4632 181.628 93.4687C181.677 93.4742 181.726 93.4558 181.764 93.4176L189.626 85.6515C189.664 85.6133 189.689 85.5582 189.694 85.4983C189.699 85.4383 189.684 85.3783 189.653 85.3314C189.621 85.2863 189.576 85.2578 189.528 85.2516C189.479 85.2453 189.43 85.2617 189.391 85.2975L181.526 93.0623C181.488 93.1004 181.463 93.1554 181.458 93.2154C181.453 93.2753 181.467 93.3353 181.498 93.3824L181.501 93.3883Z" fill="#0C0C0C"/>
</g>
<g opacity="0.2">
<path d="M184.116 97.5991C184.148 97.6452 184.194 97.6742 184.243 97.6797C184.292 97.6853 184.341 97.667 184.379 97.6288L190.651 91.434C190.689 91.3958 190.714 91.3404 190.719 91.2801C190.724 91.2197 190.71 91.1594 190.678 91.1123C190.647 91.0651 190.601 91.0351 190.552 91.0288C190.502 91.0225 190.453 91.0404 190.414 91.0786L184.141 97.2735C184.103 97.3117 184.079 97.3667 184.073 97.4266C184.068 97.4866 184.083 97.5466 184.113 97.5936L184.116 97.5991Z" fill="#0C0C0C"/>
</g>
<path d="M39.6628 83.1799C39.6628 83.1799 38.8572 97.9114 36.1378 103.255C28.308 118.642 26.0396 135.951 33.8803 144.995C41.721 154.039 91.7315 154.164 95.5203 133.364C98.7099 115.852 91.8651 113.969 90.1994 99.5243C89.4459 92.9878 87.3727 79.2815 87.3727 79.2815" fill="#0A0A0A"/>
<path d="M82.5766 130.314C82.4903 130.3 81.5323 149.671 63.0662 147.983C50.2824 146.815 45.7243 130.286 45.4316 130.286C46.8099 129.928 49.1308 129.409 49.7428 129.011C51.756 127.693 54.2457 126.321 54.8956 121.557C55.2709 118.814 54.6348 104.765 54.8303 101.985L74.4533 107.325C74.179 113.192 72.26 126.794 78.9862 129.201C80.1052 129.6 81.3109 129.966 82.5766 130.314Z" fill="#E98862"/>
<path opacity="0.5" d="M74.7282 123.643C74.4208 122.436 74.2229 121.191 74.138 119.932C73.9223 117.057 73.9654 114.163 74.2663 111.299C70.2782 110.643 66.521 108.637 63.4218 105.509C63.0574 107.149 61.0532 114.314 61.6082 115.873C62.6563 118.819 67.5843 123.643 74.7282 123.643Z" fill="#0C0C0C"/>
<path d="M72.1913 117.608C64.4545 118.523 54.4446 114.749 52.371 102.193L50.5 90.8646C48.4264 78.3093 52.1567 66.8039 61.8571 64.4246C71.5579 62.0467 80.4894 70.4448 82.563 83.0006L83.3916 88.0162C84.1871 92.8337 85.9946 115.98 72.1913 117.608Z" fill="#E98862"/>
<path opacity="0.1" d="M67.2732 101.155C68.5464 100.97 69.4882 99.8973 69.3768 98.7593C69.2653 97.6213 68.1429 96.8488 66.8697 97.034C65.5966 97.2191 64.6548 98.2917 64.7662 99.4297C64.8776 100.568 66 101.34 67.2732 101.155Z" fill="#0C0C0C"/>
<path opacity="0.1" d="M80.7275 96.6053C80.8401 97.7417 81.964 98.5131 83.2372 98.3302C83.4572 98.298 83.6739 98.2381 83.8837 98.1514C83.943 96.7964 83.9464 95.4932 83.9141 94.2864C83.5605 94.1786 83.1934 94.1523 82.8319 94.2091C81.5587 94.392 80.6172 95.4644 80.7275 96.6053Z" fill="#0C0C0C"/>
<path opacity="0.5" d="M75.1005 100.118C75.1068 100.117 75.113 100.116 75.1192 100.114C75.5124 100.014 75.9008 99.888 76.2825 99.7359C76.8521 99.5036 77.5958 99.1222 77.4938 98.4944C77.3759 97.7792 74.4918 90.4548 74.1646 89.623C74.1512 89.5854 74.1317 89.5516 74.1073 89.5234C74.083 89.4953 74.0542 89.4734 74.0227 89.4591C73.9912 89.4448 73.9576 89.4384 73.9241 89.4403C73.8905 89.4421 73.8576 89.4522 73.8273 89.4699C73.797 89.4877 73.77 89.5126 73.7478 89.5434C73.7256 89.5741 73.7087 89.61 73.6982 89.6489C73.6876 89.6878 73.6836 89.7288 73.6864 89.7696C73.6892 89.8105 73.6987 89.8502 73.7143 89.8864C74.944 93.0056 76.9245 98.134 77.0041 98.6156C76.9418 98.8401 75.9969 99.2786 75.0217 99.5183C74.9893 99.5246 74.9583 99.5387 74.9304 99.5597C74.9025 99.5806 74.8783 99.6081 74.8591 99.6405C74.84 99.6728 74.8262 99.7095 74.8186 99.7484C74.8111 99.7872 74.8099 99.8275 74.8151 99.8669C74.8203 99.9064 74.8319 99.9441 74.8491 99.9781C74.8663 100.012 74.8888 100.042 74.9154 100.065C74.942 100.088 74.972 100.105 75.0039 100.114C75.0358 100.124 75.0689 100.125 75.1012 100.119L75.1005 100.118Z" fill="#0C0C0C"/>
<path d="M42.7605 94.9321L51.4571 92.8619C58.0265 89.5141 59.8903 75.5618 59.8903 75.5618C59.8903 75.5618 67.9978 84.9714 87.3746 79.2814C87.3746 79.2814 83.1655 46.3173 54.554 56.3255C45.3286 59.5517 38.7938 71.0113 39.7656 86.1896C40.4467 96.8234 42.7605 94.9321 42.7605 94.9321Z" fill="#0A0A0A"/>
<path d="M53.6046 105.871C50.6567 106.594 47.6322 103.337 47.0379 99.7432C46.4435 96.1498 48.5073 93.5835 51.4552 92.8601L53.372 94.895L56.1386 105.249L53.6046 105.871Z" fill="#E98862"/>
<path d="M76.2554 83.782C76.993 83.1464 77.8555 82.7602 78.7553 82.6626C79.2074 82.6097 79.6635 82.6406 80.108 82.754C80.5563 82.8653 80.9914 83.0448 81.403 83.2881L81.4157 83.2954C81.4614 83.32 81.5131 83.3218 81.5598 83.3005C81.6065 83.2792 81.6445 83.2365 81.6657 83.1815C81.6869 83.1265 81.6896 83.0636 81.6733 83.0062C81.657 82.9488 81.6228 82.9014 81.5782 82.8743C81.142 82.5936 80.6786 82.381 80.1988 82.2414C79.7157 82.0983 79.2177 82.0445 78.7215 82.0818C77.7164 82.1495 76.7446 82.5442 75.9072 83.225C75.876 83.2508 75.8492 83.2838 75.8285 83.3222C75.8077 83.3606 75.7934 83.4036 75.7863 83.4487C75.7793 83.4938 75.7796 83.5402 75.7872 83.5852C75.7949 83.6302 75.8097 83.6729 75.831 83.7109C75.8522 83.7489 75.8794 83.7814 75.9109 83.8066C75.9425 83.8318 75.9778 83.8491 76.0148 83.8576C76.0519 83.8661 76.09 83.8656 76.1269 83.8562C76.1638 83.8468 76.1988 83.8285 76.2299 83.8026L76.2366 83.7971L76.2554 83.782Z" fill="#0C0C0C"/>
<path d="M68.3115 85.1201C67.324 84.8806 66.3018 84.9686 65.3516 85.3748C64.882 85.5719 64.4392 85.8539 64.0383 86.2112C63.6389 86.5639 63.2775 86.9766 62.9628 87.4394C62.931 87.4855 62.9151 87.5447 62.9184 87.6047C62.9217 87.6647 62.9439 87.7209 62.9803 87.7614C63.0168 87.8019 63.0648 87.8236 63.1141 87.822C63.1635 87.8204 63.2104 87.7955 63.245 87.7527L63.2551 87.7399C63.5588 87.323 63.9042 86.9543 64.2833 86.6424C64.6585 86.3305 65.0701 86.0896 65.5043 85.9276C66.3662 85.5977 67.2845 85.5519 68.1656 85.795L68.1873 85.8019C68.2613 85.8237 68.3393 85.8089 68.4043 85.7606C68.4692 85.7123 68.5158 85.6346 68.5337 85.5444C68.5516 85.4543 68.5394 85.3592 68.4998 85.2801C68.4602 85.2009 68.3964 85.1442 68.3224 85.1224L68.3115 85.1201Z" fill="#0C0C0C"/>
<path d="M51.4622 92.6873C57.3081 90.0351 59.2481 85.1156 59.8455 81.4545C60.2321 79.0129 60.1959 76.4998 59.7393 74.0762L59.5584 74.137C60.0082 76.529 60.043 79.0091 59.6605 81.4184C59.0706 85.0195 57.1583 89.8604 51.3965 92.4738L51.4622 92.6873Z" fill="#0C0C0C"/>
<path d="M97.6171 132.618L153.126 155.23L136.829 164.058L164.507 94.8608L187.128 107.708L161.447 178.039C160.148 181.595 157.843 184.464 154.952 186.12C152.061 187.776 148.777 188.109 145.701 187.058L145.15 186.867L88.8008 167.588L97.6171 132.618Z" fill="#FCAE49"/>
<path d="M62.7216 143.14C49.9288 142.405 49.3904 129.173 49.3904 129.173C49.3904 129.173 43.0518 129.672 38.8381 130.367C31.9397 131.504 27.3887 134.355 23.7669 138.768C20.398 142.874 18.3469 147.316 20.5173 175.676C22.0888 196.211 20.983 241.379 20.983 241.379H98.9397C98.9397 241.379 104.383 176.124 105.029 166.882C106.26 149.235 109.74 145.34 102.69 136.25C97.5772 129.658 84.378 129.173 79.0653 129.174C78.9786 129.174 80.1434 144.141 62.7216 143.14Z" fill="#FCAE49"/>
<path d="M77.695 102.593C75.1813 104.15 72.3134 104.643 69.5443 103.992C69.4485 103.97 69.3495 103.982 69.2589 104.026C69.1683 104.07 69.0899 104.145 69.0328 104.241C68.9757 104.338 68.9423 104.452 68.9365 104.571C68.9306 104.689 68.9526 104.807 68.9999 104.911C69.8254 106.684 71.7834 109.713 75.1426 108.478C77.3115 107.681 78.1314 104.962 78.4353 103.279C78.4561 103.163 78.4492 103.042 78.4155 102.93C78.3817 102.818 78.3224 102.721 78.2447 102.649C78.1669 102.576 78.0739 102.533 77.9765 102.523C77.8792 102.513 77.7815 102.537 77.695 102.593Z" fill="white"/>
<path d="M77.8514 88.969C78.5222 88.969 79.066 88.3063 79.066 87.4888C79.066 86.6713 78.5222 86.0085 77.8514 86.0085C77.1805 86.0085 76.6367 86.6713 76.6367 87.4888C76.6367 88.3063 77.1805 88.969 77.8514 88.969Z" fill="#0C0C0C"/>
<path d="M66.1815 91.459C66.8523 91.459 67.3961 90.7963 67.3961 89.9788C67.3961 89.1613 66.8523 88.4985 66.1815 88.4985C65.5106 88.4985 64.9668 89.1613 64.9668 89.9788C64.9668 90.7963 65.5106 91.459 66.1815 91.459Z" fill="#0C0C0C"/>
<path d="M104.856 173.311C104.848 173.312 104.84 173.312 104.832 173.311C104.783 173.304 104.738 173.273 104.708 173.225C104.677 173.177 104.663 173.117 104.669 173.057L105.877 161.131C105.879 161.101 105.887 161.072 105.899 161.046C105.911 161.02 105.927 160.997 105.946 160.978C105.966 160.959 105.988 160.946 106.012 160.938C106.036 160.93 106.061 160.929 106.086 160.933C106.11 160.937 106.134 160.946 106.155 160.961C106.177 160.976 106.195 160.996 106.211 161.019C106.226 161.043 106.237 161.07 106.243 161.099C106.25 161.128 106.252 161.158 106.249 161.188L105.042 173.113C105.036 173.168 105.013 173.218 104.979 173.255C104.945 173.291 104.901 173.311 104.856 173.311Z" fill="#0C0C0C"/>
<path d="M302.184 81.2947C302.184 81.2947 297.534 74.9306 298.073 63.0123C298.49 53.7842 304.331 61.2471 304.331 61.2471C304.331 61.2471 304.685 54.6059 308.447 56.1872C312.208 57.7685 313.265 65.0916 313.265 65.0916" fill="#0C0C0C"/>
<path d="M328.318 61.801C328.318 61.801 347.101 68.9709 334.979 98.9786L333.258 98.7042L329.765 98.1486" fill="#0C0C0C"/>
<path d="M301.598 130.265C301.684 130.252 302.639 149.558 321.043 147.875C333.785 146.712 338.328 130.238 338.62 130.238C337.246 129.882 334.933 129.365 334.323 128.968C332.316 127.654 329.834 126.287 329.187 121.539C328.814 118.802 329.447 104.803 329.252 102.033L309.694 107.353C309.967 113.201 311.88 126.757 305.176 129.157C304.061 129.554 302.858 129.919 301.598 130.265Z" fill="#E98862"/>
<path opacity="0.52" d="M309.42 123.617C309.726 122.414 309.923 121.173 310.008 119.917C310.223 117.052 310.18 114.167 309.88 111.313C313.856 110.66 317.601 108.66 320.69 105.542C321.053 107.177 323.05 114.319 322.497 115.872C321.452 118.808 316.54 123.617 309.42 123.617Z" fill="#0C0C0C"/>
<path d="M311.767 117.078C319.469 118.089 329.478 114.463 331.657 101.977L333.622 90.7106C335.799 78.2266 332.185 66.7089 322.538 64.2098C312.891 61.7108 303.915 69.9648 301.737 82.4506L300.867 87.4383C300.592 89.1571 300.415 90.8967 300.335 92.6449C300.095 97.2636 299.745 104.29 301.494 109.525C303.145 114.467 306.846 116.432 311.767 117.078Z" fill="#E98862"/>
<path d="M305.648 88.314C306.319 88.314 306.863 87.6513 306.863 86.8338C306.863 86.0162 306.319 85.3535 305.648 85.3535C304.977 85.3535 304.434 86.0162 304.434 86.8338C304.434 87.6513 304.977 88.314 305.648 88.314Z" fill="#0C0C0C"/>
<path d="M317.183 89.7942C317.854 89.7942 318.398 89.1315 318.398 88.314C318.398 87.4965 317.854 86.8337 317.183 86.8337C316.513 86.8337 315.969 87.4965 315.969 88.314C315.969 89.1315 316.513 89.7942 317.183 89.7942Z" fill="#0C0C0C"/>
<path d="M330.394 105.626C333.325 106.385 336.369 103.179 336.992 99.6059C337.615 96.0331 335.582 93.4475 332.651 92.688L330.722 94.6905L327.873 104.973L330.394 105.626Z" fill="#E98862"/>
<path d="M328.412 99.1601C328.412 99.1601 330.317 81.2065 326.088 79.0422C323.274 77.6008 315.325 80.9454 308.982 77.8116C306.207 76.4397 303.327 76.6455 302.777 78.2383C302.558 78.8689 302.307 68.985 307.997 62.9122C312.527 58.0769 324.559 59.3239 329.608 62.4966C343.585 71.2806 333.13 93.6155 333.13 93.6155L331.47 99.5602L328.412 99.1601Z" fill="#0C0C0C"/>
<g opacity="0.52">
<path d="M308.808 100.445L308.789 100.441C307.843 100.199 306.28 99.6636 306.428 98.8035C306.551 98.0896 309.482 90.7922 309.816 89.9627C309.845 89.8913 309.896 89.8368 309.957 89.8111C310.019 89.7853 310.087 89.7905 310.145 89.8255C310.204 89.8605 310.249 89.9224 310.27 89.9976C310.291 90.0728 310.287 90.1552 310.258 90.2266C308.958 93.4578 306.993 98.4413 306.909 98.9265C306.967 99.1551 307.911 99.6037 308.889 99.8539C308.951 99.8706 309.005 99.9155 309.04 99.9792C309.075 100.043 309.089 100.121 309.078 100.196C309.068 100.272 309.034 100.34 308.984 100.386C308.933 100.432 308.87 100.453 308.808 100.445Z" fill="#0C0C0C"/>
</g>
<path d="M308.589 82.2034C307.66 81.6323 306.623 81.3768 305.585 81.4639C305.075 81.5031 304.572 81.6352 304.095 81.8558C303.622 82.0715 303.173 82.3591 302.76 82.7119C302.691 82.7655 302.642 82.8502 302.623 82.9475C302.605 83.0449 302.619 83.1472 302.662 83.2323C302.705 83.3174 302.773 83.3785 302.853 83.4023C302.932 83.4262 303.017 83.4109 303.087 83.3599L303.109 83.3448C303.488 83.0581 303.895 82.8307 304.321 82.668C304.741 82.5045 305.179 82.4195 305.619 82.416C306.49 82.4004 307.349 82.6656 308.109 83.1847L308.137 83.2053C308.19 83.2439 308.249 83.2693 308.31 83.2801C308.372 83.2908 308.434 83.2867 308.494 83.2679C308.554 83.2491 308.61 83.2161 308.66 83.1707C308.709 83.1253 308.751 83.0684 308.782 83.0033C308.814 82.9382 308.834 82.8662 308.842 82.7915C308.851 82.7167 308.847 82.6407 308.831 82.5677C308.815 82.4948 308.788 82.4264 308.75 82.3664C308.713 82.3065 308.666 82.2562 308.612 82.2185L308.589 82.2034Z" fill="#0C0C0C"/>
<path d="M315.536 84.4912C316.379 84.2274 317.265 84.2399 318.104 84.5273C318.528 84.669 318.933 84.8881 319.304 85.1771C319.682 85.468 320.027 85.8153 320.333 86.2111L320.35 86.2316C320.408 86.3 320.485 86.3385 320.566 86.3391C320.647 86.3397 320.724 86.3023 320.783 86.2348C320.841 86.1674 320.876 86.0749 320.88 85.9769C320.884 85.8788 320.857 85.7827 320.804 85.7085C320.479 85.2382 320.106 84.8198 319.695 84.4633C319.279 84.1007 318.822 83.8158 318.337 83.6182C317.353 83.2085 316.296 83.1295 315.278 83.3896C315.217 83.4056 315.16 83.4359 315.11 83.4788C315.059 83.5217 315.016 83.5763 314.983 83.6395C314.915 83.7672 314.892 83.9222 314.919 84.0705C314.946 84.2188 315.019 84.3481 315.124 84.4301C315.229 84.5121 315.356 84.54 315.478 84.5077L315.502 84.5003L315.536 84.4912Z" fill="#0C0C0C"/>
<path d="M307.32 103.214C310.056 104.047 312.942 103.746 315.521 102.357C315.61 102.309 315.709 102.294 315.805 102.312C315.902 102.33 315.992 102.381 316.065 102.46C316.138 102.538 316.192 102.64 316.219 102.754C316.247 102.868 316.247 102.99 316.22 103.104C315.74 105.057 314.389 108.546 310.889 108.257C308.628 108.071 307.33 105.644 306.723 104.087C306.681 103.979 306.666 103.859 306.678 103.741C306.69 103.622 306.73 103.51 306.793 103.419C306.856 103.327 306.939 103.259 307.032 103.223C307.125 103.187 307.225 103.184 307.32 103.214Z" fill="white"/>
<path d="M318.179 65.4701C319.486 61.7304 318.856 57.8214 316.771 56.7391C314.686 55.6567 311.936 57.8109 310.629 61.5505C309.321 65.2902 309.952 69.1992 312.037 70.2815C314.122 71.3639 316.871 69.2097 318.179 65.4701Z" fill="#0C0C0C"/>
<path d="M321.33 143.14C334.122 142.405 334.661 129.173 334.661 129.173C334.661 129.173 340.999 129.672 345.213 130.367C352.112 131.504 356.663 134.355 360.284 138.768C363.654 142.874 365.704 147.316 363.534 175.676C361.962 196.211 363.069 241.379 363.069 241.379H285.112C285.112 241.379 279.668 176.126 279.023 166.882C277.791 149.235 274.312 145.34 281.361 136.25C286.474 129.658 299.673 129.173 304.986 129.174C305.072 129.174 303.909 144.141 321.33 143.14Z" fill="#FCAE49"/>
<path d="M278.839 140.337L258.683 192.409L218.936 155.983L203.148 181.567L255.78 229.8C256.251 230.226 256.743 230.617 257.254 230.97C258.757 231.997 260.413 232.653 262.124 232.9C263.836 233.147 265.571 232.981 267.23 232.412C268.889 231.842 270.44 230.879 271.794 229.579C273.148 228.279 274.279 226.666 275.121 224.834L275.349 224.338L306.099 157.451L278.839 140.337Z" fill="#FCAE49"/>
<path d="M366.06 241.836H11.0491C10.9496 241.836 10.8541 241.788 10.7837 241.703C10.7134 241.617 10.6738 241.5 10.6738 241.379C10.6738 241.258 10.7134 241.142 10.7837 241.056C10.8541 240.97 10.9496 240.922 11.0491 240.922H366.06C366.16 240.922 366.255 240.97 366.325 241.056C366.396 241.142 366.435 241.258 366.435 241.379C366.435 241.5 366.396 241.617 366.325 241.703C366.255 241.788 366.16 241.836 366.06 241.836Z" fill="#292A2E"/>
<path d="M288.842 173.362H98.7363V252.551H288.842V173.362Z" fill="white"/>
<path d="M289.029 252.78H98.5488V173.133H289.029V252.78ZM98.9241 252.323H288.654V173.59H98.9241V252.323Z" fill="#0C0C0C"/>
<path d="M89.3501 197.563L101.085 191.176C101.343 191.036 101.622 190.963 101.904 190.961C102.187 190.959 102.466 191.029 102.725 191.167C102.984 191.304 103.217 191.505 103.409 191.758C103.6 192.011 103.747 192.309 103.838 192.635C103.992 193.242 103.956 193.898 103.736 194.474C103.516 195.05 103.128 195.507 102.648 195.754L100.131 197.126L109.667 197.246C110.727 197.236 112.033 198.052 111.963 199.502C111.966 200.062 111.813 200.607 111.529 201.048C111.246 201.488 110.848 201.799 110.401 201.928C110.403 201.941 110.405 201.953 110.405 201.966C110.404 201.975 110.402 201.984 110.4 201.993L112.035 201.979C112.338 201.977 112.637 202.057 112.911 202.213C113.186 202.369 113.428 202.598 113.62 202.883C113.812 203.168 113.95 203.501 114.024 203.859C114.097 204.217 114.104 204.59 114.044 204.952C113.939 205.519 113.678 206.025 113.304 206.386C112.93 206.747 112.466 206.94 111.989 206.934L111.293 206.94C111.284 206.965 111.271 206.987 111.256 207.006C111.726 207.135 112.144 207.464 112.434 207.934C112.725 208.403 112.868 208.984 112.84 209.571C112.793 210.212 112.55 210.808 112.158 211.241C111.767 211.673 111.256 211.909 110.727 211.903L108.999 211.918C109.023 211.939 109.043 211.966 109.057 211.998C109.071 212.029 109.079 212.065 109.08 212.101C109.078 212.144 109.067 212.186 109.046 212.221C109.439 212.478 109.753 212.885 109.938 213.38C110.122 213.874 110.169 214.429 110.07 214.959C109.956 215.513 109.692 216.004 109.321 216.353C108.95 216.701 108.494 216.887 108.025 216.88L93.4433 217.007C91.4035 217.024 89.4058 216.299 87.7063 214.925C86.0068 213.55 84.6829 211.588 83.9042 209.29C83.2329 207.309 83.2218 205.087 83.8734 203.096C84.5251 201.105 85.788 199.502 87.394 198.628L89.3501 197.563Z" fill="#E98862"/>
<g opacity="0.2">
<path d="M100.961 201.865C100.962 201.925 100.982 201.982 101.017 202.024C101.052 202.067 101.099 202.09 101.149 202.09L110.217 202.19C110.266 202.19 110.314 202.167 110.35 202.124C110.385 202.082 110.406 202.024 110.406 201.963C110.406 201.902 110.387 201.844 110.352 201.801C110.317 201.757 110.27 201.733 110.22 201.732L101.152 201.633C101.102 201.633 101.054 201.657 101.019 201.7C100.984 201.742 100.964 201.801 100.964 201.861L100.961 201.865Z" fill="#0C0C0C"/>
</g>
<g opacity="0.2">
<path d="M100.814 206.739C100.815 206.799 100.835 206.857 100.87 206.899C100.905 206.941 100.953 206.965 101.002 206.965L111.122 207.076C111.172 207.076 111.219 207.052 111.255 207.009C111.29 206.966 111.31 206.908 111.31 206.847C111.308 206.787 111.288 206.73 111.253 206.688C111.218 206.645 111.171 206.621 111.122 206.618L101.002 206.507C100.977 206.507 100.953 206.513 100.93 206.524C100.907 206.535 100.886 206.552 100.868 206.573C100.85 206.595 100.837 206.62 100.827 206.648C100.817 206.676 100.812 206.706 100.813 206.736L100.814 206.739Z" fill="#0C0C0C"/>
</g>
<g opacity="0.2">
<path d="M100.631 212.014C100.632 212.074 100.652 212.131 100.687 212.173C100.722 212.215 100.769 212.239 100.818 212.239L108.891 212.328C108.941 212.328 108.989 212.305 109.024 212.262C109.06 212.22 109.08 212.162 109.08 212.101C109.081 212.041 109.062 211.982 109.027 211.939C108.992 211.896 108.944 211.871 108.894 211.87L100.822 211.782C100.772 211.782 100.724 211.806 100.689 211.849C100.654 211.892 100.634 211.95 100.634 212.01L100.631 212.014Z" fill="#0C0C0C"/>
</g>
<path d="M92.7091 223.026L27.6469 241.05C25.4855 241.337 23.299 241.009 21.2589 240.093C19.2189 239.177 17.3807 237.698 15.8888 235.77C14.3968 233.843 13.2916 231.521 12.6599 228.985C12.0281 226.45 11.887 223.771 12.2477 221.158L19.6932 148.175C20.3125 143.69 22.3683 139.689 25.4085 137.051C28.4488 134.413 32.2243 133.355 35.9047 134.11C39.585 134.864 42.8686 137.37 45.0331 141.075C47.1976 144.779 48.0658 149.381 47.4466 153.866L43.8611 206.104L89.0644 193.637L92.7091 223.026Z" fill="#FCAE49"/>
<path d="M34.7134 208.157C34.6663 208.156 34.6211 208.134 34.5867 208.095C34.5523 208.056 34.5313 208.002 34.5278 207.945C34.5244 207.888 34.5388 207.831 34.5681 207.786C34.5974 207.741 34.6395 207.711 34.686 207.702L43.7523 205.343C43.7767 205.338 43.8016 205.339 43.8256 205.346C43.8496 205.353 43.8722 205.366 43.8921 205.384C43.912 205.402 43.9287 205.425 43.9413 205.451C43.9539 205.477 43.9621 205.505 43.9654 205.535C43.9727 205.595 43.9602 205.656 43.9307 205.705C43.9011 205.753 43.8569 205.786 43.8078 205.795L34.7416 208.154C34.7323 208.156 34.7228 208.157 34.7134 208.157Z" fill="#0C0C0C"/>
<path d="M29.5987 241.379C29.5489 241.383 29.4999 241.363 29.4624 241.323C29.4249 241.282 29.4021 241.226 29.3988 241.165C29.3956 241.105 29.4123 241.045 29.4452 240.999C29.4781 240.954 29.5245 240.926 29.5743 240.922L92.3006 222.918L88.7463 193.971L43.8129 205.792C43.7838 205.797 43.7543 205.793 43.7266 205.781C43.699 205.77 43.6739 205.75 43.6534 205.725C43.6329 205.699 43.6177 205.668 43.6089 205.633C43.6002 205.599 43.5982 205.563 43.6031 205.528L46.1236 175.68C46.1274 175.651 46.136 175.622 46.149 175.596C46.1619 175.571 46.179 175.549 46.1992 175.531C46.2193 175.514 46.2421 175.501 46.2663 175.495C46.2904 175.488 46.3154 175.488 46.3397 175.493C46.3888 175.503 46.4326 175.536 46.4614 175.586C46.4903 175.635 46.5018 175.697 46.4936 175.756L44.017 205.297L88.8338 193.467C88.8579 193.459 88.8831 193.457 88.9079 193.461C88.9327 193.465 88.9566 193.475 88.9782 193.49C88.9998 193.505 89.0186 193.526 89.0336 193.55C89.0486 193.575 89.0595 193.603 89.0657 193.632L92.7104 223.023C92.7219 223.081 92.7145 223.142 92.6898 223.193C92.665 223.245 92.6249 223.282 92.5779 223.298L29.623 241.377C29.615 241.378 29.6068 241.379 29.5987 241.379Z" fill="#0C0C0C"/>
<path d="M294.703 211.282L282.968 204.895C282.71 204.755 282.431 204.681 282.149 204.68C281.866 204.678 281.587 204.748 281.328 204.885C281.069 205.023 280.836 205.224 280.644 205.477C280.453 205.73 280.307 206.028 280.215 206.354C280.061 206.961 280.097 207.616 280.317 208.193C280.537 208.769 280.925 209.225 281.406 209.473L283.922 210.845L274.386 210.965C273.326 210.955 272.02 211.77 272.09 213.22C272.087 213.781 272.24 214.326 272.524 214.766C272.807 215.207 273.205 215.518 273.653 215.647C273.65 215.659 273.648 215.672 273.648 215.684C273.649 215.694 273.651 215.703 273.653 215.712L272.018 215.698C271.715 215.696 271.416 215.775 271.142 215.932C270.868 216.088 270.625 216.317 270.433 216.602C270.241 216.886 270.103 217.22 270.029 217.578C269.956 217.936 269.949 218.309 270.009 218.67C270.114 219.238 270.375 219.744 270.749 220.105C271.123 220.466 271.587 220.659 272.064 220.653L272.76 220.659C272.769 220.683 272.782 220.706 272.798 220.725C272.327 220.854 271.909 221.183 271.619 221.652C271.329 222.122 271.185 222.702 271.214 223.289C271.26 223.931 271.504 224.527 271.895 224.959C272.287 225.392 272.798 225.628 273.326 225.622L275.055 225.637C275.03 225.657 275.01 225.684 274.996 225.716C274.982 225.748 274.974 225.783 274.974 225.82C274.975 225.863 274.986 225.905 275.007 225.94C274.614 226.197 274.301 226.604 274.116 227.098C273.931 227.593 273.885 228.148 273.984 228.678C274.097 229.232 274.361 229.723 274.732 230.072C275.103 230.42 275.56 230.606 276.028 230.599L290.61 230.725C292.65 230.743 294.648 230.018 296.348 228.643C298.047 227.268 299.371 225.306 300.149 223.008C300.821 221.026 300.832 218.804 300.18 216.813C299.529 214.822 298.266 213.219 296.66 212.345L294.703 211.282Z" fill="#E98862"/>
<g opacity="0.2">
<path d="M283.092 215.584C283.091 215.644 283.071 215.701 283.036 215.743C283.001 215.785 282.953 215.809 282.904 215.809L273.836 215.908C273.811 215.909 273.787 215.903 273.764 215.892C273.741 215.88 273.72 215.864 273.703 215.843C273.685 215.822 273.671 215.797 273.661 215.769C273.652 215.741 273.647 215.712 273.646 215.682C273.646 215.652 273.651 215.622 273.66 215.594C273.669 215.566 273.683 215.541 273.7 215.519C273.718 215.498 273.738 215.481 273.761 215.469C273.783 215.457 273.808 215.451 273.832 215.451L282.901 215.351C282.95 215.351 282.998 215.375 283.033 215.418C283.068 215.461 283.088 215.519 283.088 215.58L283.092 215.584Z" fill="#0C0C0C"/>
</g>
<g opacity="0.2">
<path d="M283.238 220.458C283.237 220.518 283.217 220.575 283.183 220.617C283.148 220.659 283.101 220.683 283.052 220.683L272.932 220.794C272.882 220.794 272.834 220.77 272.799 220.728C272.764 220.685 272.744 220.626 272.744 220.566C272.746 220.506 272.766 220.449 272.801 220.406C272.836 220.364 272.883 220.339 272.932 220.337L283.052 220.226C283.101 220.226 283.149 220.25 283.184 220.293C283.22 220.336 283.239 220.394 283.239 220.455L283.238 220.458Z" fill="#0C0C0C"/>
</g>
<g opacity="0.2">
<path d="M283.422 225.732C283.422 225.792 283.401 225.85 283.366 225.892C283.331 225.934 283.284 225.958 283.235 225.958L275.162 226.046C275.137 226.047 275.113 226.041 275.09 226.03C275.067 226.019 275.046 226.002 275.029 225.981C275.011 225.96 274.997 225.935 274.988 225.907C274.978 225.88 274.973 225.85 274.973 225.82C274.972 225.79 274.977 225.76 274.986 225.732C274.996 225.704 275.009 225.679 275.026 225.658C275.044 225.636 275.064 225.619 275.087 225.607C275.11 225.596 275.134 225.589 275.159 225.589L283.231 225.5C283.281 225.5 283.329 225.525 283.364 225.567C283.399 225.61 283.419 225.668 283.419 225.729L283.422 225.732Z" fill="#0C0C0C"/>
</g>
<path d="M295.096 236.745L356.406 241.05C358.567 241.337 360.753 241.01 362.793 240.093C364.834 239.177 366.672 237.698 368.164 235.77C369.656 233.843 370.761 231.521 371.393 228.986C372.024 226.45 372.165 223.771 371.805 221.158L364.361 148.173C364.054 145.952 363.392 143.827 362.411 141.918C361.43 140.009 360.151 138.355 358.645 137.048C357.14 135.742 355.438 134.81 353.637 134.306C351.836 133.801 349.972 133.734 348.149 134.107C346.327 134.481 344.583 135.288 343.017 136.483C341.45 137.678 340.093 139.238 339.021 141.072C337.949 142.907 337.184 144.981 336.77 147.175C336.356 149.37 336.301 151.643 336.607 153.863L340.193 209.303L295.365 207.354L295.096 236.745Z" fill="#FCAE49"/>
<path d="M349.338 209.071C349.385 209.071 349.43 209.049 349.465 209.01C349.499 208.97 349.52 208.917 349.524 208.86C349.527 208.802 349.513 208.745 349.484 208.7C349.455 208.655 349.412 208.626 349.366 208.617L340.3 208.544C340.275 208.539 340.25 208.54 340.226 208.547C340.202 208.554 340.179 208.567 340.16 208.585C340.14 208.603 340.123 208.626 340.11 208.652C340.098 208.677 340.089 208.706 340.086 208.736C340.079 208.796 340.091 208.857 340.121 208.906C340.151 208.954 340.195 208.987 340.244 208.996L349.31 209.068C349.319 209.07 349.329 209.071 349.338 209.071Z" fill="#0C0C0C"/>
<path d="M354.454 241.379C354.504 241.383 354.553 241.363 354.591 241.322C354.628 241.282 354.651 241.226 354.654 241.165C354.657 241.104 354.641 241.045 354.608 240.999C354.575 240.954 354.528 240.926 354.478 240.922L295.504 236.638L295.681 207.692L340.239 208.995C340.268 209 340.297 208.996 340.325 208.984C340.353 208.972 340.378 208.953 340.398 208.928C340.419 208.902 340.434 208.871 340.443 208.836C340.451 208.802 340.453 208.766 340.449 208.731L337.928 175.682C337.925 175.653 337.916 175.624 337.903 175.598C337.89 175.573 337.873 175.551 337.853 175.533C337.833 175.516 337.81 175.503 337.786 175.497C337.762 175.49 337.737 175.489 337.712 175.495C337.688 175.5 337.665 175.51 337.644 175.526C337.623 175.542 337.605 175.563 337.59 175.588C337.576 175.612 337.566 175.64 337.56 175.669C337.555 175.698 337.554 175.729 337.558 175.758L340.036 208.5L295.595 207.188C295.571 207.18 295.546 207.177 295.521 207.181C295.496 207.185 295.472 207.195 295.45 207.211C295.429 207.226 295.41 207.247 295.395 207.271C295.38 207.295 295.369 207.323 295.363 207.353L295.095 236.744C295.084 236.802 295.091 236.863 295.116 236.914C295.14 236.965 295.181 237.003 295.228 237.018L354.429 241.375C354.437 241.377 354.446 241.378 354.454 241.379Z" fill="#0C0C0C"/>
<path d="M143.808 225.175H138.825L136.029 211.962C135.926 211.492 135.749 210.52 135.5 209.047C135.251 207.573 135.107 206.584 135.069 206.079C135.013 206.698 134.872 207.693 134.646 209.064C134.42 210.434 134.246 211.412 134.124 211.997L131.343 225.175H126.374L121.107 200.024H125.413L128.053 213.753C128.514 216.288 128.849 218.484 129.055 220.342C129.112 219.688 129.241 218.676 129.444 217.306C129.646 215.935 129.837 214.872 130.016 214.114L133.023 200.024H137.159L140.166 214.114C140.297 214.745 140.462 215.709 140.66 217.004C140.858 218.3 141.008 219.413 141.11 220.343C141.204 219.448 141.354 218.333 141.56 216.996C141.767 215.66 141.954 214.579 142.123 213.754L144.75 200.025H149.056L143.808 225.175Z" fill="#0098BA"/>
<path d="M163.543 225.175H151.656V200.024H163.543V204.394H156.033V209.916H163.021V214.285H156.033V220.771H163.543V225.175Z" fill="#0098BA"/>
<path d="M167.85 225.175V200.024H172.226V220.773H180.597V225.177L167.85 225.175Z" fill="#0098BA"/>
<path d="M192.951 204.1C192.209 204.059 191.47 204.244 190.802 204.639C190.133 205.034 189.556 205.627 189.123 206.362C188.22 207.871 187.768 209.973 187.768 212.668C187.768 218.277 189.495 221.082 192.949 221.082C194.752 220.997 196.532 220.549 198.215 219.756V224.229C196.413 225.114 194.483 225.553 192.54 225.519C189.538 225.519 187.242 224.409 185.651 222.19C184.06 219.971 183.264 216.785 183.265 212.633C183.222 210.263 183.623 207.913 184.437 205.76C185.159 203.872 186.332 202.295 187.804 201.235C189.371 200.154 191.149 199.61 192.949 199.661C195.047 199.689 197.112 200.294 198.99 201.433L197.578 205.769C196.82 205.328 196.042 204.938 195.249 204.599C194.512 204.276 193.735 204.107 192.951 204.1Z" fill="#0098BA"/>
<path d="M221.339 212.565C221.339 216.728 220.492 219.928 218.797 222.164C217.103 224.401 214.675 225.519 211.513 225.519C208.351 225.519 205.923 224.401 204.229 222.164C202.535 219.928 201.688 216.717 201.688 212.53C201.688 208.344 202.537 205.147 204.236 202.939C205.935 200.732 208.37 199.628 211.541 199.627C214.713 199.627 217.139 200.74 218.819 202.965C220.499 205.191 221.339 208.39 221.339 212.565ZM206.276 212.565C206.276 215.374 206.713 217.49 207.589 218.913C208.465 220.335 209.773 221.046 211.513 221.046C215.005 221.046 216.751 218.219 216.751 212.565C216.751 206.899 215.014 204.066 211.541 204.066C209.8 204.066 208.487 204.78 207.601 206.208C206.715 207.636 206.274 209.755 206.276 212.565Z" fill="#0098BA"/>
<path d="M234.356 225.175L229.387 205.442H229.26C229.438 209.457 229.528 212.135 229.528 213.476V225.175H225.617V200.024H231.575L236.459 219.258H236.544L241.725 200.024H247.683V225.175H243.603V213.27C243.603 212.708 243.61 212.06 243.624 211.326C243.637 210.591 243.701 208.642 243.814 205.477H243.687L238.365 225.175H234.356Z" fill="#0098BA"/>
<path d="M264.764 225.175H252.877V200.024H264.764V204.394H257.254V209.916H264.242V214.285H257.254V220.771H264.764V225.175Z" fill="#0098BA"/>
</svg>
