<svg width="40" height="40" viewBox="0 0 40 40" fill="none" xmlns="http://www.w3.org/2000/svg">
<path d="M38.4193 21.3143C37.3027 26.5315 33.4662 30.8172 28.4075 32.4995C26.8665 33.0145 25.2526 33.2775 23.6279 33.2782C20.4549 33.2819 17.3614 32.2854 14.7868 30.4301C12.2121 28.5748 10.2871 25.9551 9.28526 22.9429C8.65268 21.0626 8.39977 19.0753 8.54121 17.0964C8.68265 15.1175 9.21562 13.1864 10.1092 11.4152C10.9942 9.63783 12.2225 8.05357 13.7232 6.75405C15.2239 5.45454 16.9673 4.46555 18.8524 3.84427C22.4482 2.64823 26.3615 2.845 29.8193 4.39569L30.5673 2.98474C25.5573 -0.111672 19.3171 -0.852762 13.7065 1.01437C8.63253 2.70223 4.52011 6.26362 2.12673 11.0407C-0.266645 15.8185 -0.653808 21.2415 1.03563 26.3106C2.36243 30.3001 4.91185 33.77 8.32183 36.2273C11.7318 38.6847 15.829 40.0048 20.0315 40C22.1769 40 24.3055 39.6535 26.3597 38.9708C30.0969 37.7347 33.3857 35.4211 35.8126 32.3206C38.2395 29.2201 39.6964 25.4711 40 21.5448L38.4193 21.3143ZM28.5603 11.6713L24.5494 4.1612L22.5096 12.5461L14.1672 14.1867L21.8041 18.5252L20.4906 27.1654L26.9756 21.2639L35.0117 25.1214L30.9072 17.0966L37.4058 10.8206L28.5603 11.6713Z" fill="#EC7C0B"/>
</svg>
