<svg width="30" height="40" viewBox="0 0 30 40" fill="none" xmlns="http://www.w3.org/2000/svg">
<path d="M0 0H3.75V4C3.75 6.88 5.025 9.22 7.275 11.56C8.8875 13.22 11.0437 14.82 13.2938 16.4L9.8625 18.78C8.00625 17.44 6.20625 16 4.6875 14.42C2.00625 11.64 0 8.2 0 4V0ZM26.25 0H30V4C30 8.2 27.9937 11.64 25.3125 14.42C22.6688 17.18 19.2938 19.46 16.0125 21.68C12.7312 23.92 9.54375 26.1 7.275 28.44C5.025 30.78 3.75 33.12 3.75 36V40H0V36C0 31.8 2.00625 28.36 4.6875 25.58C7.33125 22.82 10.7063 20.54 13.9875 18.32C17.2687 16.08 20.4563 13.9 22.725 11.56C24.975 9.22 26.25 6.88 26.25 4V0ZM20.1375 21.22C21.9937 22.56 23.7938 24 25.3125 25.58C27.9937 28.36 30 31.8 30 36V40H26.25V36C26.25 33.12 24.975 30.78 22.725 28.44C21.1125 26.78 18.9562 25.18 16.7062 23.6L20.1375 21.22ZM5.625 2H24.375V4L24.2625 5H5.7375L5.625 4V2ZM6.9 8H23.1C22.65 8.68 22.125 9.38 21.4125 10.12L20.4562 11H9.50625L8.5875 10.12C7.875 9.38 7.35 8.68 6.9 8ZM9.54375 29H20.4938L21.4125 29.88C22.125 30.62 22.65 31.32 23.1 32H6.9C7.35 31.32 7.875 30.62 8.5875 29.88L9.54375 29ZM5.7375 35H24.2625L24.375 36V38H5.625V36L5.7375 35Z" fill="#EC7C0B"/>
</svg>
