<svg width="27" height="18" viewBox="0 0 27 18" fill="none" xmlns="http://www.w3.org/2000/svg">
<path d="M20.3754 13.3364C19.2486 13.3356 18.1503 13.4553 17.0813 13.6963C16.4909 13.8294 15.8637 13.6974 15.3889 13.3804C14.9187 13.0666 14.625 12.5934 14.625 12.0409V6.63624C14.625 5.09177 15.3746 3.69463 16.6939 3.25363C16.8733 3.19365 17.0558 3.13815 17.2412 3.08713C18.2851 2.80044 19.3291 2.65772 20.3745 2.65767C21.1074 2.6592 21.739 2.70041 22.2724 2.77869C22.7978 2.85578 23.3907 3.00106 24.0531 3.21857C24.119 3.24431 24.1646 3.26838 24.1947 3.28802C24.2263 3.3086 24.2348 3.32033 24.2333 3.31836C24.2451 3.33378 24.25 3.34536 24.25 3.37097L24.25 13.8178L24.25 13.8199C24.2501 13.8326 24.2493 13.8419 24.2485 13.8482C24.235 13.8556 24.2286 13.8561 24.2255 13.8563C24.2205 13.8566 24.201 13.8569 24.1617 13.8417L24.1462 13.8357L24.1303 13.8308C23.6417 13.6781 23.0868 13.5587 22.4684 13.4701C21.8419 13.3803 21.1436 13.3364 20.3754 13.3364ZM20.3754 13.3364L20.375 13.8364M20.3754 13.3364C20.3752 13.3364 20.3751 13.3364 20.375 13.3364V13.8364M20.375 13.8364C21.125 13.8364 21.7992 13.8793 22.3975 13.965C22.9958 14.0508 23.5238 14.1651 23.9813 14.308M20.375 13.8364C19.2842 13.8356 18.2229 13.9515 17.1912 14.184C15.733 14.5127 14.125 13.5357 14.125 12.0409V6.63624C14.125 4.95837 14.9441 3.31133 16.5354 2.77942C16.7236 2.71652 16.9147 2.65837 17.1087 2.60498C18.1946 2.30678 19.2833 2.15767 20.375 2.15767L23.9813 14.308M23.9813 14.308C24.1729 14.3822 24.3492 14.371 24.51 14.2744C24.6708 14.1779 24.7508 14.0257 24.75 13.8178V3.37097C24.75 3.23732 24.71 3.11835 24.63 3.01405C24.55 2.90976 24.4137 2.82091 24.2212 2.74752L23.9813 14.308ZM20.375 5.86764L20.3758 5.86764L21.7038 4.42435L21.7679 3.92848C21.7678 3.92847 21.7678 3.92847 21.7678 3.92846C21.3208 3.87067 20.8564 3.84207 20.375 3.84207C19.5355 3.84207 18.7147 3.9241 17.9132 4.08869C17.2194 4.23115 16.5606 4.43567 15.9375 4.70308C15.5737 4.85922 15.3563 5.21653 15.3563 5.59302C15.3563 6.33325 16.1157 6.76557 16.7446 6.52082C17.18 6.35135 17.6373 6.21383 18.1171 6.10867C18.8493 5.94817 19.6017 5.86764 20.375 5.86764ZM21.7686 10.2129L21.7679 10.2128C21.3208 10.155 20.8564 10.1264 20.375 10.1264L20.374 10.1264C19.5494 10.128 18.7259 10.2105 17.904 10.3735C17.1961 10.5139 16.5399 10.7159 15.9375 10.9815C15.5705 11.1433 15.3563 11.5059 15.3563 11.8832C15.3563 12.6419 16.1373 13.0839 16.7813 12.8289C17.208 12.66 17.6556 12.5202 18.1245 12.4099C18.8544 12.2381 19.6043 12.152 20.375 12.152L20.3758 12.152C20.8575 12.1512 21.2931 12.1752 21.6836 12.2225C21.8781 12.2461 22.0761 12.2792 22.2775 12.3219C22.8816 12.4499 23.5187 12.0115 23.5187 11.337C23.5187 10.8752 23.1973 10.4635 22.7297 10.3713C22.4032 10.3069 22.0828 10.2541 21.7686 10.2129ZM20.375 6.98483H20.3745C19.5354 6.98563 18.7149 7.06763 17.9137 7.23135C17.2245 7.37218 16.5697 7.57454 15.9503 7.83925C15.5782 7.99823 15.3563 8.36339 15.3563 8.74766C15.3563 9.50209 16.131 9.94627 16.775 9.69352C17.2042 9.52506 17.6546 9.38421 18.1264 9.27131C18.8557 9.09678 19.6048 9.00925 20.3748 9.00924C20.857 9.01 21.2932 9.03432 21.6845 9.08103C21.8789 9.10424 22.0768 9.13702 22.2782 9.17953C22.8818 9.30696 23.5187 8.869 23.5187 8.19453C23.5187 7.73357 23.1982 7.32209 22.7313 7.2294C22.4043 7.16448 22.0834 7.11137 21.7686 7.07017L21.767 7.06996C21.3203 7.01301 20.8562 6.98483 20.375 6.98483ZM2.92704 3.22425L2.92707 3.22434L2.93606 3.22138C3.60242 3.00247 4.1991 2.85583 4.72794 2.77748C5.26101 2.69928 5.89232 2.65883 6.625 2.65883C7.67053 2.65883 8.71478 2.80156 9.75884 3.08829C9.94424 3.13931 10.1267 3.19481 10.3061 3.25479C11.6254 3.69579 12.375 5.09293 12.375 6.6374V12.0409C12.375 12.5936 12.0813 13.0669 11.6112 13.3807C11.1364 13.6976 10.5093 13.8295 9.91878 13.6963C8.85066 13.4553 7.75246 13.3352 6.625 13.3352C5.85729 13.3352 5.15865 13.3795 4.53104 13.4702C3.91205 13.5595 3.35716 13.6794 2.86941 13.832L2.8557 13.8363L2.84227 13.8414C2.80184 13.8566 2.78114 13.8564 2.77499 13.856C2.77097 13.8558 2.76438 13.8551 2.75187 13.8483C2.75091 13.8417 2.75 13.8317 2.75 13.8178V3.37097C2.75 3.34399 2.7556 3.32316 2.77478 3.296C2.77746 3.29337 2.81084 3.26 2.92704 3.22425ZM3.04843 16.1015L3.05088 16.1006C3.61381 15.8891 4.19236 15.7354 4.78701 15.6395C5.3884 15.5426 6.00086 15.4941 6.62469 15.4941C7.81063 15.4948 8.96281 15.6615 10.0828 15.9937C10.2189 16.0341 10.3538 16.0766 10.4877 16.1211C12.4247 16.7657 14.5755 16.7669 16.5127 16.1212C16.6465 16.0766 16.7815 16.0341 16.9175 15.9936C18.0371 15.6607 19.1889 15.4941 20.3745 15.4941C20.9679 15.4956 21.5535 15.5408 22.1316 15.6296C22.7027 15.7174 23.2622 15.86 23.8104 16.0577L23.8103 16.0578L23.8162 16.0598C24.4366 16.2749 25.0484 16.22 25.6096 15.8879C26.1819 15.5503 26.5 15.0281 26.5 14.366V3.16586C26.5 2.77831 26.3883 2.41667 26.1733 2.09158L26.1729 2.09098C25.9484 1.7527 25.6325 1.5171 25.2463 1.38613C24.4825 1.07557 23.6886 0.850211 22.8652 0.709902C22.044 0.56994 21.2138 0.5 20.375 0.5C19.1057 0.5 17.8661 0.669502 16.6574 1.00879C16.4652 1.06274 16.2747 1.12061 16.0859 1.18239C14.4205 1.72741 12.5793 1.72774 10.9141 1.1825C10.7253 1.12069 10.5349 1.06279 10.3427 1.00882C9.13477 0.669494 7.89508 0.5 6.625 0.5C5.78623 0.5 4.95604 0.56994 4.13475 0.709902C3.31161 0.85018 2.51784 1.07547 1.75419 1.38592C1.36732 1.51627 1.05112 1.75234 0.826723 2.09158C0.611693 2.41667 0.5 2.7783 0.5 3.16586V14.366C0.5 15.0091 0.783892 15.5349 1.31778 15.8952C1.85049 16.2547 2.44511 16.3246 3.04843 16.1015Z" fill="#0098BA" stroke="#0098BA"/>
</svg>
