<svg width="430" height="313" viewBox="0 0 430 313" fill="none" xmlns="http://www.w3.org/2000/svg">
<path d="M93.4033 157.664C93.0892 157.664 92.7879 157.536 92.5657 157.308C92.3436 157.08 92.2188 156.771 92.2188 156.449V122.155C92.2188 121.833 92.3436 121.524 92.5657 121.296C92.7879 121.068 93.0892 120.94 93.4033 120.94C93.7175 120.94 94.0188 121.068 94.241 121.296C94.4631 121.524 94.5879 121.833 94.5879 122.155V156.448C94.5881 156.607 94.5575 156.765 94.4981 156.913C94.4386 157.061 94.3514 157.195 94.2413 157.308C94.1313 157.421 94.0007 157.51 93.8569 157.571C93.7131 157.633 93.559 157.664 93.4033 157.664Z" fill="#262626"/>
<path d="M104.307 140.518H82.4971C82.1829 140.518 81.8816 140.39 81.6595 140.162C81.4373 139.934 81.3125 139.625 81.3125 139.302C81.3125 138.98 81.4373 138.671 81.6595 138.443C81.8816 138.215 82.1829 138.087 82.4971 138.087H104.307C104.621 138.087 104.922 138.215 105.144 138.443C105.366 138.671 105.491 138.98 105.491 139.302C105.491 139.625 105.366 139.934 105.144 140.162C104.922 140.39 104.621 140.518 104.307 140.518Z" fill="#262626"/>
<path d="M379.738 243.62C379.516 243.62 379.304 243.53 379.147 243.369C378.99 243.208 378.902 242.99 378.902 242.763V224.369C378.908 224.146 378.998 223.933 379.154 223.777C379.31 223.621 379.52 223.534 379.738 223.534C379.956 223.534 380.165 223.621 380.321 223.777C380.477 223.933 380.567 224.146 380.573 224.369V242.763C380.573 242.875 380.552 242.987 380.51 243.091C380.468 243.195 380.406 243.289 380.329 243.369C380.251 243.449 380.159 243.512 380.058 243.555C379.956 243.598 379.848 243.62 379.738 243.62Z" fill="#262626"/>
<path d="M385.587 234.423H373.888C373.777 234.426 373.666 234.406 373.562 234.364C373.458 234.322 373.363 234.259 373.284 234.18C373.204 234.1 373.14 234.004 373.097 233.899C373.054 233.793 373.031 233.68 373.031 233.566C373.031 233.451 373.054 233.338 373.097 233.232C373.14 233.127 373.204 233.032 373.284 232.952C373.363 232.872 373.458 232.809 373.562 232.767C373.666 232.726 373.777 232.706 373.888 232.709H385.587C385.698 232.706 385.809 232.726 385.913 232.767C386.017 232.809 386.111 232.872 386.191 232.952C386.271 233.032 386.334 233.127 386.378 233.232C386.421 233.338 386.443 233.451 386.443 233.566C386.443 233.68 386.421 233.793 386.378 233.899C386.334 234.004 386.271 234.1 386.191 234.18C386.111 234.259 386.017 234.322 385.913 234.364C385.809 234.406 385.698 234.426 385.587 234.423Z" fill="#262626"/>
<path d="M343.472 29.9508C343.363 29.9508 343.254 29.9287 343.153 29.8856C343.051 29.8425 342.959 29.7793 342.881 29.6997C342.804 29.6201 342.742 29.5256 342.7 29.4216C342.658 29.3175 342.637 29.2061 342.637 29.0935V10.7001C342.637 10.4728 342.725 10.2547 342.881 10.0939C343.038 9.9331 343.251 9.84277 343.472 9.84277C343.694 9.84277 343.906 9.9331 344.063 10.0939C344.22 10.2547 344.308 10.4728 344.308 10.7001V29.0935C344.308 29.3209 344.22 29.5389 344.063 29.6997C343.906 29.8605 343.694 29.9508 343.472 29.9508Z" fill="#262626"/>
<path d="M349.321 20.7535H337.623C337.405 20.7478 337.198 20.655 337.046 20.4949C336.894 20.3348 336.809 20.12 336.809 19.8964C336.809 19.6728 336.894 19.4581 337.046 19.2979C337.198 19.1378 337.405 19.045 337.623 19.0393H349.321C349.433 19.0364 349.544 19.0564 349.648 19.0982C349.751 19.14 349.846 19.2026 349.926 19.2825C350.006 19.3624 350.069 19.4579 350.113 19.5633C350.156 19.6687 350.178 19.782 350.178 19.8964C350.178 20.0109 350.156 20.1241 350.113 20.2296C350.069 20.335 350.006 20.4305 349.926 20.5103C349.846 20.5902 349.751 20.6529 349.648 20.6947C349.544 20.7364 349.433 20.7564 349.321 20.7535Z" fill="#262626"/>
<path d="M401.56 313H101.834C101.619 313 101.412 312.912 101.26 312.756C101.107 312.599 101.021 312.387 101.021 312.166C101.021 311.945 101.107 311.733 101.26 311.576C101.412 311.42 101.619 311.332 101.834 311.332H401.56C401.776 311.332 401.982 311.42 402.135 311.576C402.287 311.733 402.373 311.945 402.373 312.166C402.373 312.387 402.287 312.599 402.135 312.756C401.982 312.912 401.776 313 401.56 313Z" fill="#262626"/>
<path d="M319.814 278.604H175.428C175.174 278.604 174.928 278.512 174.733 278.344C174.539 278.176 174.408 277.944 174.363 277.687L127.194 2.21903H82.3978C82.1236 2.20012 81.8666 2.07501 81.6789 1.86901C81.4912 1.66302 81.3867 1.39154 81.3867 1.10952C81.3867 0.827496 81.4912 0.556011 81.6789 0.350017C81.8666 0.144022 82.1236 0.0189078 82.3978 0L128.102 0C128.356 0.000539508 128.602 0.0927134 128.797 0.26041C128.992 0.428107 129.123 0.660658 129.167 0.917415L176.335 276.385H319.812C320.086 276.404 320.343 276.529 320.531 276.735C320.719 276.941 320.823 277.213 320.823 277.495C320.823 277.777 320.719 278.048 320.531 278.254C320.343 278.46 320.086 278.586 319.812 278.604H319.814Z" fill="#262626"/>
<path d="M340.2 202.307H162.242C162.094 202.318 161.945 202.297 161.805 202.245C161.666 202.194 161.537 202.114 161.429 202.01C161.321 201.906 161.234 201.78 161.175 201.641C161.116 201.501 161.085 201.35 161.085 201.198C161.085 201.046 161.116 200.895 161.175 200.755C161.234 200.616 161.321 200.49 161.429 200.386C161.537 200.282 161.666 200.202 161.805 200.15C161.945 200.099 162.094 200.078 162.242 200.088H339.38L373.953 73.2683H141.101C140.827 73.2494 140.57 73.1243 140.382 72.9183C140.194 72.7123 140.09 72.4409 140.09 72.1588C140.09 71.8768 140.194 71.6053 140.382 71.3993C140.57 71.1933 140.827 71.0682 141.101 71.0493H375.378C375.545 71.0493 375.71 71.089 375.859 71.1651C376.009 71.2413 376.139 71.3519 376.24 71.4883C376.341 71.6247 376.409 71.7832 376.44 71.9514C376.472 72.1195 376.464 72.2928 376.419 72.4577L341.241 201.497C341.177 201.73 341.041 201.935 340.853 202.081C340.665 202.228 340.436 202.307 340.2 202.307Z" fill="#262626"/>
<path d="M255.4 201.22C255.113 201.22 254.837 201.102 254.634 200.894C254.431 200.685 254.316 200.403 254.316 200.108V74.3384C254.336 74.0577 254.458 73.7951 254.659 73.6033C254.859 73.4116 255.123 73.3049 255.397 73.3049C255.672 73.3049 255.936 73.4116 256.136 73.6033C256.337 73.7951 256.459 74.0577 256.479 74.3384V200.108C256.479 200.402 256.365 200.684 256.163 200.892C255.961 201.1 255.687 201.218 255.4 201.22Z" fill="#262626"/>
<path d="M284.924 201.22C284.893 201.22 284.861 201.22 284.829 201.215C284.688 201.203 284.55 201.162 284.424 201.095C284.298 201.027 284.186 200.935 284.095 200.824C284.004 200.712 283.935 200.583 283.892 200.445C283.849 200.306 283.834 200.159 283.846 200.014L294.477 74.245C294.489 74.0993 294.528 73.9575 294.594 73.8275C294.659 73.6975 294.748 73.5821 294.857 73.4877C294.966 73.3934 295.092 73.3221 295.228 73.2778C295.363 73.2336 295.506 73.2173 295.648 73.23C295.79 73.2426 295.928 73.2839 296.055 73.3515C296.181 73.4191 296.293 73.5116 296.384 73.6237C296.476 73.7359 296.545 73.8655 296.587 74.005C296.629 74.1445 296.644 74.2913 296.631 74.4369L286 200.206C285.977 200.482 285.853 200.74 285.654 200.928C285.455 201.115 285.195 201.219 284.924 201.22Z" fill="#262626"/>
<path d="M314.446 201.22C314.383 201.22 314.321 201.214 314.259 201.203C314.119 201.178 313.986 201.125 313.866 201.047C313.746 200.969 313.642 200.868 313.56 200.749C313.479 200.63 313.42 200.495 313.389 200.353C313.358 200.211 313.355 200.064 313.379 199.92L334.642 74.1511C334.693 73.863 334.852 73.6073 335.086 73.4396C335.32 73.272 335.609 73.206 335.89 73.2561C336.172 73.3062 336.422 73.4684 336.587 73.7072C336.752 73.946 336.819 74.2421 336.772 74.5309L315.509 200.3C315.465 200.557 315.335 200.79 315.14 200.958C314.946 201.126 314.7 201.219 314.446 201.22Z" fill="#262626"/>
<path d="M225.877 201.219C225.606 201.219 225.346 201.115 225.147 200.927C224.948 200.74 224.824 200.482 224.801 200.206L214.17 74.4366C214.146 74.1444 214.237 73.8546 214.421 73.6307C214.606 73.4068 214.869 73.2668 215.154 73.2415C215.438 73.2161 215.721 73.3074 215.94 73.4954C216.16 73.6834 216.297 73.9528 216.324 74.2448L226.955 200.014C226.967 200.159 226.952 200.305 226.909 200.444C226.866 200.583 226.797 200.712 226.706 200.824C226.615 200.935 226.503 201.027 226.377 201.094C226.251 201.161 226.113 201.202 225.972 201.215C225.94 201.215 225.908 201.219 225.877 201.219Z" fill="#262626"/>
<path d="M196.355 201.22C196.101 201.219 195.854 201.127 195.66 200.959C195.465 200.791 195.335 200.557 195.291 200.3L173.66 72.3491C173.634 72.2051 173.637 72.0573 173.668 71.9144C173.698 71.7714 173.756 71.636 173.837 71.516C173.919 71.3961 174.023 71.2939 174.143 71.2153C174.264 71.1368 174.398 71.0834 174.539 71.0584C174.679 71.0333 174.823 71.037 174.962 71.0693C175.101 71.1016 175.233 71.1619 175.349 71.2465C175.466 71.3312 175.564 71.4387 175.64 71.5627C175.716 71.6868 175.767 71.825 175.79 71.9693L197.421 199.918C197.446 200.061 197.442 200.208 197.411 200.35C197.38 200.492 197.322 200.627 197.241 200.746C197.159 200.865 197.055 200.967 196.935 201.045C196.815 201.122 196.681 201.175 196.541 201.2C196.48 201.212 196.418 201.219 196.355 201.22Z" fill="#262626"/>
<path d="M364.024 114.8H147.692C147.543 114.81 147.395 114.789 147.255 114.738C147.115 114.686 146.987 114.606 146.879 114.502C146.77 114.398 146.684 114.273 146.625 114.133C146.566 113.993 146.535 113.842 146.535 113.69C146.535 113.538 146.566 113.387 146.625 113.247C146.684 113.108 146.77 112.982 146.879 112.878C146.987 112.774 147.115 112.694 147.255 112.643C147.395 112.592 147.543 112.57 147.692 112.581H364.024C364.298 112.6 364.555 112.725 364.743 112.931C364.931 113.137 365.035 113.408 365.035 113.69C365.035 113.972 364.931 114.244 364.743 114.45C364.555 114.656 364.298 114.781 364.024 114.8Z" fill="#262626"/>
<path d="M352.483 158.433H155.857C155.583 158.414 155.326 158.289 155.138 158.083C154.95 157.877 154.846 157.605 154.846 157.323C154.846 157.041 154.95 156.77 155.138 156.564C155.326 156.358 155.583 156.233 155.857 156.214H352.483C352.757 156.233 353.014 156.358 353.202 156.564C353.39 156.77 353.494 157.041 353.494 157.323C353.494 157.605 353.39 157.877 353.202 158.083C353.014 158.289 352.757 158.414 352.483 158.433Z" fill="#262626"/>
<path d="M191.216 280.598C193.996 280.598 196.713 281.444 199.025 283.029C201.336 284.613 203.138 286.866 204.202 289.501C205.266 292.137 205.544 295.036 205.001 297.834C204.459 300.632 203.12 303.201 201.154 305.218C199.188 307.235 196.684 308.608 193.957 309.165C191.23 309.721 188.404 309.435 185.836 308.343C183.268 307.252 181.072 305.403 179.528 303.031C177.984 300.659 177.16 297.871 177.16 295.018C177.164 291.195 178.647 287.529 181.282 284.825C183.917 282.121 187.489 280.601 191.216 280.596M191.216 278.378C188.008 278.378 184.873 279.354 182.206 281.182C179.539 283.011 177.46 285.61 176.233 288.65C175.005 291.691 174.684 295.037 175.31 298.265C175.935 301.492 177.48 304.457 179.748 306.785C182.016 309.112 184.906 310.697 188.052 311.339C191.198 311.981 194.459 311.651 197.422 310.392C200.386 309.132 202.918 306.999 204.701 304.263C206.483 301.527 207.434 298.309 207.434 295.018C207.434 290.605 205.725 286.373 202.683 283.252C199.642 280.131 195.517 278.378 191.216 278.378Z" fill="#262626"/>
<path d="M302.237 280.502C305.017 280.502 307.735 281.348 310.046 282.932C312.358 284.517 314.159 286.769 315.223 289.405C316.287 292.04 316.565 294.94 316.023 297.737C315.481 300.535 314.142 303.104 312.176 305.121C310.21 307.138 307.706 308.512 304.98 309.068C302.253 309.625 299.427 309.339 296.858 308.247C294.29 307.156 292.095 305.307 290.55 302.936C289.006 300.564 288.182 297.776 288.182 294.924C288.186 291.1 289.668 287.434 292.303 284.731C294.938 282.027 298.511 280.506 302.237 280.502ZM302.237 278.283C299.029 278.283 295.894 279.259 293.227 281.088C290.56 282.916 288.481 285.515 287.254 288.556C286.026 291.597 285.705 294.942 286.331 298.17C286.957 301.398 288.502 304.363 290.77 306.69C293.038 309.017 295.928 310.602 299.074 311.244C302.22 311.886 305.48 311.557 308.444 310.297C311.407 309.038 313.94 306.905 315.722 304.168C317.504 301.432 318.455 298.215 318.455 294.924C318.455 292.738 318.036 290.574 317.221 288.555C316.406 286.536 315.211 284.702 313.705 283.157C312.199 281.611 310.411 280.386 308.444 279.549C306.476 278.713 304.367 278.283 302.237 278.283L302.237 278.283Z" fill="#262626"/>
<path opacity="0.1" d="M112.417 311.564C72.9499 311.564 44.3096 270.437 55.6808 229.534C62.1109 206.404 74.8855 183.832 99.1787 170.143C165.658 132.682 159.802 142.955 191.138 80.0039C222.475 17.0531 302.439 10.2509 346.941 54.5943C409.884 117.312 372.51 159.144 412.342 202.254C412.757 202.703 413.166 203.154 413.57 203.608C449.559 244.053 422.477 311.565 370.598 311.565L112.417 311.564Z" fill="#FF7E06"/>
<path d="M130.734 243.596H34.264C34.0484 243.596 33.8417 243.509 33.6892 243.352C33.5368 243.196 33.4512 242.984 33.4512 242.762C33.4512 242.541 33.5368 242.329 33.6892 242.173C33.8417 242.016 34.0484 241.928 34.264 241.928H130.734C130.949 241.928 131.156 242.016 131.309 242.173C131.461 242.329 131.547 242.541 131.547 242.762C131.547 242.984 131.461 243.196 131.309 243.352C131.156 243.509 130.949 243.596 130.734 243.596Z" fill="#262626"/>
<path d="M46.5092 281.432H0.812842C0.597263 281.432 0.390513 281.345 0.238076 281.188C0.0856385 281.032 0 280.82 0 280.598C0 280.377 0.0856385 280.165 0.238076 280.009C0.390513 279.852 0.597263 279.764 0.812842 279.764H46.5092C46.7248 279.764 46.9315 279.852 47.084 280.009C47.2364 280.165 47.3221 280.377 47.3221 280.598C47.3221 280.82 47.2364 281.032 47.084 281.188C46.9315 281.345 46.7248 281.432 46.5092 281.432Z" fill="#262626"/>
</svg>
