<svg width="35" height="32" viewBox="0 0 35 32" fill="none" xmlns="http://www.w3.org/2000/svg">
<path d="M28 24.922C28.9283 24.922 29.8185 25.2489 30.4749 25.8308C31.1313 26.4127 31.5 27.2019 31.5 28.0248C31.5 28.8478 31.1313 29.637 30.4749 30.2189C29.8185 30.8008 28.9283 31.1277 28 31.1277C27.0717 31.1277 26.1815 30.8008 25.5251 30.2189C24.8687 29.637 24.5 28.8478 24.5 28.0248C24.5 26.3028 26.0575 24.922 28 24.922ZM0 0.0993042H5.7225L7.3675 3.20214H33.25C33.7141 3.20214 34.1592 3.36559 34.4874 3.65654C34.8156 3.94749 35 4.3421 35 4.75356C35 5.0173 34.9125 5.28104 34.79 5.52927L28.525 15.5669C27.93 16.5133 26.775 17.1649 25.4625 17.1649H12.425L10.85 19.6937L10.7975 19.8799C10.7975 19.9828 10.8436 20.0814 10.9256 20.1541C11.0077 20.2269 11.119 20.2677 11.235 20.2677H31.5V23.3706H10.5C9.57174 23.3706 8.6815 23.0437 8.02513 22.4618C7.36875 21.8799 7 21.0907 7 20.2677C7 19.7247 7.1575 19.2128 7.42 18.7784L9.8 14.9774L3.5 3.20214H0V0.0993042ZM10.5 24.922C11.4283 24.922 12.3185 25.2489 12.9749 25.8308C13.6313 26.4127 14 27.2019 14 28.0248C14 28.8478 13.6313 29.637 12.9749 30.2189C12.3185 30.8008 11.4283 31.1277 10.5 31.1277C9.57174 31.1277 8.6815 30.8008 8.02513 30.2189C7.36875 29.637 7 28.8478 7 28.0248C7 26.3028 8.5575 24.922 10.5 24.922ZM26.25 14.0621L31.115 6.30498H8.995L13.125 14.0621H26.25Z" fill="#EC7C0B"/>
</svg>
