<svg width="28" height="28" viewBox="0 0 28 28" fill="none" xmlns="http://www.w3.org/2000/svg">
<path d="M9.13045 1.16573H1.82609C1.34178 1.16573 0.877308 1.35011 0.534849 1.67831C0.192391 2.00651 0 2.45165 0 2.91579V26.2499C0 26.7141 0.192391 27.1592 0.534849 27.4874C0.877308 27.8156 1.34178 28 1.82609 28H9.13045C9.61476 28 10.0792 27.8156 10.4217 27.4874C10.7642 27.1592 10.9565 26.7141 10.9565 26.2499V2.91579C10.9565 2.45165 10.7642 2.00651 10.4217 1.67831C10.0792 1.35011 9.61476 1.16573 9.13045 1.16573ZM1.21739 6.99927H9.73915V22.1665H1.21739V6.99927ZM1.82609 2.33244H9.13045C9.29189 2.33244 9.44671 2.3939 9.56087 2.5033C9.67502 2.6127 9.73915 2.76108 9.73915 2.91579V5.83256H1.21739V2.91579C1.21739 2.76108 1.28152 2.6127 1.39568 2.5033C1.50983 2.3939 1.66465 2.33244 1.82609 2.33244ZM9.13045 26.8333H1.82609C1.66465 26.8333 1.50983 26.7718 1.39568 26.6624C1.28152 26.553 1.21739 26.4047 1.21739 26.2499V23.3332H9.73915V26.2499C9.73915 26.4047 9.67502 26.553 9.56087 26.6624C9.44671 26.7718 9.29189 26.8333 9.13045 26.8333ZM27.9605 24.4095L22.9098 1.3947C22.861 1.16889 22.766 0.954558 22.6304 0.764032C22.4949 0.573505 22.3213 0.410538 22.1198 0.284498C21.9183 0.158459 21.6928 0.0718321 21.4562 0.029598C21.2196 -0.0126361 20.9767 -0.00964481 20.7413 0.0384L13.6181 1.50408C13.1446 1.6044 12.7315 1.87968 12.4685 2.27015C12.2055 2.66061 12.1139 3.13474 12.2135 3.58957L17.2642 26.6043C17.313 26.8301 17.408 27.0445 17.5436 27.235C17.6791 27.4255 17.8527 27.5885 18.0542 27.7145C18.2557 27.8406 18.4812 27.9272 18.7178 27.9694C18.9543 28.0117 19.1973 28.0087 19.4326 27.9606L26.5559 26.4935C27.0295 26.3938 27.4428 26.1189 27.7059 25.7286C27.969 25.3383 28.0605 24.8641 27.9605 24.4095ZM15.2981 11.9738L23.6113 10.2631L25.894 20.6279L17.5807 22.34L15.2981 11.9738ZM14.2876 7.37116L22.6024 5.65901L23.3633 9.12122L15.0485 10.8319L14.2876 7.37116ZM13.8752 2.64599L21 1.17886C21.042 1.17017 21.0849 1.16577 21.1279 1.16573C21.2435 1.16609 21.3566 1.1985 21.4535 1.25907C21.5222 1.30136 21.5813 1.35647 21.6273 1.42111C21.6733 1.48575 21.7053 1.5586 21.7213 1.63533L22.3513 4.52001L14.0365 6.22924L13.405 3.35331C13.3697 3.19976 13.3993 3.03905 13.4875 2.90644C13.5756 2.77383 13.7151 2.68016 13.8752 2.64599ZM26.3003 25.353L19.1739 26.8202C19.0167 26.8523 18.8526 26.8234 18.7174 26.74C18.6487 26.6977 18.5896 26.6426 18.5436 26.5779C18.4976 26.5133 18.4656 26.4404 18.4496 26.3637L17.8226 23.479L26.1374 21.7683L26.769 24.6457C26.8044 24.7991 26.7749 24.9596 26.6871 25.0922C26.5992 25.2247 26.4601 25.3185 26.3003 25.353Z" fill="#F8F8F8"/>
</svg>
