<svg width="38" height="25" viewBox="0 0 38 25" fill="none" xmlns="http://www.w3.org/2000/svg">
<path opacity="0.2" d="M1.25 3.32037V22.0704C15.5688 15.0751 21.9312 28.6876 36.25 21.6922V2.94225C21.9312 9.93756 15.5688 -3.67494 1.25 3.32037ZM18.75 16.2563C18.0083 16.2563 17.2833 16.0364 16.6666 15.6243C16.0499 15.2123 15.5693 14.6266 15.2855 13.9414C15.0016 13.2562 14.9274 12.5022 15.0721 11.7747C15.2167 11.0473 15.5739 10.3791 16.0983 9.85466C16.6228 9.33021 17.291 8.97306 18.0184 8.82836C18.7458 8.68367 19.4998 8.75793 20.1851 9.04176C20.8703 9.32559 21.456 9.80624 21.868 10.4229C22.2801 11.0396 22.5 11.7646 22.5 12.5063C22.5 13.5009 22.1049 14.4547 21.4017 15.158C20.6984 15.8612 19.7446 16.2563 18.75 16.2563Z" fill="#EC7C0B"/>
<path d="M36.9125 1.8813C36.7325 1.76898 36.527 1.70432 36.3151 1.69338C36.1033 1.68245 35.8921 1.72561 35.7016 1.8188C28.9938 5.10005 24.2031 3.56255 19.1391 1.94067C13.8266 0.239109 8.31875 -1.5187 0.709375 2.19692C0.496766 2.29891 0.31734 2.45895 0.191818 2.65857C0.0662952 2.85819 -0.000203711 3.08924 4.68778e-07 3.32505V22.0641C-2.94007e-05 22.2762 0.0539042 22.4848 0.156726 22.6703C0.259547 22.8558 0.407875 23.0121 0.58775 23.1244C0.767625 23.2368 0.973132 23.3015 1.18493 23.3126C1.39673 23.3236 1.60786 23.2806 1.79844 23.1875C8.50625 19.9063 13.2969 21.4438 18.3687 23.0657C21.375 24.0266 24.4375 25.0063 27.9 25.0063C30.5703 25.0063 33.4828 24.425 36.7922 22.8094C37.0024 22.7068 37.1796 22.5472 37.3036 22.3489C37.4276 22.1506 37.4935 21.9215 37.4938 21.6875V2.94848C37.4956 2.73585 37.4432 2.52625 37.3415 2.3395C37.2398 2.15276 37.0922 1.99505 36.9125 1.8813ZM35 20.8922C28.6562 23.7313 24.0234 22.25 19.1313 20.686C16.125 19.725 13.0625 18.7454 9.6 18.7454C7.16735 18.7572 4.75944 19.2345 2.50625 20.1516V4.12036C8.85 1.2813 13.4828 2.76255 18.375 4.32661C23.2672 5.89067 28.3031 7.5063 35 4.86411V20.8922ZM18.75 7.5063C17.7611 7.5063 16.7944 7.79954 15.9721 8.34895C15.1499 8.89836 14.509 9.67925 14.1306 10.5929C13.7522 11.5065 13.6531 12.5118 13.8461 13.4817C14.039 14.4517 14.5152 15.3426 15.2145 16.0418C15.9137 16.7411 16.8046 17.2173 17.7745 17.4102C18.7445 17.6031 19.7498 17.5041 20.6634 17.1257C21.577 16.7473 22.3579 16.1064 22.9073 15.2841C23.4568 14.4619 23.75 13.4952 23.75 12.5063C23.75 11.1802 23.2232 9.90844 22.2855 8.97076C21.3479 8.03308 20.0761 7.5063 18.75 7.5063ZM18.75 15.0063C18.2555 15.0063 17.7722 14.8597 17.3611 14.585C16.95 14.3103 16.6295 13.9198 16.4403 13.463C16.2511 13.0062 16.2016 12.5035 16.298 12.0186C16.3945 11.5336 16.6326 11.0882 16.9822 10.7385C17.3319 10.3889 17.7773 10.1508 18.2623 10.0543C18.7472 9.95787 19.2499 10.0074 19.7067 10.1966C20.1635 10.3858 20.554 10.7062 20.8287 11.1174C21.1034 11.5285 21.25 12.0118 21.25 12.5063C21.25 13.1693 20.9866 13.8052 20.5178 14.2741C20.0489 14.7429 19.413 15.0063 18.75 15.0063ZM7.5 7.5063V15.0063C7.5 15.3378 7.3683 15.6558 7.13388 15.8902C6.89946 16.1246 6.58152 16.2563 6.25 16.2563C5.91848 16.2563 5.60054 16.1246 5.36612 15.8902C5.1317 15.6558 5 15.3378 5 15.0063V7.5063C5 7.17478 5.1317 6.85683 5.36612 6.62241C5.60054 6.38799 5.91848 6.2563 6.25 6.2563C6.58152 6.2563 6.89946 6.38799 7.13388 6.62241C7.3683 6.85683 7.5 7.17478 7.5 7.5063ZM30 17.5063V10.0063C30 9.67478 30.1317 9.35683 30.3661 9.12241C30.6005 8.88799 30.9185 8.7563 31.25 8.7563C31.5815 8.7563 31.8995 8.88799 32.1339 9.12241C32.3683 9.35683 32.5 9.67478 32.5 10.0063V17.5063C32.5 17.8378 32.3683 18.1558 32.1339 18.3902C31.8995 18.6246 31.5815 18.7563 31.25 18.7563C30.9185 18.7563 30.6005 18.6246 30.3661 18.3902C30.1317 18.1558 30 17.8378 30 17.5063Z" fill="#EC7C0B"/>
</svg>
