<svg width="41" height="42" viewBox="0 0 41 42" fill="none" xmlns="http://www.w3.org/2000/svg">
<mask id="mask0_551_5709" style="mask-type:luminance" maskUnits="userSpaceOnUse" x="0" y="0" width="41" height="42">
<path d="M34 18L39 27L34 28V34H31L25 33L24 40H9L7 29.619C3.92 26.703 2 22.576 2 18C2 9.163 9.163 2 18 2C26.837 2 34 9.163 34 18Z" fill="white" stroke="white" stroke-width="4" stroke-linecap="round" stroke-linejoin="round"/>
<path d="M13 16C13 15.0111 13.2932 14.0444 13.8427 13.2222C14.3921 12.3999 15.173 11.759 16.0866 11.3806C17.0002 11.0022 18.0055 10.9031 18.9755 11.0961C19.9454 11.289 20.8363 11.7652 21.5355 12.4645C22.2348 13.1637 22.711 14.0546 22.9039 15.0246C23.0969 15.9945 22.9978 16.9998 22.6194 17.9134C22.241 18.8271 21.6001 19.6079 20.7779 20.1574C19.9556 20.7068 18.9889 21 18 21V24M18 30V31" stroke="black" stroke-width="4" stroke-linecap="round" stroke-linejoin="round"/>
</mask>
<g mask="url(#mask0_551_5709)">
<path d="M-4 -3H44V45H-4V-3Z" fill="#EC7C0B"/>
</g>
</svg>
