<svg width="40" height="40" viewBox="0 0 40 40" fill="none" xmlns="http://www.w3.org/2000/svg">
<path d="M20.8586 37.0312L20.7961 37.021C20.8048 37.0278 20.8151 37.0323 20.826 37.034C20.837 37.0358 20.8481 37.0348 20.8586 37.0312ZM35.0695 14.6702C35.0517 14.576 35.0029 14.4904 34.9309 14.427C34.8588 14.3637 34.7677 14.3262 34.6719 14.3205C34.5761 14.3149 34.4812 14.3414 34.4022 14.3958C34.3233 14.4502 34.2647 14.5295 34.2359 14.621C34.2083 14.7079 34.1539 14.7838 34.0805 14.8379C34.0071 14.8919 33.9185 14.9213 33.8273 14.9218H32.6187C32.5405 14.9219 32.4638 14.9005 32.3969 14.8601L30.6484 13.8117C30.5815 13.7712 30.5048 13.7499 30.4265 13.7499H27.6297C27.5445 13.7498 27.4613 13.7751 27.3906 13.8226L23.9414 16.1218C23.8818 16.1615 23.833 16.2155 23.7994 16.2787C23.7659 16.342 23.7486 16.4127 23.7492 16.4843V19.7452C23.7491 19.8234 23.7703 19.9001 23.8105 19.9671C23.8507 20.0342 23.9083 20.089 23.9773 20.1257L28.5 22.5398C28.5679 22.5763 28.6249 22.6304 28.665 22.6963C28.7051 22.7622 28.7269 22.8376 28.7281 22.9148L28.7492 24.7499C28.7504 24.8259 28.7716 24.9002 28.8107 24.9654C28.8498 25.0305 28.9054 25.0842 28.9719 25.121L30.789 26.1265C30.8564 26.1639 30.9125 26.2186 30.9516 26.2849C30.9908 26.3512 31.0115 26.4268 31.0117 26.5038V30.3007C31.0117 30.3837 31.0357 30.4649 31.0807 30.5346C31.1257 30.6043 31.1899 30.6595 31.2655 30.6937C31.3411 30.7278 31.425 30.7394 31.507 30.7271C31.5891 30.7148 31.6659 30.679 31.7281 30.6242C32.4609 29.9788 33.5117 29.0367 33.6515 28.821C33.8828 28.4632 34.0997 28.0968 34.3023 27.7218C34.7219 26.9448 35.0772 26.1348 35.3648 25.2999C36.3554 22.432 35.5726 17.2765 35.0695 14.6702ZM22.3742 23.6562L17.5828 20.0624C17.5287 20.0219 17.4629 19.9999 17.3953 19.9999H15.1219C15.083 20 15.0445 19.9923 15.0085 19.9775C14.9726 19.9626 14.94 19.9407 14.9125 19.9132L13.8406 18.8413C13.8116 18.8123 13.7771 18.7893 13.7392 18.7736C13.7012 18.758 13.6606 18.7499 13.6195 18.7499H9.46405C9.40548 18.7499 9.34823 18.7326 9.29954 18.7C9.25084 18.6675 9.21289 18.6213 9.19048 18.5672C9.16807 18.513 9.16221 18.4535 9.17363 18.3961C9.18506 18.3386 9.21326 18.2859 9.25467 18.2445L9.91248 17.5867C9.93995 17.5591 9.97259 17.5373 10.0085 17.5224C10.0445 17.5075 10.083 17.4999 10.1219 17.4999H12.6508C12.787 17.4999 12.9194 17.4554 13.028 17.3732C13.1366 17.291 13.2154 17.1756 13.2523 17.0445L13.7906 15.1304C13.8021 15.0893 13.8219 15.0509 13.8487 15.0177C13.8756 14.9845 13.909 14.9572 13.9469 14.9374L16.093 13.8327C16.1412 13.8078 16.1817 13.77 16.21 13.7236C16.2382 13.6771 16.2532 13.6238 16.2531 13.5695V12.5929C16.2532 12.5323 16.2717 12.4732 16.3062 12.4234L17.4469 10.7812C17.4811 10.7318 17.5296 10.6942 17.5859 10.6734L19.182 10.0742C19.2385 10.053 19.2871 10.0151 19.3215 9.96554C19.3558 9.91598 19.3742 9.85711 19.3742 9.79681V8.90619C19.3742 8.85735 19.3621 8.80927 19.3391 8.76621C19.3161 8.72314 19.2828 8.68643 19.2422 8.65931L17.6422 7.59525C17.5982 7.56633 17.5474 7.54951 17.4949 7.54649C17.4423 7.54347 17.3899 7.55436 17.343 7.57806L15.1648 8.66712C15.115 8.69173 15.0592 8.70177 15.004 8.69611C14.9487 8.69044 14.8961 8.66929 14.8523 8.63509L13.8195 7.81869C13.7843 7.79034 13.756 7.75432 13.7368 7.71337C13.7176 7.67242 13.708 7.62762 13.7087 7.5824C13.7095 7.53718 13.7206 7.49273 13.7411 7.45244C13.7617 7.41215 13.7912 7.37709 13.8273 7.34994L14.6664 6.73197C14.7044 6.70411 14.7351 6.66756 14.7561 6.62539C14.7771 6.58321 14.7877 6.53663 14.787 6.48953C14.7863 6.44243 14.7744 6.39617 14.7522 6.35463C14.73 6.31308 14.6981 6.27746 14.6594 6.25072L13.3523 5.339C13.3071 5.30714 13.2538 5.28864 13.1985 5.2856C13.1433 5.28256 13.0883 5.29511 13.0398 5.32181C12.5672 5.5804 11.1805 6.34603 10.6883 6.69056C8.41099 8.28754 6.57832 10.4386 5.36326 12.9406C5.22108 13.2343 5.0453 13.5335 5.02811 13.8562C5.01092 14.1788 4.7578 14.8992 4.65233 15.1906C4.6381 15.23 4.63241 15.2719 4.63565 15.3137C4.63888 15.3554 4.65096 15.396 4.67108 15.4327L7.45936 20.5562C7.48445 20.6028 7.52171 20.6416 7.56717 20.6687L10.5008 22.4296C10.5388 22.4523 10.5713 22.4832 10.5958 22.5202C10.6202 22.5571 10.6361 22.599 10.6422 22.6429L11.2297 26.9038C11.2354 26.9447 11.2496 26.9839 11.2712 27.019C11.2929 27.0541 11.3215 27.0843 11.3555 27.1077L13.6445 28.6812C13.7108 28.7268 13.757 28.7962 13.7734 28.8749L14.9875 34.6406C14.9943 34.6744 15.0073 34.7067 15.0258 34.7359C15.1398 34.9202 15.5945 35.5952 16.143 35.6952C16.0922 35.7093 16.0469 35.7413 15.9961 35.7562C16.1278 35.7794 16.2582 35.8096 16.3867 35.8468C16.543 35.889 16.6992 35.9249 16.8555 35.9585C17.1 36.007 17.1242 36.0445 17.2414 35.8273C17.3976 35.5367 17.5765 35.4367 17.7101 35.4007C17.7653 35.388 17.8157 35.36 17.8556 35.3199C17.8956 35.2799 17.9234 35.2293 17.9359 35.1742L18.7226 31.5273C18.7392 31.4508 18.7838 31.3834 18.8476 31.3382L22.3633 28.846C22.4041 28.8171 22.4374 28.7788 22.4604 28.7344C22.4834 28.6899 22.4954 28.6406 22.4953 28.5906V23.9062C22.4958 23.858 22.4851 23.8104 22.4641 23.767C22.443 23.7236 22.4123 23.6857 22.3742 23.6562Z" fill="#EC7C0B"/>
<path d="M20.4689 3.75C20.4689 3.75 20.1838 3.76641 20.126 3.76797C19.7025 3.78047 19.2801 3.80964 18.8588 3.85547C17.3228 4.0221 15.8185 4.40751 14.3916 5C14.5814 5.13125 14.2549 5.25156 14.2549 5.25156L14.7658 6.25H17.5002L19.3752 7.1875L21.0158 6.25L20.4689 3.75ZM27.6744 9.37969L28.933 8.28594C28.9724 8.25174 29.0026 8.20823 29.0209 8.15937C29.0391 8.11051 29.0449 8.05785 29.0376 8.0062C29.0303 7.95455 29.0102 7.90554 28.9791 7.86366C28.948 7.82178 28.9069 7.78834 28.8596 7.76641L27.39 7.08437C27.3154 7.04955 27.23 7.04561 27.1525 7.07341C27.0749 7.1012 27.0115 7.15849 26.976 7.23281L26.3705 8.49922C26.3376 8.56845 26.3312 8.64739 26.3527 8.721C26.3741 8.79461 26.4219 8.85776 26.4869 8.89844L27.3041 9.40938C27.3609 9.4447 27.4275 9.46088 27.4941 9.45553C27.5608 9.45019 27.624 9.4236 27.6744 9.37969ZM33.5658 10.9898L33.1103 10.2867C33.1033 10.2758 33.0971 10.2648 33.0908 10.2531C33.0088 10.0852 32.3299 8.71406 31.7627 8.18203C31.3369 7.77969 31.2158 7.89531 31.1822 7.98438C31.163 8.03363 31.1309 8.07681 31.0893 8.10938L28.8361 9.93047C28.7806 9.97536 28.7114 9.9999 28.64 10H27.4736C27.4326 9.99997 27.3919 10.008 27.354 10.0237C27.3161 10.0394 27.2816 10.0624 27.2525 10.0914L26.315 11.0289C26.286 11.0579 26.2629 11.0924 26.2472 11.1303C26.2315 11.1683 26.2234 11.2089 26.2234 11.25C26.2234 11.2911 26.2315 11.3317 26.2472 11.3697C26.2629 11.4076 26.286 11.4421 26.315 11.4711L27.2525 12.4086C27.2816 12.4376 27.3161 12.4606 27.354 12.4763C27.3919 12.492 27.4326 12.5 27.4736 12.5H33.3463C33.3885 12.5 33.4302 12.4915 33.469 12.475C33.5078 12.4585 33.5429 12.4343 33.5721 12.4038C33.6013 12.3734 33.624 12.3374 33.6389 12.2979C33.6538 12.2584 33.6606 12.2164 33.6588 12.1742L33.6158 11.1469C33.6135 11.091 33.5962 11.0368 33.5658 10.9898Z" fill="#EC7C0B"/>
<path d="M20 5.625C23.3257 5.62472 26.5487 6.77762 29.1197 8.88724C31.6907 10.9969 33.4507 13.9327 34.0998 17.1945C34.7488 20.4563 34.2468 23.8422 32.6793 26.7754C31.1118 29.7086 28.5757 32.0075 25.5032 33.2804C22.4307 34.5533 19.0119 34.7215 15.8293 33.7563C12.6467 32.7911 9.8972 30.7522 8.04934 27.9871C6.20147 25.222 5.36955 21.9016 5.69533 18.5919C6.0211 15.2821 7.48442 12.1877 9.83594 9.83594C11.1675 8.49678 12.7514 7.43507 14.4961 6.71225C16.2408 5.98944 18.1115 5.61989 20 5.625ZM20 2.5C10.3359 2.5 2.5 10.3359 2.5 20C2.5 29.6641 10.3359 37.5 20 37.5C29.6641 37.5 37.5 29.6641 37.5 20C37.5 10.3359 29.6641 2.5 20 2.5Z" fill="#EC7C0B"/>
</svg>
