<svg width="189" height="40" viewBox="0 0 189 40" fill="none" xmlns="http://www.w3.org/2000/svg">
<rect width="189" height="40" rx="20" fill="url(#paint0_linear_283_6822)"/>
<path d="M16.1074 26.876L17.9751 26.1191V14.376L16.1074 13.6191V11.4951L22.5527 11.373L26.3003 19.6982L30.231 11.4951L36.2246 11.373V13.6191L34.4302 14.376V26.1191L36.2979 26.876V29H28.8516V26.876L30.8047 26.1191V16.7197L30.1333 18.3799L27.3013 24.2515L24.6035 24.3735L21.7227 18.4531L21.3076 17.147V26.1191L23.2241 26.876V29H16.1074V26.876ZM43.7808 22.2495C43.7808 23.6981 44.0208 24.7275 44.501 25.3379C44.9811 25.9482 45.8315 26.2534 47.0522 26.2534C47.9149 26.2534 48.5781 26.0988 49.042 25.7896C49.514 25.4803 49.8354 25.0124 50.0063 24.3857C50.1854 23.7591 50.2749 22.9209 50.2749 21.8711V14.376L48.3218 13.6191V11.4951L56.0244 11.373V13.6191L54.1567 14.376V21.8711C54.1567 24.3695 53.5993 26.2331 52.4844 27.4619C51.3776 28.6908 49.5262 29.3052 46.9302 29.3052C44.4481 29.3052 42.6536 28.7396 41.5469 27.6084C40.4482 26.4691 39.8989 24.6828 39.8989 22.2495V14.376L38.0557 13.6191V11.4951L45.7217 11.373V13.6191L43.7808 14.376V22.2495ZM61.3833 25.6797C61.4321 25.7122 61.5623 25.7692 61.7739 25.8506C61.9937 25.932 62.2826 26.0133 62.6406 26.0947C62.9987 26.168 63.3934 26.2046 63.8247 26.2046C64.6711 26.2046 65.3872 26.0256 65.9731 25.6675C66.5591 25.3094 66.8521 24.813 66.8521 24.1782C66.8521 23.7957 66.7218 23.4743 66.4614 23.2139C66.2091 22.9535 65.8836 22.7378 65.4849 22.5669C65.0942 22.3879 64.5246 22.1641 63.7759 21.8955C62.6772 21.513 61.7699 21.1346 61.0537 20.7603C60.3376 20.3859 59.715 19.8447 59.186 19.1367C58.6652 18.4287 58.4048 17.5091 58.4048 16.3779C58.4048 15.263 58.6774 14.3068 59.2227 13.5093C59.776 12.7036 60.5329 12.0973 61.4932 11.6904C62.4535 11.2835 63.5399 11.0801 64.7524 11.0801C65.5825 11.0801 66.4045 11.1533 67.2183 11.2998C68.0402 11.4463 68.7157 11.6009 69.2446 11.7637C69.7817 11.9183 70.1195 12.0241 70.2578 12.0811L70.1235 16.6221H67.8286L67.2061 14.498C67.141 14.4818 66.9985 14.4451 66.7788 14.3882C66.5591 14.3312 66.2865 14.2743 65.9609 14.2173C65.6354 14.1522 65.318 14.1196 65.0088 14.1196C64.1624 14.1196 63.5073 14.2865 63.0435 14.6201C62.5796 14.9538 62.3477 15.381 62.3477 15.9019C62.3477 16.439 62.5959 16.8621 63.0923 17.1714C63.5968 17.4725 64.3903 17.8143 65.4727 18.1968C66.5713 18.5793 67.4746 18.9536 68.1826 19.3198C68.8988 19.686 69.5091 20.2109 70.0137 20.8945C70.5264 21.5781 70.7827 22.453 70.7827 23.519C70.7827 24.7397 70.4897 25.7896 69.9038 26.6685C69.3179 27.5392 68.5163 28.2025 67.499 28.6582C66.4818 29.1058 65.3262 29.3296 64.0322 29.3296C63.2021 29.3296 62.3721 29.2563 61.542 29.1099C60.7201 28.9715 60.0365 28.8291 59.4912 28.6826C58.946 28.528 58.6001 28.4263 58.4536 28.3774V23.5801H61.0049L61.3833 25.6797ZM77.5942 14.376H75.2139L74.5913 16.7441H72.2842V11.373H86.7861V16.7441H84.4668L83.8442 14.376H81.4639V26.1191L83.8442 26.876V29H75.2139V26.876L77.5942 26.1191V14.376ZM93.793 26.876L95.6606 26.1191V14.376L93.793 13.6191V11.4951L101.544 11.373V13.6191L99.5425 14.376V18.3799H106.085V14.376L104.083 13.6191V11.4951L111.835 11.373V13.6191L109.967 14.376V26.1191L111.835 26.876V29H104.083V26.876L106.085 26.1191V21.3706H99.5425V26.1191L101.544 26.876V29H93.793V26.876ZM131.293 29H123.334V26.876L125.214 26.2046L124.616 24.3735H119.062L118.439 26.1802L120.392 26.876V29H112.836V26.876L114.667 26.1802L120.16 11.4463L124.164 11.373L129.535 26.1802L131.293 26.876V29ZM121.918 15.7798L119.94 21.7002H123.786L121.918 15.7798ZM130.39 11.4951L138.141 11.373V13.6191L136.298 14.3516L138.593 21.5293L139.398 24.6055L140.192 21.6514L142.67 14.376L140.766 13.6191V11.4951L148.249 11.373V13.6191L146.417 14.376L141.144 29H137.14L132.099 14.3271L130.39 13.6191V11.4951ZM159.65 21.2485H154.596V25.9971H159.076L159.65 23.9463H161.896V29H148.847V26.876L150.727 26.1191V14.376L148.847 13.6191V11.4951L154.596 11.373H161.603V16.1948H159.345L158.722 14.376H154.596V18.502H159.65V21.2485ZM165.546 9.87158H169.452L169 22.4692L165.998 22.6035L165.546 9.87158ZM165.399 27.0469C165.399 26.3633 165.611 25.818 166.034 25.4111C166.465 25.0042 166.97 24.8008 167.548 24.8008C168.231 24.8008 168.752 24.9961 169.11 25.3867C169.468 25.7773 169.647 26.3307 169.647 27.0469C169.647 27.7467 169.436 28.3042 169.013 28.7192C168.59 29.1261 168.077 29.3296 167.475 29.3296C166.791 29.3296 166.274 29.1343 165.924 28.7437C165.574 28.3449 165.399 27.7793 165.399 27.0469Z" fill="white"/>
<defs>
<linearGradient id="paint0_linear_283_6822" x1="0" y1="20" x2="189" y2="20" gradientUnits="userSpaceOnUse">
<stop offset="0.445" stop-color="#E6366D"/>
<stop offset="1" stop-color="#801E3D"/>
</linearGradient>
</defs>
</svg>
