<svg width="40" height="40" viewBox="0 0 40 40" fill="none" xmlns="http://www.w3.org/2000/svg">
<path d="M0 40V37.6471H18.8889V11.6235C17.84 11.4227 16.9141 10.9192 16.1111 10.1129C15.3081 9.30667 14.797 8.28863 14.5778 7.05883H6.92222L13.3333 24.0282C13.2474 25.5969 12.5593 26.931 11.2689 28.0306C9.97852 29.1302 8.44444 29.6808 6.66667 29.6824C4.88889 29.6839 3.35481 29.1333 2.06444 28.0306C0.774074 26.9278 0.0859259 25.5937 0 24.0282L6.41111 7.05883H2.22222V4.70589H14.5778C14.8222 3.39294 15.44 2.28079 16.4311 1.36942C17.4222 0.458043 18.6119 0.00157266 20 4.02901e-06C21.3881 -0.0015646 22.5778 0.454906 23.5689 1.36942C24.56 2.28393 25.1778 3.39608 25.4222 4.70589H37.7778V7.05883H33.5889L40 24.0282C39.9141 25.5969 39.2259 26.931 37.9356 28.0306C36.6452 29.1302 35.1111 29.6808 33.3333 29.6824C31.5556 29.6839 30.0215 29.1333 28.7311 28.0306C27.4407 26.9278 26.7526 25.5937 26.6667 24.0282L33.0778 7.05883H25.4222C25.203 8.2902 24.6919 9.30824 23.8889 10.1129C23.0859 10.9176 22.16 11.4212 21.1111 11.6235V37.6471H40V40H0ZM28.8667 23.8H37.8L33.3333 11.9812L28.8667 23.8ZM2.2 23.8H11.1333L6.66667 11.9812L2.2 23.8ZM20 9.41177C20.9141 9.41177 21.6985 9.06588 22.3533 8.37412C23.0082 7.68236 23.3348 6.85177 23.3333 5.88236C23.3319 4.91294 23.0052 4.08236 22.3533 3.39059C21.7015 2.69883 20.917 2.35294 20 2.35294C19.083 2.35294 18.2985 2.69883 17.6467 3.39059C16.9948 4.08236 16.6681 4.91294 16.6667 5.88236C16.6652 6.85177 16.9919 7.68236 17.6467 8.37412C18.3015 9.06588 19.0859 9.41177 20 9.41177Z" fill="#EC7C0B"/>
</svg>
