<svg width="40" height="40" viewBox="0 0 40 40" fill="none" xmlns="http://www.w3.org/2000/svg">
<g clip-path="url(#clip0_551_5725)">
<path d="M24.3665 4.43666C24.6828 4.52517 24.9786 4.67515 25.237 4.87805C25.4953 5.08094 25.7112 5.33276 25.8721 5.61911C26.0331 5.90546 26.1361 6.22073 26.1751 6.54689C26.2142 6.87306 26.1886 7.20372 26.0998 7.51999L18.7148 33.8317C18.5358 34.4702 18.1104 35.0114 17.5324 35.3363C16.9543 35.6612 16.2708 35.7432 15.6323 35.5642C14.9938 35.3851 14.4526 34.9598 14.1276 34.3817C13.8027 33.8036 13.7208 33.1202 13.8998 32.4817L21.2848 6.16666C21.3735 5.85046 21.5236 5.55483 21.7266 5.29667C21.9295 5.0385 22.1814 4.82285 22.4677 4.66204C22.7541 4.50123 23.0693 4.39841 23.3953 4.35945C23.7214 4.32049 24.052 4.34616 24.3681 4.43499L24.3665 4.43666ZM12.5998 11.1617C13.068 11.6304 13.3309 12.2658 13.3309 12.9283C13.3309 13.5908 13.068 14.2262 12.5998 14.695L7.29981 20L12.6031 25.3033C13.0719 25.7723 13.3352 26.4083 13.335 27.0714C13.3349 27.7345 13.0713 28.3704 12.6023 28.8392C12.1333 29.3079 11.4973 29.5712 10.8342 29.571C10.1711 29.5709 9.53524 29.3073 9.06647 28.8383L1.99481 21.7667C1.52664 21.2979 1.26367 20.6625 1.26367 20C1.26367 19.3375 1.52664 18.7021 1.99481 18.2333L9.06481 11.1617C9.29697 10.9293 9.57264 10.745 9.87606 10.6193C10.1795 10.4936 10.5047 10.4289 10.8331 10.4289C11.1616 10.4289 11.4868 10.4936 11.7902 10.6193C12.0936 10.745 12.3676 10.9293 12.5998 11.1617ZM27.3998 14.695C27.1542 14.4661 26.9572 14.1901 26.8205 13.8834C26.6839 13.5768 26.6104 13.2457 26.6045 12.9101C26.5986 12.5744 26.6603 12.241 26.7861 11.9297C26.9118 11.6184 27.0989 11.3356 27.3363 11.0982C27.5737 10.8608 27.8565 10.6737 28.1678 10.5479C28.4791 10.4222 28.8125 10.3604 29.1482 10.3664C29.4839 10.3723 29.8149 10.4457 30.1216 10.5824C30.4283 10.719 30.7043 10.916 30.9331 11.1617L38.0048 18.2317C38.4735 18.7005 38.7368 19.3362 38.7368 19.9992C38.7368 20.6621 38.4735 21.2978 38.0048 21.7667L30.9348 28.8383C30.7027 29.0705 30.4271 29.2548 30.1238 29.3805C29.8205 29.5062 29.4954 29.571 29.1671 29.571C28.8387 29.5711 28.5136 29.5065 28.2102 29.3809C27.9069 29.2554 27.6312 29.0713 27.399 28.8392C27.1668 28.607 26.9825 28.3315 26.8568 28.0282C26.7311 27.7248 26.6663 27.3997 26.6663 27.0714C26.6662 26.7431 26.7308 26.4179 26.8564 26.1146C26.9819 25.8112 27.166 25.5355 27.3981 25.3033L32.7015 20L27.3998 14.695Z" fill="#EC7C0B"/>
</g>
<defs>
<clipPath id="clip0_551_5725">
<rect width="40" height="40" fill="white"/>
</clipPath>
</defs>
</svg>
