<svg width="40" height="40" viewBox="0 0 40 40" fill="none" xmlns="http://www.w3.org/2000/svg">
<path fill-rule="evenodd" clip-rule="evenodd" d="M30.4687 0C36.25 0 40 3.75 40 9.53127V30.4687C40 36.25 36.25 40 30.4687 40H9.53127C3.75 40 0 36.25 0 30.4687V9.53127C0 3.75 3.75 0 9.53127 0H30.4687Z" fill="url(#paint0_linear_691_593)"/>
<mask id="mask0_691_593" style="mask-type:alpha" maskUnits="userSpaceOnUse" x="0" y="0" width="40" height="40">
<path fill-rule="evenodd" clip-rule="evenodd" d="M30.4687 0C36.25 0 40 3.75 40 9.53127V30.4687C40 36.25 36.25 40 30.4687 40H9.53127C3.75 40 0 36.25 0 30.4687V9.53127C0 3.75 3.75 0 9.53127 0H30.4687Z" fill="white"/>
</mask>
<g mask="url(#mask0_691_593)">
<path fill-rule="evenodd" clip-rule="evenodd" d="M12.0703 58.5157C27.6465 58.5157 40.2733 45.8887 40.2733 30.3125C40.2733 14.7363 27.6465 2.10938 12.0703 2.10938C-3.50585 2.10938 -16.1328 14.7363 -16.1328 30.3125C-16.1328 45.8887 -3.50585 58.5157 12.0703 58.5157Z" fill="url(#paint1_radial_691_593)"/>
</g>
<g filter="url(#filter0_d_691_593)">
<path d="M26.3281 6.79688H13.75C9.8236 6.79688 6.64062 9.97985 6.64062 13.9062V26.3281C6.64062 30.2545 9.8236 33.4375 13.75 33.4375H26.3281C30.2545 33.4375 33.4375 30.2545 33.4375 26.3281V13.9062C33.4375 9.97985 30.2545 6.79688 26.3281 6.79688Z" stroke="white" stroke-width="3"/>
</g>
<g filter="url(#filter1_d_691_593)">
<path fill-rule="evenodd" clip-rule="evenodd" d="M20.0781 26.6406C23.6162 26.6406 26.4844 23.7724 26.4844 20.2344C26.4844 16.6963 23.6162 13.8281 20.0781 13.8281C16.5401 13.8281 13.6719 16.6963 13.6719 20.2344C13.6719 23.7724 16.5401 26.6406 20.0781 26.6406Z" stroke="white" stroke-width="3"/>
</g>
<g filter="url(#filter2_d_691_593)">
<path fill-rule="evenodd" clip-rule="evenodd" d="M27.9297 14.1406C28.9652 14.1406 29.8047 13.3012 29.8047 12.2656C29.8047 11.2301 28.9652 10.3906 27.9297 10.3906C26.8942 10.3906 26.0547 11.2301 26.0547 12.2656C26.0547 13.3012 26.8942 14.1406 27.9297 14.1406Z" fill="white"/>
</g>
<defs>
<filter id="filter0_d_691_593" x="3.14062" y="3.29688" width="33.7969" height="33.6406" filterUnits="userSpaceOnUse" color-interpolation-filters="sRGB">
<feFlood flood-opacity="0" result="BackgroundImageFix"/>
<feColorMatrix in="SourceAlpha" type="matrix" values="0 0 0 0 0 0 0 0 0 0 0 0 0 0 0 0 0 0 127 0" result="hardAlpha"/>
<feOffset/>
<feGaussianBlur stdDeviation="1"/>
<feColorMatrix type="matrix" values="0 0 0 0 0 0 0 0 0 0 0 0 0 0 0 0 0 0 0.130633 0"/>
<feBlend mode="normal" in2="BackgroundImageFix" result="effect1_dropShadow_691_593"/>
<feBlend mode="normal" in="SourceGraphic" in2="effect1_dropShadow_691_593" result="shape"/>
</filter>
<filter id="filter1_d_691_593" x="10.1719" y="10.3281" width="19.8125" height="19.8125" filterUnits="userSpaceOnUse" color-interpolation-filters="sRGB">
<feFlood flood-opacity="0" result="BackgroundImageFix"/>
<feColorMatrix in="SourceAlpha" type="matrix" values="0 0 0 0 0 0 0 0 0 0 0 0 0 0 0 0 0 0 127 0" result="hardAlpha"/>
<feOffset/>
<feGaussianBlur stdDeviation="1"/>
<feColorMatrix type="matrix" values="0 0 0 0 0 0 0 0 0 0 0 0 0 0 0 0 0 0 0.130633 0"/>
<feBlend mode="normal" in2="BackgroundImageFix" result="effect1_dropShadow_691_593"/>
<feBlend mode="normal" in="SourceGraphic" in2="effect1_dropShadow_691_593" result="shape"/>
</filter>
<filter id="filter2_d_691_593" x="24.0547" y="8.39062" width="7.75" height="7.75" filterUnits="userSpaceOnUse" color-interpolation-filters="sRGB">
<feFlood flood-opacity="0" result="BackgroundImageFix"/>
<feColorMatrix in="SourceAlpha" type="matrix" values="0 0 0 0 0 0 0 0 0 0 0 0 0 0 0 0 0 0 127 0" result="hardAlpha"/>
<feOffset/>
<feGaussianBlur stdDeviation="1"/>
<feColorMatrix type="matrix" values="0 0 0 0 0 0 0 0 0 0 0 0 0 0 0 0 0 0 0.130633 0"/>
<feBlend mode="normal" in2="BackgroundImageFix" result="effect1_dropShadow_691_593"/>
<feBlend mode="normal" in="SourceGraphic" in2="effect1_dropShadow_691_593" result="shape"/>
</filter>
<linearGradient id="paint0_linear_691_593" x1="-0.780853" y1="3.5319" x2="10.2996" y2="51.252" gradientUnits="userSpaceOnUse">
<stop stop-color="#4E60D3"/>
<stop offset="0.148736" stop-color="#913BAF"/>
<stop offset="0.315836" stop-color="#D52D88"/>
<stop offset="0.493765" stop-color="#D72E85"/>
<stop offset="0.81651" stop-color="#E6366D"/>
<stop offset="1" stop-color="#F26D4F"/>
</linearGradient>
<radialGradient id="paint1_radial_691_593" cx="0" cy="0" r="1" gradientUnits="userSpaceOnUse" gradientTransform="translate(13.6058 40.131) rotate(15.5573) scale(36.3847 34.2633)">
<stop stop-color="#FED980"/>
<stop offset="0.372276" stop-color="#FCAE49"/>
<stop offset="0.555546" stop-color="#F06745"/>
<stop offset="1" stop-color="#E83D5C" stop-opacity="0.01"/>
</radialGradient>
</defs>
</svg>
