<svg width="35" height="35" viewBox="0 0 35 35" fill="none" xmlns="http://www.w3.org/2000/svg">
<path d="M8.75 4.375C8.75 3.21468 9.21094 2.10188 10.0314 1.28141C10.8519 0.460936 11.9647 0 13.125 0H21.875C23.0353 0 24.1481 0.460936 24.9686 1.28141C25.7891 2.10188 26.25 3.21468 26.25 4.375V8.75H30.625C31.7853 8.75 32.8981 9.21094 33.7186 10.0314C34.5391 10.8519 35 11.9647 35 13.125V21.875C35 23.0353 34.5391 24.1481 33.7186 24.9686C32.8981 25.7891 31.7853 26.25 30.625 26.25H26.25V30.625C26.25 31.7853 25.7891 32.8981 24.9686 33.7186C24.1481 34.5391 23.0353 35 21.875 35H13.125C11.9647 35 10.8519 34.5391 10.0314 33.7186C9.21094 32.8981 8.75 31.7853 8.75 30.625V26.25H4.375C3.21468 26.25 2.10188 25.7891 1.28141 24.9686C0.460936 24.1481 0 23.0353 0 21.875V13.125C0 11.9647 0.460936 10.8519 1.28141 10.0314C2.10188 9.21094 3.21468 8.75 4.375 8.75H8.75V4.375ZM21.875 4.375H13.125V10.9375C13.125 11.5177 12.8945 12.0741 12.4843 12.4843C12.0741 12.8945 11.5177 13.125 10.9375 13.125H4.375V21.875H10.9375C11.5177 21.875 12.0741 22.1055 12.4843 22.5157C12.8945 22.9259 13.125 23.4823 13.125 24.0625V30.625H21.875V24.0625C21.875 23.4823 22.1055 22.9259 22.5157 22.5157C22.9259 22.1055 23.4823 21.875 24.0625 21.875H30.625V13.125H24.0625C23.4823 13.125 22.9259 12.8945 22.5157 12.4843C22.1055 12.0741 21.875 11.5177 21.875 10.9375V4.375Z" fill="#EC7C0B"/>
</svg>
