<svg width="40" height="44" viewBox="0 0 40 44" fill="none" xmlns="http://www.w3.org/2000/svg">
<path d="M12.1739 20.3077C9.86768 20.3077 7.65591 19.4162 6.02516 17.8294C4.39441 16.2425 3.47826 14.0903 3.47826 11.8462V5.07692C3.47826 4.6281 3.66149 4.19765 3.98764 3.88028C4.31379 3.56291 4.75614 3.38462 5.21739 3.38462H6.95652C7.41776 3.38462 7.86012 3.20632 8.18627 2.88895C8.51242 2.57158 8.69565 2.14114 8.69565 1.69231C8.69565 1.24348 8.51242 0.813035 8.18627 0.495665C7.86012 0.178296 7.41776 0 6.95652 0H5.21739C3.83365 0 2.50659 0.534889 1.52814 1.487C0.549688 2.4391 0 3.73044 0 5.07692V11.8462C0.00223551 13.758 0.481342 15.6408 1.39617 17.3328C2.311 19.0247 3.63422 20.4753 5.25217 21.56C6.80666 22.8936 8.06732 24.5198 8.95806 26.3406C9.8488 28.1614 10.3511 30.1389 10.4348 32.1538C10.4348 35.2956 11.7174 38.3088 14.0004 40.5303C16.2835 42.7519 19.38 44 22.6087 44C25.8374 44 28.9339 42.7519 31.2169 40.5303C33.5 38.3088 34.7826 35.2956 34.7826 32.1538V30.2246C36.422 29.8127 37.8507 28.8332 38.801 27.4695C39.7513 26.1059 40.1579 24.4518 39.9445 22.8174C39.7312 21.1829 38.9126 19.6803 37.6421 18.5911C36.3717 17.502 34.7366 16.9011 33.0435 16.9011C31.3503 16.9011 29.7152 17.502 28.4448 18.5911C27.1744 19.6803 26.3557 21.1829 26.1424 22.8174C25.929 24.4518 26.3356 26.1059 27.2859 27.4695C28.2362 28.8332 29.6649 29.8127 31.3043 30.2246V32.1538C31.3043 34.398 30.3882 36.5502 28.7574 38.1371C27.1267 39.7239 24.9149 40.6154 22.6087 40.6154C20.3025 40.6154 18.0907 39.7239 16.4599 38.1371C14.8292 36.5502 13.913 34.398 13.913 32.1538C14.0011 30.1364 14.5088 28.1574 15.4056 26.3365C16.3024 24.5155 17.5696 22.8906 19.1304 21.56C20.742 20.4716 22.0584 19.0193 22.967 17.3276C23.8757 15.6358 24.3495 13.755 24.3478 11.8462V5.07692C24.3478 3.73044 23.7981 2.4391 22.8197 1.487C21.8412 0.534889 20.5142 0 19.1304 0H17.3913C16.93 0 16.4877 0.178296 16.1615 0.495665C15.8354 0.813035 15.6522 1.24348 15.6522 1.69231C15.6522 2.14114 15.8354 2.57158 16.1615 2.88895C16.4877 3.20632 16.93 3.38462 17.3913 3.38462H19.1304C19.5917 3.38462 20.034 3.56291 20.3602 3.88028C20.6863 4.19765 20.8696 4.6281 20.8696 5.07692V11.8462C20.8696 12.9573 20.6446 14.0576 20.2076 15.0842C19.7706 16.1108 19.1301 17.0436 18.3227 17.8294C17.5152 18.6151 16.5566 19.2384 15.5016 19.6636C14.4466 20.0888 13.3158 20.3077 12.1739 20.3077ZM33.0435 27.0769C32.121 27.0769 31.2363 26.7203 30.584 26.0856C29.9317 25.4509 29.5652 24.59 29.5652 23.6923C29.5652 22.7947 29.9317 21.9338 30.584 21.299C31.2363 20.6643 32.121 20.3077 33.0435 20.3077C33.966 20.3077 34.8507 20.6643 35.503 21.299C36.1553 21.9338 36.5217 22.7947 36.5217 23.6923C36.5217 24.59 36.1553 25.4509 35.503 26.0856C34.8507 26.7203 33.966 27.0769 33.0435 27.0769Z" fill="#EC7C0B"/>
</svg>
