<svg width="31" height="35" viewBox="0 0 31 35" fill="none" xmlns="http://www.w3.org/2000/svg">
<path d="M16.9783 5.5643L24.3283 12.8943M2 32.8326H29.3667M2.59 25.3076L3.41167 19.5993C3.45628 19.2265 3.62887 18.8807 3.9 18.621L20.0083 2.5143C20.2156 2.30344 20.4737 2.14957 20.7578 2.06753C21.0418 1.9855 21.3422 1.97807 21.63 2.04597C23.1157 2.44159 24.4668 3.23171 25.54 4.33264C26.6505 5.40164 27.4481 6.7536 27.8467 8.24264C27.9087 8.53073 27.8982 8.8297 27.8162 9.11274C27.7341 9.39578 27.5831 9.65403 27.3767 9.8643L11.27 25.971C10.9921 26.2272 10.6459 26.3974 10.2733 26.461L4.545 27.281C4.27817 27.317 4.00662 27.2906 3.75171 27.2039C3.4968 27.1172 3.2655 26.9725 3.076 26.7812C2.8865 26.59 2.74397 26.3573 2.65964 26.1016C2.57531 25.8459 2.55147 25.5741 2.59 25.3076Z" stroke="#EC7C0B" stroke-width="3" stroke-linecap="round" stroke-linejoin="round"/>
</svg>
