<svg width="40" height="50" viewBox="0 0 40 50" fill="none" xmlns="http://www.w3.org/2000/svg">
<path fill-rule="evenodd" clip-rule="evenodd" d="M23.8 33.237C22.883 36.664 22.858 39.522 23.726 41.811C25.321 46.019 30.926 47.23 31.19 48.333C31.454 49.437 23.726 50 19.358 50C14.991 50 9.634 49.167 9.634 48.333C9.634 47.5 14.718 46.394 16.263 41.733C17.163 39.016 17.065 35.895 15.967 32.372C15.6935 32.4575 15.4085 32.5007 15.122 32.5C13.931 32.5 12.939 31.77 12.725 30.806C11.903 31.346 10.873 31.666 9.756 31.666C7.346 31.666 5.345 30.174 4.949 28.212C4.60589 28.2929 4.25452 28.3335 3.902 28.333C1.747 28.333 0 26.841 0 25C0 23.757 0.796 22.673 1.977 22.1C1.37 21.721 0.976 21.108 0.976 20.417C0.976 20.177 1.023 19.946 1.111 19.731C0.442 19.434 0 18.92 0 18.333C0 17.606 0.682 16.988 1.632 16.76C0.637 16.15 0 15.214 0 14.167C0 12.504 1.603 11.127 3.699 10.874C3.20472 10.276 2.93203 9.52578 2.927 8.75C2.927 6.679 4.892 5 7.317 5C7.561 5 7.801 5.017 8.035 5.05C8.62 3.567 10.262 2.5 12.195 2.5C12.732 2.5 13.246 2.582 13.722 2.733C14.052 1.179 15.646 0 17.56 0C19.518 0 21.14 1.232 21.42 2.837C22.135 2.121 23.2 1.667 24.39 1.667C26.545 1.667 28.292 3.159 28.292 5C28.292 5.62 28.093 6.201 27.748 6.699C27.925 6.678 28.107 6.667 28.292 6.667C30.298 6.667 31.952 7.96 32.17 9.625C32.7837 9.32067 33.46 9.16385 34.145 9.167C36.301 9.167 38.048 10.659 38.048 12.5C38.048 13.755 37.236 14.848 36.036 15.417C37.236 15.985 38.048 17.078 38.048 18.333C38.048 19.423 37.435 20.392 36.488 21C36.854 21.418 37.072 21.937 37.072 22.5C37.072 22.716 37.04 22.925 36.98 23.124C38.78 23.977 39.999 25.617 39.999 27.5C39.999 30.261 37.379 32.5 34.145 32.5C33.3385 32.5024 32.5383 32.3588 31.783 32.076C30.897 32.852 29.66 33.333 28.292 33.333C27.2456 33.3412 26.2192 33.0459 25.337 32.483C24.917 32.84 24.39 33.104 23.8 33.237Z" fill="#EC7C0B"/>
</svg>
