<svg width="40" height="40" viewBox="0 0 40 40" fill="none" xmlns="http://www.w3.org/2000/svg">
<path fill-rule="evenodd" clip-rule="evenodd" d="M23.6852 29.6267C24.5517 29.1935 25.5021 28.9544 26.4704 28.9259C27.4386 28.8974 28.4015 29.0802 29.2919 29.4617L29.6486 29.6284L34.0786 31.8417C34.4591 32.0317 34.7526 32.36 34.899 32.7593C35.0453 33.1587 35.0334 33.5989 34.8658 33.9898C34.6982 34.3807 34.3874 34.6927 33.9972 34.8619C33.607 35.0311 33.1668 35.0448 32.7669 34.9L32.5886 34.8234L28.1569 32.6084C27.7413 32.4006 27.2869 32.282 26.8228 32.2602C26.3587 32.2384 25.8951 32.3138 25.4619 32.4817L25.1752 32.6084L22.9819 33.7067C22.1151 34.1399 21.1643 34.3789 20.1958 34.4071C19.2272 34.4353 18.2641 34.252 17.3736 33.87L17.0186 33.7067L14.8236 32.6084C14.408 32.4006 13.9536 32.282 13.4895 32.2602C13.0253 32.2384 12.5618 32.3138 12.1286 32.4817L11.8419 32.6084L7.41191 34.825C7.03133 35.0175 6.59145 35.0567 6.18281 34.9347C5.77417 34.8126 5.42787 34.5386 5.21518 34.1689C5.00248 33.7993 4.93958 33.3622 5.03943 32.9475C5.13927 32.5329 5.39426 32.1723 5.7519 31.94L5.9219 31.8417L10.3519 29.6267C11.2183 29.1935 12.1688 28.9544 13.137 28.9259C14.1053 28.8974 15.0682 29.0802 15.9586 29.4617L16.3152 29.6284L18.5086 30.725C18.9244 30.933 19.3791 31.0518 19.8435 31.0736C20.3079 31.0954 20.7718 31.0198 21.2052 30.8517L21.4902 30.725L23.6852 29.6267ZM21.6669 3.33337C22.1089 3.33337 22.5329 3.50897 22.8454 3.82153C23.158 4.13409 23.3336 4.55801 23.3336 5.00004V7.20004L28.8819 8.12337C29.6599 8.25353 30.3666 8.65538 30.8762 9.25747C31.3858 9.85957 31.6654 10.6229 31.6652 11.4117V17.1317L35.0986 18.275C35.372 18.3663 35.6235 18.5132 35.8373 18.7067C36.051 18.9001 36.2222 19.1358 36.3402 19.3988C36.4582 19.6618 36.5203 19.9464 36.5226 20.2347C36.5249 20.5229 36.4673 20.8085 36.3536 21.0734L32.7386 29.5067L29.6486 27.96C28.7228 27.4971 27.702 27.2561 26.6669 27.2561C25.6318 27.2561 24.611 27.4971 23.6852 27.96L21.4902 29.0584C21.0274 29.2898 20.5169 29.4103 19.9994 29.4103C19.4819 29.4103 18.9715 29.2898 18.5086 29.0584L16.3152 27.96C15.3895 27.4971 14.3686 27.2561 13.3336 27.2561C12.2985 27.2561 11.2777 27.4971 10.3519 27.96L8.23524 29.02L3.80524 21.2684C3.65232 21.0008 3.56069 20.7025 3.53695 20.3952C3.51321 20.0879 3.55796 19.7792 3.66796 19.4912C3.77797 19.2033 3.95049 18.9434 4.17309 18.7302C4.3957 18.517 4.66283 18.3559 4.95524 18.2584L8.33357 17.1317V11.4117C8.33341 10.6229 8.613 9.85957 9.12263 9.25747C9.63226 8.65538 10.3389 8.25353 11.1169 8.12337L16.6669 7.20004V5.00004C16.6669 4.55801 16.8425 4.13409 17.1551 3.82153C17.4676 3.50897 17.8915 3.33337 18.3336 3.33337H21.6669ZM20.0002 10.0234L11.6669 11.4117V16.0217L18.9452 13.595C19.6295 13.3669 20.3693 13.3669 21.0536 13.595L28.3336 16.0217V11.4117L20.0002 10.0234Z" fill="#EC7C0B"/>
</svg>
