<svg width="40" height="40" viewBox="0 0 40 40" fill="none" xmlns="http://www.w3.org/2000/svg">
<path fill-rule="evenodd" clip-rule="evenodd" d="M19.9975 1.2682e-06C20.3951 -0.0004929 20.7824 0.143443 21.1037 0.411021C21.425 0.678599 21.6636 1.05597 21.785 1.48863L30 30.8298L33.215 19.3494C33.3358 18.9166 33.5738 18.539 33.8947 18.2709C34.2155 18.0028 34.6026 17.8582 35 17.8579H38.125C38.6223 17.8579 39.0992 18.0836 39.4508 18.4855C39.8025 18.8874 40 19.4325 40 20.0008C40 20.5692 39.8025 21.1142 39.4508 21.5161C39.0992 21.918 38.6223 22.1438 38.125 22.1438H36.3675L31.785 38.513C31.6635 38.9449 31.4252 39.3216 31.1044 39.5888C30.7836 39.856 30.3969 40 30 40C29.6031 40 29.2164 39.856 28.8956 39.5888C28.5748 39.3216 28.3365 38.9449 28.215 38.513L20.0125 9.21752L14.2875 29.9327C14.1694 30.3595 13.9373 30.7334 13.6237 31.0017C13.3102 31.2701 12.931 31.4195 12.5394 31.429C12.1477 31.4384 11.7634 31.3075 11.4402 31.0545C11.117 30.8015 10.8713 30.4391 10.7375 30.0184L7.5775 20.0865L7.4025 20.6808C7.2782 21.1074 7.03967 21.4784 6.72067 21.7415C6.40167 22.0046 6.01836 22.1463 5.625 22.1466H1.875C1.37772 22.1466 0.900805 21.9208 0.549175 21.519C0.197544 21.1171 0 20.572 0 20.0037C0 19.4353 0.197544 18.8903 0.549175 18.4884C0.900805 18.0865 1.37772 17.8607 1.875 17.8607H4.275L5.72 12.8977C5.8425 12.4749 6.07718 12.1063 6.39142 11.8431C6.70567 11.5798 7.08387 11.435 7.47346 11.4287C7.86305 11.4224 8.24468 11.555 8.5653 11.808C8.88592 12.061 9.12961 12.4219 9.2625 12.8405L12.375 22.6266L18.2125 1.50006C18.332 1.06573 18.5695 0.686193 18.8904 0.416476C19.2114 0.14676 19.5991 0.00088446 19.9975 1.2682e-06Z" fill="#EC7C0B"/>
</svg>
