<svg width="40" height="40" viewBox="0 0 40 40" fill="none" xmlns="http://www.w3.org/2000/svg">
<path d="M38.7199 30.8829L26.6678 16.6786V2.85714H30.0012V0H10.0004V2.85714H13.3339V16.6786L1.28176 30.8829C0.554792 31.7392 0.118405 32.7513 0.0208907 33.807C-0.0766231 34.8627 0.168538 35.921 0.729247 36.8648C1.28996 37.8085 2.14435 38.6009 3.19789 39.1542C4.25143 39.7075 5.46304 40.0003 6.69864 40H33.3014C34.537 40.0003 35.7486 39.7075 36.8021 39.1542C37.8557 38.6009 38.71 37.8085 39.2708 36.8648C39.8315 35.921 40.0766 34.8627 39.9791 33.807C39.8816 32.7513 39.4452 31.7392 38.7182 30.8829M16.6674 17.6071V2.85714H23.3343V17.6071L27.7895 22.8571H12.2122L16.6674 17.6071ZM33.303 37.1429H6.70031C6.07994 37.1423 5.47181 36.9948 4.94305 36.7167C4.41429 36.4386 3.98546 36.0407 3.70389 35.5669C3.42232 35.0931 3.29896 34.5618 3.34743 34.0317C3.39589 33.5016 3.6143 32.9933 3.97854 32.5629L9.78877 25.7143H30.2129L36.0248 32.5629C36.389 32.9933 36.6074 33.5016 36.6559 34.0317C36.7044 34.5618 36.581 35.0931 36.2994 35.5669C36.0179 36.0407 35.589 36.4386 35.0603 36.7167C34.5315 36.9948 33.9234 37.1423 33.303 37.1429Z" fill="#EC7C0B"/>
</svg>
