<svg width="40" height="35" viewBox="0 0 40 35" fill="none" xmlns="http://www.w3.org/2000/svg">
<g opacity="0.2">
<path d="M18.6453 9.21119C18.6453 11.1654 17.931 13.0396 16.6595 14.4215C15.3881 15.8033 13.6637 16.5796 11.8656 16.5796C10.0675 16.5796 8.34309 15.8033 7.07165 14.4215C5.80022 13.0396 5.08594 11.1654 5.08594 9.21119C5.08594 7.25697 5.80022 5.38278 7.07165 4.00093C8.34309 2.61909 10.0675 1.84277 11.8656 1.84277C13.6637 1.84277 15.3881 2.61909 16.6595 4.00093C17.931 5.38278 18.6453 7.25697 18.6453 9.21119Z" fill="#EC7C0B"/>
<path fill-rule="evenodd" clip-rule="evenodd" d="M11.8656 11.6673C12.465 11.6673 13.0398 11.4086 13.4636 10.9479C13.8874 10.4873 14.1255 9.8626 14.1255 9.21119C14.1255 8.55979 13.8874 7.93506 13.4636 7.47444C13.0398 7.01383 12.465 6.75505 11.8656 6.75505C11.2662 6.75505 10.6914 7.01383 10.2676 7.47444C9.84381 7.93506 9.60571 8.55979 9.60571 9.21119C9.60571 9.8626 9.84381 10.4873 10.2676 10.9479C10.6914 11.4086 11.2662 11.6673 11.8656 11.6673ZM11.8656 16.5796C12.7559 16.5796 13.6375 16.389 14.4601 16.0187C15.2826 15.6484 16.03 15.1057 16.6595 14.4215C17.2891 13.7372 17.7885 12.9249 18.1292 12.031C18.4699 11.137 18.6453 10.1788 18.6453 9.21119C18.6453 8.24356 18.4699 7.2854 18.1292 6.39142C17.7885 5.49744 17.2891 4.68516 16.6595 4.00093C16.03 3.31671 15.2826 2.77396 14.4601 2.40366C13.6375 2.03336 12.7559 1.84277 11.8656 1.84277C10.0675 1.84277 8.34309 2.61909 7.07165 4.00093C5.80022 5.38278 5.08594 7.25697 5.08594 9.21119C5.08594 11.1654 5.80022 13.0396 7.07165 14.4215C8.34309 15.8033 10.0675 16.5796 11.8656 16.5796Z" fill="#EC7C0B"/>
<path fill-rule="evenodd" clip-rule="evenodd" d="M11.9799 18.4214C11.0809 18.4214 10.2187 18.8096 9.58294 19.5005C8.94723 20.1914 8.59009 21.1285 8.59009 22.1056V25.7899C8.59009 26.4413 8.35199 27.066 7.92818 27.5266C7.50437 27.9872 6.92956 28.246 6.3302 28.246C5.73084 28.246 5.15603 27.9872 4.73222 27.5266C4.30841 27.066 4.07031 26.4413 4.07031 25.7899V22.1056C4.07031 19.8257 4.90364 17.6392 6.38698 16.027C7.87032 14.4149 9.88216 13.5092 11.9799 13.5092C14.0777 13.5092 16.0895 14.4149 17.5729 16.027C19.0562 17.6392 19.8895 19.8257 19.8895 22.1056V23.3337C19.8895 23.9851 19.6514 24.6099 19.2276 25.0705C18.8038 25.5311 18.229 25.7899 17.6296 25.7899C17.0303 25.7899 16.4555 25.5311 16.0317 25.0705C15.6078 24.6099 15.3697 23.9851 15.3697 23.3337V22.1056C15.3697 21.1285 15.0126 20.1914 14.3769 19.5005C13.7412 18.8096 12.879 18.4214 11.9799 18.4214Z" fill="#EC7C0B"/>
<path d="M25.4258 9.21119C25.4258 11.1654 26.1401 13.0396 27.4115 14.4215C28.6829 15.8033 30.4074 16.5796 32.2054 16.5796C34.0035 16.5796 35.728 15.8033 36.9994 14.4215C38.2708 13.0396 38.9851 11.1654 38.9851 9.21119C38.9851 7.25697 38.2708 5.38278 36.9994 4.00093C35.728 2.61909 34.0035 1.84277 32.2054 1.84277C30.4074 1.84277 28.6829 2.61909 27.4115 4.00093C26.1401 5.38278 25.4258 7.25697 25.4258 9.21119Z" fill="#EC7C0B"/>
<path fill-rule="evenodd" clip-rule="evenodd" d="M32.2054 11.6673C31.6061 11.6673 31.0313 11.4086 30.6075 10.9479C30.1837 10.4873 29.9456 9.8626 29.9456 9.21119C29.9456 8.55979 30.1837 7.93506 30.6075 7.47444C31.0313 7.01383 31.6061 6.75505 32.2054 6.75505C32.8048 6.75505 33.3796 7.01383 33.8034 7.47444C34.2272 7.93506 34.4653 8.55979 34.4653 9.21119C34.4653 9.8626 34.2272 10.4873 33.8034 10.9479C33.3796 11.4086 32.8048 11.6673 32.2054 11.6673ZM32.2054 16.5796C31.3151 16.5796 30.4335 16.389 29.611 16.0187C28.7884 15.6484 28.041 15.1057 27.4115 14.4215C26.7819 13.7372 26.2826 12.9249 25.9419 12.031C25.6011 11.137 25.4258 10.1788 25.4258 9.21119C25.4258 8.24356 25.6011 7.2854 25.9419 6.39142C26.2826 5.49744 26.7819 4.68516 27.4115 4.00093C28.041 3.31671 28.7884 2.77396 29.611 2.40366C30.4335 2.03336 31.3151 1.84277 32.2054 1.84277C34.0035 1.84277 35.728 2.61909 36.9994 4.00093C38.2708 5.38278 38.9851 7.25697 38.9851 9.21119C38.9851 11.1654 38.2708 13.0396 36.9994 14.4215C35.728 15.8033 34.0035 16.5796 32.2054 16.5796Z" fill="#EC7C0B"/>
<path fill-rule="evenodd" clip-rule="evenodd" d="M32.0893 18.4214C32.9883 18.4214 33.8505 18.8096 34.4863 19.5005C35.122 20.1914 35.4791 21.1285 35.4791 22.1056V25.7899C35.4791 26.4413 35.7172 27.066 36.141 27.5266C36.5648 27.9872 37.1397 28.246 37.739 28.246C38.3384 28.246 38.9132 27.9872 39.337 27.5266C39.7608 27.066 39.9989 26.4413 39.9989 25.7899V22.1056C39.9989 19.8257 39.1656 17.6392 37.6822 16.027C36.1989 14.4149 34.187 13.5092 32.0893 13.5092C29.9915 13.5092 27.9797 14.4149 26.4964 16.027C25.013 17.6392 24.1797 19.8257 24.1797 22.1056V23.3337C24.1797 23.9851 24.4178 24.6099 24.8416 25.0705C25.2654 25.5311 25.8402 25.7899 26.4396 25.7899C27.0389 25.7899 27.6137 25.5311 28.0376 25.0705C28.4614 24.6099 28.6995 23.9851 28.6995 23.3337V22.1056C28.6995 21.1285 29.0566 20.1914 29.6923 19.5005C30.328 18.8096 31.1903 18.4214 32.0893 18.4214Z" fill="#EC7C0B"/>
<path fill-rule="evenodd" clip-rule="evenodd" d="M22.1479 25.1762C21.2488 25.1762 20.3866 25.5644 19.7509 26.2553C19.1152 26.9462 18.7581 27.8833 18.7581 28.8604V32.5446C18.7581 33.196 18.52 33.8208 18.0961 34.2814C17.6723 34.742 17.0975 35.0008 16.4982 35.0008C15.8988 35.0008 15.324 34.742 14.9002 34.2814C14.4764 33.8208 14.2383 33.196 14.2383 32.5446V28.8604C14.2383 26.5805 15.0716 24.3939 16.555 22.7818C18.0383 21.1696 20.0501 20.2639 22.1479 20.2639C24.2456 20.2639 26.2575 21.1696 27.7408 22.7818C29.2242 24.3939 30.0575 26.5805 30.0575 28.8604V32.5446C30.0575 33.196 29.8194 33.8208 29.3956 34.2814C28.9718 34.742 28.397 35.0008 27.7976 35.0008C27.1982 35.0008 26.6234 34.742 26.1996 34.2814C25.7758 33.8208 25.5377 33.196 25.5377 32.5446V28.8604C25.5377 27.8833 25.1806 26.9462 24.5449 26.2553C23.9091 25.5644 23.0469 25.1762 22.1479 25.1762Z" fill="#EC7C0B"/>
<path d="M28.8132 15.9651C28.8132 17.9193 28.0989 19.7935 26.8275 21.1754C25.5561 22.5572 23.8316 23.3335 22.0336 23.3335C20.2355 23.3335 18.5111 22.5572 17.2396 21.1754C15.9682 19.7935 15.2539 17.9193 15.2539 15.9651C15.2539 14.0109 15.9682 12.1367 17.2396 10.7548C18.5111 9.37299 20.2355 8.59668 22.0336 8.59668C23.8316 8.59668 25.5561 9.37299 26.8275 10.7548C28.0989 12.1367 28.8132 14.0109 28.8132 15.9651Z" fill="#EC7C0B"/>
<path fill-rule="evenodd" clip-rule="evenodd" d="M22.0336 18.4212C22.6329 18.4212 23.2077 18.1625 23.6315 17.7019C24.0554 17.2412 24.2935 16.6165 24.2935 15.9651C24.2935 15.3137 24.0554 14.689 23.6315 14.2283C23.2077 13.7677 22.6329 13.509 22.0336 13.509C21.4342 13.509 20.8594 13.7677 20.4356 14.2283C20.0118 14.689 19.7737 15.3137 19.7737 15.9651C19.7737 16.6165 20.0118 17.2412 20.4356 17.7019C20.8594 18.1625 21.4342 18.4212 22.0336 18.4212ZM22.0336 23.3335C23.8316 23.3335 25.5561 22.5572 26.8275 21.1754C28.0989 19.7935 28.8132 17.9193 28.8132 15.9651C28.8132 14.0109 28.0989 12.1367 26.8275 10.7548C25.5561 9.37299 23.8316 8.59668 22.0336 8.59668C20.2355 8.59668 18.5111 9.37299 17.2396 10.7548C15.9682 12.1367 15.2539 14.0109 15.2539 15.9651C15.2539 17.9193 15.9682 19.7935 17.2396 21.1754C18.5111 22.5572 20.2355 23.3335 22.0336 23.3335Z" fill="#EC7C0B"/>
<path d="M6.21484 18.4216H17.5143V28.2462H6.21484V18.4216ZM26.5538 18.4216H37.8533V28.2462H26.5538V18.4216Z" fill="#EC7C0B"/>
<path d="M17.5167 23.3341H26.5562L27.6862 35.0008H16.3867L17.5167 23.3341Z" fill="#EC7C0B"/>
</g>
<path fill-rule="evenodd" clip-rule="evenodd" d="M7.90857 12.2807C9.10729 12.2807 10.2569 11.7632 11.1045 10.8419C11.9522 9.9207 12.4283 8.67124 12.4283 7.36842C12.4283 6.0656 11.9522 4.81614 11.1045 3.89491C10.2569 2.97368 9.10729 2.45614 7.90857 2.45614C6.70985 2.45614 5.56023 2.97368 4.7126 3.89491C3.86498 4.81614 3.38879 6.0656 3.38879 7.36842C3.38879 8.67124 3.86498 9.9207 4.7126 10.8419C5.56023 11.7632 6.70985 12.2807 7.90857 12.2807ZM7.90857 14.7368C8.79888 14.7368 9.68048 14.5463 10.503 14.176C11.3256 13.8057 12.073 13.2629 12.7025 12.5787C13.3321 11.8945 13.8314 11.0822 14.1722 10.1882C14.5129 9.29422 14.6882 8.33606 14.6882 7.36842C14.6882 6.40079 14.5129 5.44263 14.1722 4.54865C13.8314 3.65467 13.3321 2.84238 12.7025 2.15816C12.073 1.47394 11.3256 0.931186 10.503 0.560888C9.68048 0.19059 8.79888 -1.44189e-08 7.90857 0C6.11049 2.91202e-08 4.38606 0.776314 3.11462 2.15816C1.84319 3.54001 1.12891 5.41419 1.12891 7.36842C1.12891 9.32265 1.84319 11.1968 3.11462 12.5787C4.38606 13.9605 6.11049 14.7368 7.90857 14.7368Z" fill="#EC7C0B"/>
<path fill-rule="evenodd" clip-rule="evenodd" d="M5.31977 12.0257C5.425 12.1398 5.50849 12.2753 5.56545 12.4245C5.62242 12.5737 5.65174 12.7337 5.65174 12.8952C5.65174 13.0567 5.62242 13.2167 5.56545 13.3659C5.50849 13.5151 5.425 13.6506 5.31977 13.7647L4.55593 14.5924C3.08595 16.1905 2.26008 18.3576 2.25989 20.6173V25.1759C2.25989 25.5016 2.14084 25.814 1.92893 26.0443C1.71703 26.2746 1.42962 26.404 1.12994 26.404C0.830264 26.404 0.542858 26.2746 0.330953 26.0443C0.119047 25.814 0 25.5016 0 25.1759V20.6173C0.00032036 17.7063 1.06437 14.9145 2.95819 12.8559L3.71977 12.0257C3.82474 11.9114 3.94943 11.8206 4.0867 11.7587C4.22398 11.6968 4.37115 11.6649 4.51977 11.6649C4.6684 11.6649 4.81557 11.6968 4.95284 11.7587C5.09012 11.8206 5.21481 11.9114 5.31977 12.0257ZM31.9684 11.2889C31.8631 11.403 31.7796 11.5385 31.7227 11.6877C31.6657 11.8369 31.6364 11.9968 31.6364 12.1584C31.6364 12.3199 31.6657 12.4798 31.7227 12.629C31.7796 12.7782 31.8631 12.9138 31.9684 13.0278L32.7322 13.8556C33.4602 14.6468 34.0376 15.5861 34.4316 16.6198C34.8255 17.6536 35.0283 18.7616 35.0282 19.8805V25.1759C35.0282 25.5016 35.1473 25.814 35.3592 26.0443C35.5711 26.2746 35.8585 26.404 36.1582 26.404C36.4579 26.404 36.7453 26.2746 36.9572 26.0443C37.1691 25.814 37.2881 25.5016 37.2881 25.1759V19.8805C37.2878 16.9694 36.2238 14.1777 34.3299 12.1191L33.5684 11.2889C33.4634 11.1745 33.3387 11.0838 33.2014 11.0219C33.0642 10.96 32.917 10.9281 32.7684 10.9281C32.6197 10.9281 32.4726 10.96 32.3353 11.0219C32.198 11.0838 32.0733 11.1745 31.9684 11.2889Z" fill="#EC7C0B"/>
<path fill-rule="evenodd" clip-rule="evenodd" d="M28.2471 12.2807C27.0483 12.2807 25.8987 11.7632 25.0511 10.8419C24.2035 9.92069 23.7273 8.67124 23.7273 7.36842C23.7273 6.0656 24.2035 4.81614 25.0511 3.89491C25.8987 2.97368 27.0483 2.45614 28.2471 2.45614C29.4458 2.45614 30.5954 2.97368 31.443 3.89491C32.2906 4.81614 32.7668 6.0656 32.7668 7.36842C32.7668 8.67124 32.2906 9.92069 31.443 10.8419C30.5954 11.7632 29.4458 12.2807 28.2471 12.2807ZM28.2471 14.7368C27.3567 14.7368 26.4751 14.5463 25.6526 14.176C24.8301 13.8057 24.0827 13.2629 23.4531 12.5787C22.8236 11.8945 22.3242 11.0822 21.9835 10.1882C21.6428 9.29421 21.4674 8.33605 21.4674 7.36842C21.4674 6.40079 21.6428 5.44263 21.9835 4.54865C22.3242 3.65467 22.8236 2.84238 23.4531 2.15816C24.0827 1.47394 24.8301 0.931186 25.6526 0.560888C26.4751 0.19059 27.3567 -1.44189e-08 28.2471 0C30.0451 2.91202e-08 31.7696 0.776314 33.041 2.15816C34.3124 3.54001 35.0267 5.41419 35.0267 7.36842C35.0267 9.32265 34.3124 11.1968 33.041 12.5787C31.7696 13.9605 30.0451 14.7368 28.2471 14.7368ZM18.0776 22.7193C16.5792 22.7193 15.1421 23.3662 14.0826 24.5178C13.0231 25.6693 12.4279 27.2311 12.4279 28.8596V32.0526C12.4279 32.3783 12.3088 32.6907 12.0969 32.921C11.885 33.1513 11.5976 33.2807 11.2979 33.2807C10.9982 33.2807 10.7108 33.1513 10.4989 32.921C10.287 32.6907 10.168 32.3783 10.168 32.0526V28.8596C10.168 26.5797 11.0013 24.3932 12.4846 22.781C13.968 21.1689 15.9798 20.2632 18.0776 20.2632C20.1753 20.2632 22.1872 21.1689 23.6705 22.781C25.1538 24.3932 25.9872 26.5797 25.9872 28.8596V32.0526C25.9872 32.3783 25.8681 32.6907 25.6562 32.921C25.4443 33.1513 25.1569 33.2807 24.8572 33.2807C24.5576 33.2807 24.2701 33.1513 24.0582 32.921C23.8463 32.6907 23.7273 32.3783 23.7273 32.0526V28.8596C23.7273 28.0533 23.5812 27.2548 23.2972 26.5098C23.0133 25.7649 22.5971 25.0879 22.0725 24.5178C21.5479 23.9476 20.9251 23.4953 20.2396 23.1867C19.5542 22.8781 18.8195 22.7193 18.0776 22.7193Z" fill="#EC7C0B"/>
<path fill-rule="evenodd" clip-rule="evenodd" d="M18.0804 19.0355C19.2792 19.0355 20.4288 18.5179 21.2764 17.5967C22.124 16.6755 22.6002 15.426 22.6002 14.1232C22.6002 12.8204 22.124 11.5709 21.2764 10.6497C20.4288 9.72844 19.2792 9.2109 18.0804 9.2109C16.8817 9.2109 15.7321 9.72844 14.8845 10.6497C14.0369 11.5709 13.5607 12.8204 13.5607 14.1232C13.5607 15.426 14.0369 16.6755 14.8845 17.5967C15.7321 18.5179 16.8817 19.0355 18.0804 19.0355ZM18.0804 21.4916C19.8785 21.4916 21.603 20.7153 22.8744 19.3334C24.1458 17.9516 24.8601 16.0774 24.8601 14.1232C24.8601 12.169 24.1458 10.2948 22.8744 8.91292C21.603 7.53107 19.8785 6.75476 18.0804 6.75476C16.2824 6.75476 14.5579 7.53107 13.2865 8.91292C12.0151 10.2948 11.3008 12.169 11.3008 14.1232C11.3008 16.0774 12.0151 17.9516 13.2865 19.3334C14.5579 20.7153 16.2824 21.4916 18.0804 21.4916Z" fill="#EC7C0B"/>
</svg>
