<svg width="40" height="40" viewBox="0 0 40 40" fill="none" xmlns="http://www.w3.org/2000/svg">
<path d="M30.26 18.9474L32.78 16.2947C33.66 15.3684 34.78 14.8632 36 14.7368V12.6316L24 0H4C1.78 0 0 1.87368 0 4.21053V33.6842C0 34.8009 0.421427 35.8719 1.17157 36.6615C1.92172 37.4511 2.93913 37.8947 4 37.8947H16V33.9579L16.26 33.6842H4V4.21053H18V18.9474H30.26ZM22 3.15789L33 14.7368H22V3.15789ZM32.26 22.8L36.34 27.0947L24.08 40H20V35.7053L32.26 22.8ZM39.7 23.5579L37.74 25.6211L33.66 21.3263L35.62 19.2632C36 18.8421 36.66 18.8421 37.06 19.2632L39.7 22.0421C40.1 22.4632 40.1 23.1579 39.7 23.5579Z" fill="#EC7C0B"/>
</svg>
