<svg width="35" height="35" viewBox="0 0 35 35" fill="none" xmlns="http://www.w3.org/2000/svg">
<path fill-rule="evenodd" clip-rule="evenodd" d="M11.926 19.574C11.758 21.7384 11.31 23.4665 10.53 24.9988C9.484 27.0429 7.73 28.9528 4.83 30.9829C4.64396 31.0972 4.47647 31.2633 4.33772 31.4709C4.19896 31.6785 4.09182 31.9233 4.02281 32.1906C3.95379 32.4578 3.92434 32.7419 3.93624 33.0256C3.94814 33.3092 4.00114 33.5865 4.09203 33.8407C4.18291 34.0948 4.30979 34.3205 4.46495 34.504C4.62012 34.6875 4.80033 34.825 4.99466 34.9082C5.18899 34.9913 5.39338 35.0184 5.59542 34.9878C5.79746 34.9571 5.99294 34.8694 6.17 34.7299C9.27 32.5656 11.516 30.281 12.97 27.4316C14.452 24.5347 15 21.2714 15 17.4768V4.89351C15 3.59567 14.6313 2.35099 13.9749 1.43328C13.3185 0.515565 12.4283 0 11.5 0H3.5C2.57174 0 1.6815 0.515565 1.02513 1.43328C0.368749 2.35099 0 3.59567 0 4.89351V14.6805C0 17.3817 1.568 19.574 3.5 19.574H11.926ZM31.926 19.574C31.758 21.7384 31.31 23.4665 30.53 24.9988C29.484 27.0429 27.73 28.9528 24.83 30.9829C24.644 31.0972 24.4765 31.2633 24.3377 31.4709C24.199 31.6785 24.0918 31.9233 24.0228 32.1906C23.9538 32.4578 23.9243 32.7419 23.9362 33.0256C23.9481 33.3092 24.0011 33.5865 24.092 33.8407C24.1829 34.0948 24.3098 34.3205 24.465 34.504C24.6201 34.6875 24.8003 34.825 24.9947 34.9082C25.189 34.9913 25.3934 35.0184 25.5954 34.9878C25.7975 34.9571 25.9929 34.8694 26.17 34.7299C29.27 32.5656 31.516 30.281 32.97 27.4316C34.452 24.5347 35 21.2714 35 17.4768V4.89351C35 3.59567 34.6312 2.35099 33.9749 1.43328C33.3185 0.515565 32.4283 0 31.5 0H23.5C22.5717 0 21.6815 0.515565 21.0251 1.43328C20.3687 2.35099 20 3.59567 20 4.89351V14.6805C20 17.3817 21.568 19.574 23.5 19.574H31.926Z" fill="#EC7C0B"/>
</svg>
