<svg width="90" height="40" viewBox="0 0 90 40" fill="none" xmlns="http://www.w3.org/2000/svg">
<rect width="90" height="40" rx="20" fill="url(#paint0_linear_283_6811)"/>
<path d="M11.0767 25.876L12.9443 25.1191V13.376L11.0767 12.6191V10.4951L17.0703 10.373L23.8208 21.9209V13.376L22.002 12.6191V10.4951L29.1187 10.373V12.6191L27.251 13.376V28H23.0762L16.3745 16.6719V25.1191L18.3276 25.876V28H11.0767V25.876ZM41.8018 20.2485H36.748V24.9971H41.228L41.8018 22.9463H44.0479V28H30.9985V25.876L32.8784 25.1191V13.376L30.9985 12.6191V10.4951L36.748 10.373H43.7549V15.1948H41.4966L40.874 13.376H36.748V17.502H41.8018V20.2485ZM45.5493 10.4951L52.9712 10.373V12.6191L51.1523 13.376L53.3008 22.3726L56.8042 10.5806L60.1733 10.373L63.5303 22.3481L65.9229 13.376L64.0552 12.6191V10.4951L71.1719 10.373V12.6191L69.3774 13.376L65.105 28H61.5527L58.2812 16.1226L57.6831 18.5029L54.8022 28H51.3477L47.3071 13.3516L45.5493 12.6191V10.4951ZM73.5767 8.87158H77.4829L77.0312 21.4692L74.0283 21.6035L73.5767 8.87158ZM73.4302 26.0469C73.4302 25.3633 73.6418 24.818 74.0649 24.4111C74.4963 24.0042 75.0008 23.8008 75.5786 23.8008C76.2622 23.8008 76.783 23.9961 77.1411 24.3867C77.4992 24.7773 77.6782 25.3307 77.6782 26.0469C77.6782 26.7467 77.4666 27.3042 77.0435 27.7192C76.6203 28.1261 76.1076 28.3296 75.5054 28.3296C74.8218 28.3296 74.305 28.1343 73.9551 27.7437C73.6051 27.3449 73.4302 26.7793 73.4302 26.0469Z" fill="white"/>
<defs>
<linearGradient id="paint0_linear_283_6811" x1="0" y1="20" x2="90" y2="20" gradientUnits="userSpaceOnUse">
<stop stop-color="#004756"/>
<stop offset="0.48" stop-color="#009BBC"/>
</linearGradient>
</defs>
</svg>
