<svg width="50" height="40" viewBox="0 0 50 40" fill="none" xmlns="http://www.w3.org/2000/svg">
<path d="M26.3533 0L4.08917 5.67H4.05917C3.68917 5.67 0 5.76538 0 9.57307C0 11.2277 0.795 12.4608 0.795 12.4608L17.7567 38.6469C19.3783 41.0315 22.8225 39.5384 22.8225 39.5384L48.8317 27.8423L47.8583 26.9307C47.6292 25.8361 47.4958 23.8092 49.1058 22.3C49.1417 22.2661 49.1483 22.22 49.1675 22.1777L50 21.8692L26.3533 0ZM27.0442 4.99384L31.5967 9.56845L14.6042 15.3123L10.5908 9.48461L27.0442 4.99384ZM17.155 34.7215L2.235 11.6846C2.22833 11.6761 1.66667 10.7546 1.66667 9.57307C1.66667 8.07461 2.46167 7.50461 3.23917 7.30538L20.3 31.8715C19.0158 32.3846 17.5808 33.5569 17.155 34.7215ZM47.01 24.7238C46.9558 25.0777 46.9283 25.4223 46.9342 25.7454L29.86 33.2261L46.995 26.5138C47.0117 26.6369 47.0267 26.7592 47.0475 26.87L25.16 36.6284L47.22 27.5969L47.2333 27.6454L22.8225 38.4246C22.8108 38.4315 21.6967 38.9784 20.58 38.9784C19.4767 38.9784 18.7892 38.4554 18.4758 37.38C17.67 34.6169 22.2483 33.0507 22.3175 33.0277L47.6367 22.9161C47.455 23.2238 47.3292 23.5377 47.2242 23.8492L31.1517 30.8331L47.01 24.7238Z" fill="#EC7C0B"/>
</svg>
