<svg width="40" height="40" viewBox="0 0 40 40" fill="none" xmlns="http://www.w3.org/2000/svg">
<path opacity="0.2" d="M21.7558 22.8035C16.4358 11.7177 23.5291 0.633909 38.6041 1.74228C39.4991 20.5867 30.6241 29.4558 21.7558 22.8035ZM1.37588 10.053C0.742549 23.5139 7.07752 29.8454 13.4108 25.0973C17.2108 17.1804 12.1442 9.26132 1.37588 10.053Z" fill="#EC7C0B"/>
<path d="M39.9382 1.64231C39.9191 1.23456 39.7809 0.849742 39.5499 0.560925C39.3189 0.272108 39.011 0.099398 38.6848 0.0755858C30.0582 -0.549438 23.1316 2.72985 20.1549 8.87175C18.1882 12.9302 18.1916 17.8638 20.1282 22.5681C19.0271 24.2055 18.2215 26.1207 17.7666 28.1829L15.0549 24.7911C16.3583 21.3889 16.3083 17.8408 14.8883 14.897C12.6816 10.3593 7.60329 7.91546 1.29832 8.3884C0.972127 8.41221 0.664287 8.58492 0.433243 8.87374C0.202199 9.16255 0.0640376 9.54737 0.0449886 9.95512C-0.326677 17.8367 1.62165 24.1848 5.2533 26.9349C6.45384 27.851 7.83344 28.3347 9.23995 28.3329C10.6031 28.3119 11.9451 27.9082 13.1666 27.1516L17.3333 32.3601V38.3333C17.3333 38.7753 17.4737 39.1993 17.7238 39.5118C17.9738 39.8244 18.313 40 18.6666 40C19.0202 40 19.3593 39.8244 19.6094 39.5118C19.8594 39.1993 19.9999 38.7753 19.9999 38.3333V32.1893C19.994 29.5377 20.7158 26.9639 22.0449 24.8974C23.7598 26.0177 25.6617 26.6172 27.5965 26.6474C29.4672 26.655 31.3031 26.0161 32.9015 24.8015C37.8148 21.0847 40.4448 12.426 39.9382 1.64231ZM13.0099 22.2368L8.94162 17.1533C8.68954 16.8539 8.35387 16.6895 8.00619 16.6951C7.65851 16.7006 7.32632 16.8757 7.08046 17.1831C6.83459 17.4904 6.69449 17.9057 6.69004 18.3403C6.68559 18.7749 6.81713 19.1945 7.05663 19.5096L11.1249 24.5953C9.52328 25.2578 7.96996 25.0932 6.63496 24.0827C4.07831 22.1472 2.63164 17.5658 2.66664 11.6656C7.38496 11.6135 11.0516 13.4303 12.5999 16.6262C13.4083 18.295 13.5399 20.2368 13.0099 22.2368ZM31.5199 21.9535C29.2865 23.6431 26.6615 23.7723 23.9949 22.3702L32.9432 11.1823C33.1934 10.8698 33.334 10.4459 33.3342 10.0038C33.3343 9.56168 33.194 9.13762 32.944 8.82487C32.6941 8.51213 32.3549 8.33632 32.0013 8.33612C31.6476 8.33593 31.3084 8.51136 31.0582 8.82383L22.1082 19.9993C20.9816 16.6658 21.0832 13.3823 22.4416 10.5926C24.7649 5.8008 30.2749 3.13403 37.3298 3.33613C37.4898 12.1531 35.3565 19.0492 31.5199 21.9535Z" fill="#EC7C0B"/>
</svg>
