<svg width="40" height="40" viewBox="0 0 40 40" fill="none" xmlns="http://www.w3.org/2000/svg">
<path d="M25.1728 23.7068L22.2199 20.733L34.0733 8.90052L31.0995 5.9267L19.267 17.7801L16.2932 14.8272L28.1466 2.97382L25.1728 0L11.8534 13.3403C10.6769 14.5183 10.016 16.1152 10.016 17.7801C10.016 19.445 10.6769 21.0419 11.8534 22.2199L13.3403 23.7068L0 37.0262L2.97382 40L16.2932 26.6597L17.7801 28.1466C18.9581 29.3231 20.555 29.984 22.2199 29.984C23.8848 29.984 25.4817 29.3231 26.6597 28.1466L40 14.8272L37.0262 11.8534L25.1728 23.7068Z" fill="#EC7C0B"/>
</svg>
