<svg width="22" height="22" viewBox="0 0 22 22" fill="none" xmlns="http://www.w3.org/2000/svg">
<path d="M5.50001 4.40221C5.28245 4.40221 5.06978 4.46676 4.88888 4.58769C4.70799 4.70862 4.567 4.8805 4.48374 5.0816C4.40049 5.2827 4.3787 5.50398 4.42115 5.71747C4.46359 5.93095 4.56836 6.12705 4.72219 6.28097C4.87603 6.43488 5.07203 6.5397 5.28541 6.58216C5.49879 6.62463 5.71996 6.60283 5.92096 6.51953C6.12196 6.43624 6.29375 6.29518 6.41462 6.11419C6.53549 5.93321 6.60001 5.72043 6.60001 5.50276C6.60001 5.21088 6.48411 4.93095 6.27782 4.72456C6.07154 4.51816 5.79175 4.40221 5.50001 4.40221ZM21.681 10.7634L11.253 0.352194C11.1504 0.241548 11.0262 0.153188 10.8881 0.0926029C10.7499 0.0320182 10.6008 0.000503841 10.45 1.83949e-05H3.85001C3.70524 -0.000819005 3.56174 0.0269424 3.42772 0.0817107C3.29369 0.136479 3.1718 0.217177 3.06901 0.319177L0.319018 3.05954C0.217068 3.16238 0.136411 3.28434 0.0816699 3.41842C0.0269289 3.55251 -0.000818595 3.69609 1.83857e-05 3.84093V10.4442C0.00407022 10.7356 0.118011 11.0147 0.319018 11.2256L10.758 21.6808C10.9688 21.8819 11.2478 21.9959 11.539 22C11.6838 22.0008 11.8273 21.9731 11.9613 21.9183C12.0953 21.8635 12.2172 21.7828 12.32 21.6808L21.681 12.3152C21.7829 12.2123 21.8636 12.0904 21.9183 11.9563C21.9731 11.8222 22.0008 11.6786 22 11.5338C21.9932 11.2462 21.8794 10.9715 21.681 10.7634ZM11.539 19.3587L2.20001 10.004V4.29216L4.29001 2.20112H9.988L19.338 11.5448L11.539 19.3587Z" fill="#F8F8F8"/>
</svg>
