<svg width="40" height="36" viewBox="0 0 40 36" fill="none" xmlns="http://www.w3.org/2000/svg">
<rect x="0.5" y="0.599304" width="39" height="34.461" rx="17.2305" fill="white" stroke="#EC7C0B"/>
<path d="M15.1667 11.9197C15.1667 10.8191 15.6593 9.74938 16.5605 8.95051C17.4635 8.1499 18.7 7.69153 20 7.69153C21.3 7.69153 22.5365 8.1499 23.4395 8.95051C24.3407 9.74938 24.8333 10.8191 24.8333 11.9197C24.8333 13.0203 24.3407 14.0899 23.4395 14.8888C22.5365 15.6894 21.3 16.1478 20 16.1478C18.7 16.1478 17.4635 15.6894 16.5605 14.8888C15.6593 14.0899 15.1667 13.0203 15.1667 11.9197ZM10.2843 21.1171C11.4374 20.0948 13.013 19.5119 14.6667 19.5119H25.3333C26.987 19.5119 28.5626 20.0948 29.7157 21.1171C30.8669 22.1376 31.5 23.5079 31.5 24.922C31.5 25.7091 31.1478 26.4782 30.4967 27.0554C29.8437 27.6343 28.9464 27.9681 28 27.9681H12C11.0536 27.9681 10.1563 27.6343 9.50326 27.0554C8.85218 26.4782 8.5 25.7091 8.5 24.922C8.5 23.5079 9.13313 22.1376 10.2843 21.1171Z" fill="#EC7C0B" stroke="#EC7C0B"/>
</svg>
