<svg width="40" height="40" viewBox="0 0 40 40" fill="none" xmlns="http://www.w3.org/2000/svg">
<path d="M39.9999 17.9964C40.0055 16.5842 39.6391 15.1956 38.9378 13.9712C38.2365 12.7468 37.2252 11.73 36.0063 11.0239C36.0363 10.6773 36.0363 10.3287 36.0063 9.98208C36.0063 8.38793 35.3751 6.85907 34.2517 5.73183C33.1283 4.6046 31.6046 3.97133 30.0158 3.97133H29.6564C29.3238 3.0463 28.7702 2.21725 28.044 1.5569C27.3178 0.896546 26.4412 0.42505 25.4911 0.183758C24.5411 -0.0575338 23.5465 -0.0612515 22.5946 0.172932C21.6428 0.407115 20.7627 0.872045 20.0316 1.52695C19.3006 0.872045 18.4205 0.407115 17.4687 0.172932C16.5168 -0.0612515 15.5222 -0.0575338 14.5721 0.183758C13.6221 0.42505 12.7455 0.896546 12.0193 1.5569C11.2931 2.21725 10.7394 3.0463 10.4069 3.97133H10.0475C8.45872 3.97133 6.93501 4.6046 5.81158 5.73183C4.68814 6.85907 4.057 8.38793 4.057 9.98208C4.02695 10.3287 4.02695 10.6773 4.057 11.0239C2.92372 11.6667 1.96419 12.5776 1.26192 13.6774C0.559656 14.7773 0.135946 16.0326 0.0276753 17.3343C-0.0805952 18.636 0.129855 19.9445 0.640708 21.1459C1.15156 22.3473 1.94733 23.4052 2.95875 24.2276C2.30433 25.4523 1.97853 26.8267 2.01334 28.2159C2.04814 29.6051 2.44235 30.9614 3.15728 32.1515C3.8722 33.3417 4.88327 34.3249 6.09123 35.0046C7.2992 35.6844 8.66256 36.0373 10.0475 36.0287H10.4069C10.7394 36.9537 11.2931 37.7827 12.0193 38.4431C12.7455 39.1035 13.6221 39.5749 14.5721 39.8162C15.5222 40.0575 16.5168 40.0612 17.4687 39.8271C18.4205 39.5929 19.3006 39.128 20.0316 38.473C20.7627 39.128 21.6428 39.5929 22.5946 39.8271C23.5465 40.0612 24.5411 40.0575 25.4911 39.8162C26.4412 39.5749 27.3178 39.1035 28.044 38.4431C28.7702 37.7827 29.3238 36.9537 29.6564 36.0287H30.0158C31.3923 36.0199 32.7431 35.6544 33.9374 34.9676C35.1316 34.2808 36.1286 33.2959 36.8318 32.1086C37.535 30.9212 37.9204 29.5717 37.9507 28.1909C37.981 26.81 37.6551 25.4448 37.0047 24.2276C37.9361 23.4793 38.6886 22.5313 39.2069 21.453C39.7252 20.3747 39.9962 19.1936 39.9999 17.9964ZM18.0348 13.0876C17.5999 12.838 17.1458 12.6236 16.677 12.4465C16.1739 12.2764 15.624 12.3139 15.1484 12.5506C14.6729 12.7873 14.3105 13.2039 14.141 13.7087C13.9715 14.2136 14.0089 14.7652 14.2448 15.2424C14.4807 15.7196 14.8959 16.0833 15.399 16.2533C16.1677 16.5321 16.8326 17.0409 17.3039 17.7109C17.7753 18.3809 18.0304 19.1799 18.0348 20V23.1056C17.5999 22.856 17.1458 22.6416 16.677 22.4644C16.1739 22.2944 15.624 22.3318 15.1484 22.5685C14.6729 22.8053 14.3105 23.2218 14.141 23.7267C13.9715 24.2315 14.0089 24.7832 14.2448 25.2604C14.4807 25.7376 14.8959 26.1012 15.399 26.2712C16.1677 26.55 16.8326 27.0588 17.3039 27.7288C17.7753 28.3988 18.0304 29.1978 18.0348 30.0179V34.0251C18.0348 34.5565 17.8244 35.0661 17.45 35.4418C17.0755 35.8176 16.5676 36.0287 16.038 36.0287C15.6517 36.0261 15.2744 35.9112 14.9518 35.6978C14.6293 35.4845 14.3754 35.1818 14.2209 34.8265C14.5557 34.6294 14.876 34.4084 15.1793 34.1653C15.3813 33.9969 15.5481 33.7903 15.6705 33.5572C15.7928 33.3241 15.8681 33.0691 15.8923 32.8068C15.9164 32.5444 15.8887 32.2799 15.811 32.0283C15.7332 31.7767 15.6068 31.5429 15.4389 31.3403C15.2711 31.1377 15.0652 30.9702 14.8328 30.8475C14.6005 30.7248 14.3464 30.6491 14.0849 30.625C13.8235 30.6008 13.5599 30.6285 13.3091 30.7065C13.0583 30.7846 12.8253 30.9114 12.6234 31.0798C11.9024 31.6889 10.99 32.0224 10.0475 32.0215C8.98831 32.0215 7.97251 31.5993 7.22355 30.8478C6.47459 30.0963 6.05383 29.0771 6.05383 28.0143C6.06339 27.2602 6.28487 26.524 6.69282 25.8905C7.14095 25.9712 7.59538 26.0114 8.05066 26.0107C8.58026 26.0107 9.08816 25.7997 9.46263 25.4239C9.83711 25.0482 10.0475 24.5385 10.0475 24.0072C10.0475 23.4758 9.83711 22.9662 9.46263 22.5904C9.08816 22.2147 8.58026 22.0036 8.05066 22.0036C7.57899 22.0063 7.1112 21.9179 6.67285 21.7431C5.95468 21.4832 5.3258 21.0222 4.86071 20.4148C4.39562 19.8073 4.11381 19.0788 4.04867 18.3155C3.98353 17.5523 4.13779 16.7863 4.49317 16.1083C4.84855 15.4303 5.39016 14.8688 6.05383 14.4901C6.33758 14.7521 6.6451 14.9869 6.97237 15.1914C7.43312 15.4571 7.98018 15.5282 8.49322 15.3892C9.00626 15.2502 9.44324 14.9124 9.70803 14.4501C9.97283 13.9878 10.0437 13.4389 9.90519 12.9241C9.76663 12.4093 9.42995 11.9709 8.9692 11.7052C8.6881 11.5496 8.45367 11.3213 8.29028 11.044C8.10567 10.7223 8.02215 10.3522 8.05066 9.98208C8.05066 9.45069 8.26104 8.94108 8.63552 8.56533C9.01 8.18958 9.5179 7.97849 10.0475 7.97849C10.1866 7.95902 10.3277 7.95902 10.4668 7.97849C10.5725 8.30041 10.6993 8.61499 10.8462 8.92018C10.9767 9.14976 11.1511 9.35118 11.3595 9.51284C11.5678 9.6745 11.806 9.7932 12.0603 9.86211C12.3146 9.93101 12.5799 9.94876 12.8411 9.91433C13.1022 9.8799 13.354 9.79398 13.5819 9.6615C14.0246 9.39424 14.3468 8.96521 14.4809 8.46455C14.6149 7.96389 14.5504 7.43059 14.3007 6.9767C14.1332 6.66936 14.044 6.32521 14.0412 5.97491C14.0412 5.44353 14.2515 4.93391 14.626 4.55816C15.0005 4.18242 15.5084 3.97133 16.038 3.97133C16.5676 3.97133 17.0755 4.18242 17.45 4.55816C17.8244 4.93391 18.0348 5.44353 18.0348 5.97491V13.0876ZM33.3904 21.7431C32.9521 21.9179 32.4843 22.0063 32.0126 22.0036C31.483 22.0036 30.9751 22.2147 30.6006 22.5904C30.2262 22.9662 30.0158 23.4758 30.0158 24.0072C30.0158 24.5385 30.2262 25.0482 30.6006 25.4239C30.9751 25.7997 31.483 26.0107 32.0126 26.0107C32.4679 26.0114 32.9223 25.9712 33.3705 25.8905C33.7784 26.524 33.9999 27.2602 34.0094 28.0143C34.0094 29.0771 33.5887 30.0963 32.8397 30.8478C32.0908 31.5993 31.075 32.0215 30.0158 32.0215C29.0733 32.0224 28.1609 31.6889 27.4399 31.0798C27.0321 30.7397 26.5064 30.5761 25.9784 30.625C25.4503 30.6738 24.9633 30.9311 24.6243 31.3403C24.2854 31.7494 24.1223 32.277 24.171 32.8068C24.2197 33.3366 24.4762 33.8253 24.8839 34.1653C25.1873 34.4084 25.5076 34.6294 25.8424 34.8265C25.6879 35.1818 25.434 35.4845 25.1114 35.6978C24.7889 35.9112 24.4116 36.0261 24.0253 36.0287C23.4957 36.0287 22.9878 35.8176 22.6133 35.4418C22.2389 35.0661 22.0285 34.5565 22.0285 34.0251V30.0179C22.0329 29.1978 22.288 28.3988 22.7594 27.7288C23.2307 27.0588 23.8956 26.55 24.6643 26.2712C25.1674 26.1012 25.5826 25.7376 25.8185 25.2604C26.0544 24.7832 26.0918 24.2315 25.9223 23.7267C25.7528 23.2218 25.3904 22.8053 24.9148 22.5685C24.4393 22.3318 23.8894 22.2944 23.3863 22.4644C22.9174 22.6416 22.4634 22.856 22.0285 23.1056V20C22.0329 19.1799 22.288 18.3809 22.7594 17.7109C23.2307 17.0409 23.8956 16.5321 24.6643 16.2533C24.9134 16.1691 25.1436 16.0365 25.3416 15.8631C25.5396 15.6896 25.7017 15.4787 25.8185 15.2424C25.9353 15.0062 26.0046 14.7491 26.0224 14.4859C26.0402 14.2228 26.0062 13.9587 25.9223 13.7087C25.8384 13.4588 25.7062 13.2279 25.5334 13.0291C25.3605 12.8304 25.1503 12.6678 24.9148 12.5506C24.6794 12.4334 24.4232 12.3639 24.1609 12.346C23.8986 12.3281 23.6354 12.3623 23.3863 12.4465C22.9174 12.6236 22.4634 12.838 22.0285 13.0876V5.97491C22.0285 5.44353 22.2389 4.93391 22.6133 4.55816C22.9878 4.18242 23.4957 3.97133 24.0253 3.97133C24.5549 3.97133 25.0628 4.18242 25.4373 4.55816C25.8118 4.93391 26.0221 5.44353 26.0221 5.97491C26.0193 6.32521 25.9301 6.66936 25.7625 6.9767C25.6297 7.20418 25.5429 7.45574 25.5071 7.71695C25.4713 7.97816 25.4873 8.24388 25.5541 8.49888C25.6209 8.75389 25.7372 8.99316 25.8963 9.20298C26.0554 9.4128 26.2543 9.58905 26.4814 9.72161C26.7093 9.85409 26.9611 9.94001 27.2222 9.97444C27.4834 10.0089 27.7487 9.99112 28.003 9.92221C28.2573 9.85331 28.4954 9.73461 28.7038 9.57295C28.9122 9.41129 29.0866 9.20987 29.2171 8.98029C29.3665 8.65558 29.4933 8.32085 29.5965 7.97849C29.7356 7.95902 29.8767 7.95902 30.0158 7.97849C30.5454 7.97849 31.0533 8.18958 31.4278 8.56533C31.8022 8.94108 32.0126 9.45069 32.0126 9.98208C32.0096 10.3748 31.8915 10.7581 31.6732 11.084C31.5098 11.344 31.283 11.5578 31.0142 11.7052C30.5535 11.9709 30.2168 12.4093 30.0782 12.9241C29.9397 13.4389 30.0106 13.9878 30.2754 14.4501C30.5402 14.9124 30.9772 15.2502 31.4902 15.3892C32.0032 15.5282 32.5503 15.4571 33.011 15.1914C33.3696 14.9969 33.7046 14.7616 34.0094 14.4901C34.6754 14.8621 35.2214 15.4174 35.5829 16.0907C35.9444 16.7639 36.1064 17.5269 36.0497 18.2895C35.993 19.0521 35.72 19.7825 35.263 20.3945C34.8059 21.0065 34.1839 21.4744 33.4703 21.7431H33.3904Z" fill="#EC7C0B"/>
</svg>
