<svg width="43" height="44" viewBox="0 0 43 44" fill="none" xmlns="http://www.w3.org/2000/svg">
<g filter="url(#filter0_d_175_2568)">
<path d="M21.5 0.370361C11.84 0.370361 4 8.21036 4 17.8704C4 27.5304 11.84 35.3704 21.5 35.3704C31.16 35.3704 39 27.5304 39 17.8704C39 8.21036 31.16 0.370361 21.5 0.370361ZM23.25 30.1204H19.75V26.6204H23.25V30.1204ZM26.8725 16.5579L25.2975 18.1679C24.4225 19.0604 23.7925 19.8654 23.4775 21.1254C23.3375 21.6854 23.25 22.3154 23.25 23.1204H19.75V22.2454C19.749 21.3258 19.9293 20.4151 20.2806 19.5652C20.632 18.7154 21.1474 17.9433 21.7975 17.2929L23.9675 15.0879C24.7725 14.3179 25.1575 13.1629 24.93 11.9379C24.8087 11.3116 24.5176 10.7307 24.0887 10.2585C23.6597 9.78633 23.1093 9.44106 22.4975 9.26036C20.555 8.71786 18.7525 9.82036 18.175 11.4829C17.965 12.1304 17.4225 12.6204 16.74 12.6204H16.215C15.2 12.6204 14.5 11.6404 14.78 10.6604C15.1553 9.38369 15.8861 8.24012 16.887 7.36319C17.8879 6.48626 19.1176 5.91214 20.4325 5.70786C23.0925 5.28786 25.63 6.67036 27.205 8.85786C29.27 11.7104 28.6575 14.7729 26.8725 16.5579Z" fill="#EC7C0B"/>
<path d="M25.6549 18.5175L25.6545 18.5179C24.8055 19.384 24.2462 20.1122 23.9626 21.2466C23.833 21.765 23.75 22.3542 23.75 23.1204V23.6204H23.25H19.75H19.25V23.1204V22.2459V22.2454L25.6549 18.5175ZM25.6549 18.5175L27.2281 16.9094C29.18 14.9556 29.8224 11.6212 27.6104 8.56518C25.9529 6.26352 23.2437 4.75803 20.355 5.2139C18.9466 5.43283 17.6295 6.04783 16.5575 6.98712C15.4853 7.92657 14.7024 9.15165 14.3003 10.5193L14.2992 10.523C13.9335 11.8029 14.8478 13.1204 16.215 13.1204H16.74C17.6845 13.1204 18.3865 12.4448 18.6489 11.6425C19.1456 10.2197 20.6878 9.27604 22.3594 9.74093C22.882 9.89597 23.3521 10.1912 23.7186 10.5947C24.0856 10.9986 24.3347 11.4955 24.4388 12.0312C24.6359 13.0961 24.2999 14.078 23.6219 14.7265L23.6164 14.7318L23.6111 14.7371L21.4439 16.9394L25.6549 18.5175ZM23.25 30.6204H23.75V30.1204V26.6204V26.1204H23.25H19.75H19.25V26.6204V30.1204V30.6204H19.75H23.25ZM4.5 17.8704C4.5 8.4865 12.1161 0.870361 21.5 0.870361C30.8839 0.870361 38.5 8.4865 38.5 17.8704C38.5 27.2542 30.8839 34.8704 21.5 34.8704C12.1161 34.8704 4.5 27.2542 4.5 17.8704Z" stroke="#EC7C0B"/>
</g>
<defs>
<filter id="filter0_d_175_2568" x="0" y="0.370361" width="43" height="43" filterUnits="userSpaceOnUse" color-interpolation-filters="sRGB">
<feFlood flood-opacity="0" result="BackgroundImageFix"/>
<feColorMatrix in="SourceAlpha" type="matrix" values="0 0 0 0 0 0 0 0 0 0 0 0 0 0 0 0 0 0 127 0" result="hardAlpha"/>
<feOffset dy="4"/>
<feGaussianBlur stdDeviation="2"/>
<feComposite in2="hardAlpha" operator="out"/>
<feColorMatrix type="matrix" values="0 0 0 0 0 0 0 0 0 0 0 0 0 0 0 0 0 0 0.25 0"/>
<feBlend mode="normal" in2="BackgroundImageFix" result="effect1_dropShadow_175_2568"/>
<feBlend mode="normal" in="SourceGraphic" in2="effect1_dropShadow_175_2568" result="shape"/>
</filter>
</defs>
</svg>
