<svg width="40" height="40" viewBox="0 0 40 40" fill="none" xmlns="http://www.w3.org/2000/svg">
<path d="M20 0C16.2737 0 12.9895 2.28293 11.9368 5.6C10.8211 5.13171 9.64211 4.87805 8.42105 4.87805C6.18765 4.87805 4.04572 5.70035 2.46647 7.16404C0.887215 8.62774 0 10.6129 0 12.6829C0.00498801 14.4114 0.627356 16.0897 1.76993 17.4557C2.91251 18.8218 4.51099 19.7988 6.31579 20.2341V34.1463H33.6842V20.2341C37.3895 19.3366 40 16.2341 40 12.6829C40 10.6129 39.1128 8.62774 37.5335 7.16404C35.9543 5.70035 33.8124 4.87805 31.5789 4.87805C30.3579 4.87805 29.1789 5.13171 28.0632 5.6C27.0105 2.28293 23.7263 0 20 0ZM18.9474 17.561H21.0526V31.2195H18.9474V17.561ZM12.6316 21.4634H14.7368V31.2195H12.6316V21.4634ZM25.2632 21.4634H27.3684V31.2195H25.2632V21.4634ZM6.31579 36.0976V38.0488C6.31579 38.5663 6.53759 39.0626 6.93241 39.4285C7.32722 39.7944 7.8627 40 8.42105 40H31.5789C32.1373 40 32.6728 39.7944 33.0676 39.4285C33.4624 39.0626 33.6842 38.5663 33.6842 38.0488V36.0976H6.31579Z" fill="#EC7C0B"/>
</svg>
