<svg width="25" height="21" viewBox="0 0 25 21" fill="none" xmlns="http://www.w3.org/2000/svg">
<path d="M15.7621 2.04959C15.0413 2.04959 14.3501 2.31939 13.8404 2.79965C13.3308 3.2799 13.0445 3.93127 13.0445 4.61045C13.0445 5.28964 13.3308 5.941 13.8404 6.42126C14.3501 6.90152 15.0413 7.17132 15.7621 7.17132C16.4828 7.17132 17.1741 6.90152 17.6837 6.42126C18.1934 5.941 18.4797 5.28964 18.4797 4.61045C18.4797 3.93127 18.1934 3.2799 17.6837 2.79965C17.1741 2.31939 16.4828 2.04959 15.7621 2.04959ZM10.8704 4.61045C10.8702 3.82586 11.0826 3.0542 11.4874 2.36857C11.8922 1.68293 12.476 1.10601 13.1835 0.692423C13.8911 0.278839 14.6989 0.0422859 15.5306 0.0051632C16.3623 -0.0319595 17.1903 0.131577 17.9362 0.480287C18.6819 0.131993 19.5097 -0.0312128 20.3411 0.0061164C21.1725 0.0434456 21.9801 0.280075 22.6874 0.69361C23.3946 1.10714 23.9782 1.68391 24.3829 2.36931C24.7876 3.05472 25 3.8261 25 4.61045C25 5.39481 24.7876 6.16618 24.3829 6.85159C23.9782 7.537 23.3946 8.11376 22.6874 8.5273C21.9801 8.94083 21.1725 9.17746 20.3411 9.21479C19.5097 9.25212 18.6819 9.08891 17.9362 8.74062C17.1903 9.08933 16.3623 9.25287 15.5306 9.21574C14.6989 9.17862 13.8911 8.94207 13.1835 8.52848C12.476 8.1149 11.8922 7.53797 11.4874 6.85234C11.0826 6.1667 10.8702 5.39505 10.8704 4.61045ZM19.8385 7.15903C20.2163 7.19477 20.598 7.15548 20.9587 7.0437C21.3195 6.93192 21.6514 6.75013 21.933 6.51005C22.2147 6.26996 22.4398 5.97693 22.5938 5.64983C22.7479 5.32273 22.8275 4.96883 22.8275 4.61097C22.8275 4.2531 22.7479 3.8992 22.5938 3.5721C22.4398 3.24501 22.2147 2.95197 21.933 2.71188C21.6514 2.4718 21.3195 2.29001 20.9587 2.17823C20.598 2.06645 20.2163 2.02716 19.8385 2.0629C20.3713 2.81758 20.6549 3.70403 20.6538 4.61045C20.6552 5.51722 20.3715 6.40406 19.8385 7.15903ZM9.16918 12.5491C8.99069 12.5487 8.81387 12.5814 8.6488 12.6454C8.48373 12.7094 8.33366 12.8034 8.20715 12.922L5.97872 15.0219V18.9513H12.0955L18.4036 17.466L22.243 15.9213C22.3738 15.8547 22.4739 15.7449 22.524 15.6131C22.5742 15.4812 22.571 15.3366 22.5149 15.2068C22.4589 15.0771 22.354 14.9714 22.2204 14.91C22.0867 14.8487 21.9338 14.836 21.7908 14.8744L21.7691 14.8795L14.799 16.3904H10.8704V14.3417H14.2674C14.5197 14.3417 14.7616 14.2473 14.94 14.0792C15.1183 13.9111 15.2186 13.6832 15.2186 13.4454C15.2186 13.2077 15.1183 12.9798 14.94 12.8117C14.7616 12.6436 14.5197 12.5491 14.2674 12.5491H9.17244H9.16918ZM17.3785 13.7292L21.2397 12.8923C21.6509 12.7904 22.0815 12.7787 22.4983 12.858C22.9151 12.9373 23.307 13.1056 23.6441 13.3499C23.9811 13.5942 24.2542 13.908 24.4425 14.2673C24.6308 14.6266 24.7292 15.0217 24.7302 15.4224C24.7301 15.9089 24.5863 16.3858 24.3148 16.7995C24.0433 17.2133 23.6549 17.5477 23.1931 17.7651L23.1637 17.7795L19.0982 19.4133L12.3629 21H0V13.5735H4.44164L6.67225 11.4715C7.0009 11.1629 7.39086 10.9183 7.81984 10.7516C8.24883 10.585 8.70844 10.4997 9.17244 10.5004H14.2674C14.7032 10.5004 15.1343 10.5862 15.5328 10.7525C15.9313 10.9187 16.2886 11.1617 16.5816 11.4657C16.8745 11.7698 17.0968 12.1282 17.234 12.518C17.3713 12.9078 17.4205 13.3204 17.3785 13.7292ZM3.80464 15.6222H2.17408V18.9513H3.80464V15.6222Z" fill="#F8F8F8"/>
</svg>
