<svg width="40" height="40" viewBox="0 0 40 40" fill="none" xmlns="http://www.w3.org/2000/svg">
<path d="M20.0007 8.55913e-05C18.4039 8.55913e-05 16.9126 0.653971 15.6414 1.72472C14.3704 2.79572 13.2823 4.28727 12.3752 6.09396C12.1851 6.47244 12.0036 6.8658 11.83 7.27155C11.362 7.20476 10.8919 7.14986 10.4204 7.10692C9.87201 7.05777 9.33689 7.02726 8.81697 7.01632C7.25627 6.98298 5.82988 7.1253 4.5797 7.46609C2.91293 7.92056 1.53757 8.75531 0.739161 9.99872C-0.059248 11.2424 -0.175208 12.7308 0.22048 14.2562C0.616358 15.7815 1.50858 17.3747 2.79507 18.9846C3.065 19.3222 3.35338 19.6608 3.65773 19.9994C3.35999 20.3299 3.0727 20.668 2.79621 21.0131C1.50963 22.6229 0.617404 24.2161 0.221621 25.7415C-0.174162 27.2668 -0.0581073 28.7553 0.740302 29.9987C1.53871 31.2424 2.91407 32.077 4.58084 32.5313C6.24771 32.9859 8.22815 33.0875 10.4216 32.8905C10.8814 32.8491 11.3512 32.7939 11.8291 32.7262C11.9987 33.124 12.1808 33.5174 12.3752 33.906C13.2823 35.7129 14.3703 37.2042 15.6414 38.2751C16.9125 39.346 18.404 40 20.0007 40C21.5974 40 23.0888 39.3459 24.3599 38.2751C25.6309 37.2041 26.719 35.7128 27.6261 33.906C27.8205 33.5175 28.0026 33.1241 28.1722 32.7264C28.6496 32.7939 29.1189 32.8492 29.5784 32.8905C31.7719 33.0874 33.7524 32.9858 35.4191 32.5313C37.0861 32.077 38.4614 31.2422 39.2598 29.9987C40.0583 28.7551 40.1742 27.2668 39.7785 25.7415C39.3827 24.2161 38.4903 22.623 37.2039 21.0131C36.9273 20.668 36.64 20.33 36.3423 19.9994C36.6405 19.6686 36.9282 19.3302 37.205 18.9846C38.4915 17.3748 39.3837 15.7816 39.7795 14.2563C40.1753 12.7309 40.0592 11.2425 39.2608 9.9988C38.4624 8.7554 37.087 7.92064 35.4203 7.46617C34.1702 7.12538 32.7437 6.98307 31.1832 7.01632C30.6629 7.02726 30.1277 7.05777 29.5793 7.10692C29.1193 7.14829 28.6491 7.20376 28.171 7.27146C28.0016 6.87443 27.8197 6.48178 27.6257 6.09396C26.7186 4.28701 25.6306 2.79547 24.3595 1.72463C23.0884 0.6538 21.5969 0 20.0003 0L20.0007 8.55913e-05ZM20.0007 1.59736C21.0657 1.59736 22.11 2.01816 23.1455 2.8906C24.1808 3.76287 25.1697 5.0833 26.0071 6.75126C26.1433 7.0234 26.2728 7.29821 26.3955 7.5755C24.3598 7.98253 22.2038 8.60701 20.0001 9.44142C17.7969 8.60718 15.6412 7.98287 13.6059 7.57584C13.7316 7.29292 13.8606 7.01717 13.9943 6.75117C14.8317 5.08312 15.8205 3.7627 16.856 2.89026C17.8915 2.01798 18.9357 1.59719 20.0009 1.59719L20.0007 1.59736ZM8.25362 8.6112C8.42509 8.60966 8.59928 8.61069 8.7762 8.61428C9.24764 8.62368 9.73781 8.65103 10.244 8.69659C10.5678 8.72565 10.8986 8.76283 11.2348 8.80668C10.6088 10.5954 10.1323 12.5866 9.83361 14.7199C7.92808 16.0191 6.24857 17.3862 4.8388 18.7682C4.63249 18.5335 4.43198 18.2948 4.23743 18.0521C3.0498 16.566 2.27277 15.1357 1.95027 13.8931C1.62777 12.6504 1.74497 11.6269 2.27743 10.7974C2.80989 9.96795 3.73738 9.36509 5.09505 8.9949C5.98614 8.75189 7.05306 8.62094 8.25352 8.61111L8.25362 8.6112ZM31.7466 8.6112C32.9471 8.62103 34.014 8.75198 34.9051 8.99498C36.263 9.36509 37.1901 9.96795 37.7226 10.7974C38.2551 11.6269 38.3723 12.6505 38.0499 13.8931C37.7277 15.1356 36.9502 16.566 35.7627 18.0521C35.5682 18.2948 35.3678 18.5336 35.1615 18.7684C33.752 17.3865 32.0729 16.0198 30.168 14.7207C29.8695 12.5871 29.3924 10.5957 28.7664 8.80668C29.1022 8.76283 29.4327 8.72548 29.7561 8.69659C30.2441 8.6521 30.7337 8.62462 31.224 8.61419C31.3982 8.61063 31.5724 8.60958 31.7466 8.61103V8.6112ZM27.0018 9.09328C27.4742 10.4128 27.8653 11.8688 28.1572 13.4269C27.2142 12.854 26.249 12.3114 25.2634 11.7999C24.2785 11.2882 23.2738 10.808 22.2513 10.3602C23.8975 9.80845 25.495 9.38518 27.0018 9.09345V9.09328ZM12.9995 9.09354C14.506 9.38535 16.1033 9.80862 17.7491 10.3603C16.7265 10.8081 15.7219 11.2883 14.737 11.7999C13.7518 12.3111 12.787 12.8535 11.8443 13.4259C12.1361 11.8683 12.5271 10.4128 12.9995 9.09354ZM20.0001 11.1843C21.4455 11.7576 22.9127 12.424 24.3752 13.1834C25.8383 13.9431 27.2143 14.7527 28.4894 15.592C28.6601 17.0047 28.7519 18.4809 28.7519 20C28.7519 21.5182 28.6604 22.9939 28.4898 24.4059C27.2147 25.2451 25.8389 26.0546 24.3763 26.8141C22.9135 27.5735 21.4459 28.2402 20.0002 28.8135C18.5543 28.2402 17.0868 27.5735 15.624 26.8141C14.1617 26.0548 12.7864 25.2456 11.5118 24.4068C11.3412 22.9945 11.2495 21.5186 11.2495 19.9999C11.2495 18.4806 11.3412 17.0042 11.512 15.5914C12.7869 14.7523 14.1624 13.9427 15.625 13.1834C17.0876 12.4241 18.5548 11.7576 20.0001 11.1844V11.1843ZM20.1203 13.5875L15.035 16.4096L20.1203 19.232L25.2056 16.4096L20.1203 13.5874V13.5875ZM9.59267 16.9325C9.51274 17.9533 9.47289 18.9764 9.47319 19.9997C9.47319 21.0424 9.51406 22.0658 9.59276 23.0652C8.23832 22.0592 7.03186 21.0266 5.99735 19.999C7.03186 18.9714 8.23822 17.9387 9.59267 16.9325ZM30.4088 16.9333C31.7626 17.9394 32.9688 18.9716 34.0029 19.9991C32.9688 21.0265 31.7626 22.0588 30.4088 23.0645C30.4886 22.0445 30.5285 21.0223 30.5282 19.9998C30.5282 18.9567 30.4873 17.933 30.4087 16.9333H30.4088ZM13.8893 17.6508V23.2236L19.2301 26.1876V20.6151L13.8893 17.6508ZM26.3462 17.6537L21.0067 20.6171V26.187L26.3463 23.2236L26.3462 17.6537ZM4.83861 21.23C6.24857 22.6121 7.92789 23.9789 9.83323 25.2781C10.1317 27.4111 10.6085 29.4021 11.2343 31.1908C10.8987 31.2344 10.5683 31.2718 10.2452 31.3008C8.22026 31.4827 6.45397 31.3726 5.0962 31.0025C3.73833 30.6324 2.81122 30.0293 2.27867 29.1999C1.7462 28.3703 1.62901 27.3468 1.95141 26.1042C2.27382 24.8617 3.05094 23.4312 4.23857 21.9452C4.4327 21.7028 4.6327 21.4644 4.83861 21.23ZM35.1614 21.2302C35.3712 21.4696 35.5721 21.708 35.7615 21.9452C36.949 23.4311 37.7261 24.8616 38.0485 26.1041C38.371 27.3467 38.254 28.3702 37.7216 29.1998C37.1889 30.0292 36.2616 30.6323 34.9038 31.0025C33.5461 31.3726 31.7801 31.4826 29.7552 31.3008C29.425 31.2706 29.0955 31.234 28.7671 31.1909C29.393 29.4018 29.8697 27.4104 30.1682 25.2769C32.0729 23.978 33.7521 22.6116 35.1615 21.2301L35.1614 21.2302ZM28.1576 26.571C27.8658 28.1289 27.4748 29.5848 27.0024 30.9043C25.4955 30.6126 23.8978 30.1891 22.2514 29.6374C23.2743 29.1893 24.2792 28.709 25.2645 28.1973C26.2499 27.686 27.2149 27.1435 28.1578 26.571H28.1576ZM11.8439 26.5718C12.7862 27.1441 13.7508 27.6863 14.7357 28.1973C15.7209 28.709 16.7259 29.1893 17.7487 29.6374C16.1028 30.189 14.5056 30.6124 12.9988 30.9042C12.5264 29.5849 12.1357 28.1293 11.8439 26.5718ZM20.0533 26.6445L20.1179 26.6804L20.1822 26.6445H20.0533H20.0533ZM20 30.5564C22.2042 31.3907 24.3603 32.0151 26.3962 32.422C26.2733 32.7001 26.1436 32.9757 26.0071 33.2486C25.1697 34.9164 24.1808 36.2368 23.1454 37.1092C22.11 37.9816 21.0657 38.4025 20.0007 38.4025C18.9357 38.4025 17.8913 37.9816 16.8559 37.1092C15.8205 36.2369 14.8317 34.9164 13.9943 33.2485C13.8578 32.9756 13.728 32.7 13.6051 32.4219C15.6406 32.0149 17.7965 31.3906 20.0002 30.5564H20Z" fill="#EC7C0B"/>
</svg>
