<svg width="50" height="55" viewBox="0 0 50 55" fill="none" xmlns="http://www.w3.org/2000/svg">
<path d="M33.3333 29.6867C31.6444 29.6867 30.1333 30.3193 28.9778 31.3102L13.1333 22.5602C13.2444 22.0753 13.3333 21.5904 13.3333 21.0843C13.3333 20.5783 13.2444 20.0934 13.1333 19.6084L28.8 10.9428C30 11.997 31.5778 12.6506 33.3333 12.6506C37.0222 12.6506 40 9.8253 40 6.3253C40 2.8253 37.0222 0 33.3333 0C29.6444 0 26.6667 2.8253 26.6667 6.3253C26.6667 6.83133 26.7556 7.31626 26.8667 7.8012L11.2 16.4669C10 15.4127 8.42222 14.759 6.66667 14.759C2.97778 14.759 0 17.5843 0 21.0843C0 24.5843 2.97778 27.4096 6.66667 27.4096C8.42222 27.4096 10 26.756 11.2 25.7018L27.0222 34.4729C26.9111 34.9157 26.8444 35.3795 26.8444 35.8434C26.8444 39.238 29.7556 42 33.3333 42C36.9111 42 39.8222 39.238 39.8222 35.8434C39.8222 32.4488 36.9111 29.6867 33.3333 29.6867Z" fill="#EC7C0B"/>
<path d="M9.35938 52.4062C9.38281 52.4219 9.44531 52.4492 9.54688 52.4883C9.65234 52.5273 9.79102 52.5664 9.96289 52.6055C10.1348 52.6406 10.3242 52.6582 10.5312 52.6582C10.9375 52.6582 11.2812 52.5723 11.5625 52.4004C11.8438 52.2285 11.9844 51.9902 11.9844 51.6855C11.9844 51.502 11.9219 51.3477 11.7969 51.2227C11.6758 51.0977 11.5195 50.9941 11.3281 50.9121C11.1406 50.8262 10.8672 50.7188 10.5078 50.5898C9.98047 50.4062 9.54492 50.2246 9.20117 50.0449C8.85742 49.8652 8.55859 49.6055 8.30469 49.2656C8.05469 48.9258 7.92969 48.4844 7.92969 47.9414C7.92969 47.4062 8.06055 46.9473 8.32227 46.5645C8.58789 46.1777 8.95117 45.8867 9.41211 45.6914C9.87305 45.4961 10.3945 45.3984 10.9766 45.3984C11.375 45.3984 11.7695 45.4336 12.1602 45.5039C12.5547 45.5742 12.8789 45.6484 13.1328 45.7266C13.3906 45.8008 13.5527 45.8516 13.6191 45.8789L13.5547 48.0586H12.4531L12.1543 47.0391C12.123 47.0312 12.0547 47.0137 11.9492 46.9863C11.8438 46.959 11.7129 46.9316 11.5566 46.9043C11.4004 46.873 11.248 46.8574 11.0996 46.8574C10.6934 46.8574 10.3789 46.9375 10.1562 47.0977C9.93359 47.2578 9.82227 47.4629 9.82227 47.7129C9.82227 47.9707 9.94141 48.1738 10.1797 48.3223C10.4219 48.4668 10.8027 48.6309 11.3223 48.8145C11.8496 48.998 12.2832 49.1777 12.623 49.3535C12.9668 49.5293 13.2598 49.7812 13.502 50.1094C13.748 50.4375 13.8711 50.8574 13.8711 51.3691C13.8711 51.9551 13.7305 52.459 13.4492 52.8809C13.168 53.2988 12.7832 53.6172 12.2949 53.8359C11.8066 54.0508 11.252 54.1582 10.6309 54.1582C10.2324 54.1582 9.83398 54.123 9.43555 54.0527C9.04102 53.9863 8.71289 53.918 8.45117 53.8477C8.18945 53.7734 8.02344 53.7246 7.95312 53.7012V51.3984H9.17773L9.35938 52.4062ZM17.4746 48.2168C17.7207 48.0098 18.0195 47.8223 18.3711 47.6543C18.7266 47.4863 19.0996 47.4023 19.4902 47.4023C20.0996 47.4023 20.5664 47.5918 20.8906 47.9707C21.2148 48.3496 21.377 48.8789 21.377 49.5586V52.7402L22.2148 53.0391V54H18.9512V53.0391L19.5723 52.752V49.8457C19.5723 49.2051 19.3086 48.8867 18.7812 48.8906C18.582 48.8906 18.3867 48.9395 18.1953 49.0371C18.0039 49.1309 17.8438 49.2285 17.7148 49.3301C17.5859 49.4277 17.5059 49.4922 17.4746 49.5234V52.7402L18.1133 53.0391V54H14.7148V53.0391L15.6758 52.7402V45.9961L14.7148 45.7559V44.7949L17.4746 44.7012V48.2168ZM26.8086 53.2207C26.8086 53.2363 26.7051 53.3242 26.498 53.4844C26.291 53.6445 26.043 53.791 25.7539 53.9238C25.4648 54.0527 25.168 54.1172 24.8633 54.1172C24.2773 54.1172 23.8184 53.9551 23.4863 53.6309C23.1582 53.3027 22.9941 52.8379 22.9941 52.2363C22.9941 51.5488 23.2402 51.0469 23.7324 50.7305C24.2246 50.4141 24.9414 50.2559 25.8828 50.2559H26.7266V49.5938C26.7266 49.0078 26.418 48.7168 25.8008 48.7207C25.6172 48.7207 25.4473 48.7344 25.291 48.7617C25.1348 48.7891 25.0098 48.8184 24.916 48.8496C24.8262 48.877 24.7695 48.8945 24.7461 48.9023L24.5645 49.6582H23.4863L23.4043 47.8828C23.4746 47.8594 23.6465 47.8086 23.9199 47.7305C24.1973 47.6523 24.5273 47.5781 24.9102 47.5078C25.2969 47.4375 25.6621 47.4023 26.0059 47.4023C26.623 47.4023 27.1133 47.4805 27.4766 47.6367C27.8398 47.7891 28.1055 48.0391 28.2734 48.3867C28.4414 48.7305 28.5254 49.1934 28.5254 49.7754V52.7402L29.4277 52.957V53.918L27.0254 54L26.8086 53.2207ZM24.7344 52.0547C24.7344 52.2891 24.7949 52.4688 24.916 52.5938C25.041 52.7148 25.2168 52.7754 25.4434 52.7754C25.6348 52.7754 25.8242 52.7246 26.0117 52.623C26.1992 52.5176 26.3574 52.4102 26.4863 52.3008C26.6152 52.1875 26.6953 52.1133 26.7266 52.0781V51.2754H26.041C25.5762 51.2754 25.2422 51.3379 25.0391 51.4629C24.8359 51.5879 24.7344 51.7852 24.7344 52.0547ZM32.7676 48.3457C32.7676 48.3301 32.8613 48.2383 33.0488 48.0703C33.2363 47.9023 33.4531 47.75 33.6992 47.6133C33.9492 47.4727 34.1953 47.4023 34.4375 47.4023C34.6289 47.4023 34.8086 47.418 34.9766 47.4492C35.1445 47.4805 35.2754 47.5137 35.3691 47.5488C35.4668 47.584 35.5273 47.6055 35.5508 47.6133L35.457 49.9219H34.3789L34.1973 48.9023C33.9902 48.9023 33.7891 48.9531 33.5938 49.0547C33.4023 49.1523 33.2383 49.2617 33.1016 49.3828C32.9688 49.5 32.9023 49.5625 32.9023 49.5703V52.7402L34.1035 53.0391V54H30.1426V53.0391L31.1035 52.7402V48.8379L30.1426 48.5391V47.5781L32.6621 47.5195L32.7676 48.3457ZM37.9062 51.1582C37.9375 51.6387 38.082 52.0137 38.3398 52.2832C38.6016 52.5488 38.9414 52.6816 39.3594 52.6816C39.6562 52.6816 39.9531 52.6406 40.25 52.5586C40.5508 52.4727 40.7988 52.3867 40.9941 52.3008C41.1934 52.2109 41.3203 52.1484 41.375 52.1133L41.8906 53.1094C41.8906 53.125 41.75 53.2246 41.4688 53.4082C41.1914 53.5879 40.8496 53.752 40.4434 53.9004C40.041 54.0449 39.6113 54.1172 39.1543 54.1172C38.1387 54.1172 37.3652 53.8359 36.834 53.2734C36.3027 52.7109 36.0371 51.9141 36.0371 50.8828C36.0371 50.1875 36.1641 49.5781 36.418 49.0547C36.6758 48.5273 37.0449 48.1211 37.5254 47.8359C38.0059 47.5469 38.5762 47.4023 39.2363 47.4023C40.1152 47.4023 40.7891 47.6543 41.2578 48.1582C41.7266 48.6621 41.9609 49.3496 41.9609 50.2207C41.9609 50.4121 41.9512 50.5977 41.9316 50.7773C41.9121 50.957 41.8984 51.0703 41.8906 51.1172L37.9062 51.1582ZM39.1191 48.8379C38.791 48.8379 38.5234 48.9492 38.3164 49.1719C38.1094 49.3906 37.9805 49.6797 37.9297 50.0391H40.1035C40.1035 49.6797 40.0234 49.3906 39.8633 49.1719C39.7031 48.9492 39.4551 48.8379 39.1191 48.8379Z" fill="white"/>
</svg>
