<svg width="40" height="38" viewBox="0 0 40 38" fill="none" xmlns="http://www.w3.org/2000/svg">
<path d="M14 6C14 4.4087 14.6321 2.88258 15.7574 1.75736C16.8826 0.632141 18.4087 0 20 0C21.5913 0 23.1174 0.632141 24.2426 1.75736C25.3679 2.88258 26 4.4087 26 6C26 7.5913 25.3679 9.11742 24.2426 10.2426C23.1174 11.3679 21.5913 12 20 12C18.4087 12 16.8826 11.3679 15.7574 10.2426C14.6321 9.11742 14 7.5913 14 6ZM33 2C31.6739 2 30.4021 2.52678 29.4645 3.46447C28.5268 4.40215 28 5.67392 28 7C28 8.32608 28.5268 9.59785 29.4645 10.5355C30.4021 11.4732 31.6739 12 33 12C34.3261 12 35.5979 11.4732 36.5355 10.5355C37.4732 9.59785 38 8.32608 38 7C38 5.67392 37.4732 4.40215 36.5355 3.46447C35.5979 2.52678 34.3261 2 33 2ZM7 2C5.67392 2 4.40215 2.52678 3.46447 3.46447C2.52678 4.40215 2 5.67392 2 7C2 8.32608 2.52678 9.59785 3.46447 10.5355C4.40215 11.4732 5.67392 12 7 12C8.32608 12 9.59785 11.4732 10.5355 10.5355C11.4732 9.59785 12 8.32608 12 7C12 5.67392 11.4732 4.40215 10.5355 3.46447C9.59785 2.52678 8.32608 2 7 2ZM15.25 14C14.1228 14 13.0418 14.4478 12.2448 15.2448C11.4478 16.0418 11 17.1228 11 18.25V29C11 31.3869 11.9482 33.6761 13.636 35.364C15.3239 37.0518 17.6131 38 20 38C22.3869 38 24.6761 37.0518 26.364 35.364C28.0518 33.6761 29 31.3869 29 29V18.25C29 17.1228 28.5522 16.0418 27.7552 15.2448C26.9582 14.4478 25.8772 14 24.75 14H15.25ZM9 18.25C9 16.65 9.602 15.189 10.592 14.083C10.3147 14.0277 10.0327 13.9999 9.75 14H4.25C3.12283 14 2.04183 14.4478 1.2448 15.2448C0.447767 16.0418 2.67132e-07 17.1228 2.67132e-07 18.25V28C-0.000333654 29.2089 0.312395 30.3972 0.90773 31.4493C1.50307 32.5014 2.36072 33.3814 3.39716 34.0036C4.4336 34.6257 5.61351 34.9689 6.82197 34.9997C8.03043 35.0304 9.22626 34.7477 10.293 34.179C9.44138 32.5858 8.99718 30.8066 9 29V18.25ZM31 29C31 30.872 30.532 32.635 29.707 34.179C30.7737 34.7477 31.9696 35.0304 33.178 34.9997C34.3865 34.9689 35.5664 34.6257 36.6028 34.0036C37.6393 33.3814 38.4969 32.5014 39.0923 31.4493C39.6876 30.3972 40.0003 29.2089 40 28V18.25C40 17.1228 39.5522 16.0418 38.7552 15.2448C37.9582 14.4478 36.8772 14 35.75 14H30.25C29.9613 14.0007 29.6807 14.0283 29.408 14.083C30.4348 15.2279 31.0018 16.7121 31 18.25V29Z" fill="#EC7C0B"/>
</svg>
