<svg width="40" height="40" viewBox="0 0 40 40" fill="none" xmlns="http://www.w3.org/2000/svg">
<path fill-rule="evenodd" clip-rule="evenodd" d="M20 9.67254C21.5393 9.67254 23.0156 9.16301 24.1041 8.25603C25.1926 7.34906 25.8041 6.11893 25.8041 4.83627C25.8041 3.55361 25.1926 2.32349 24.1041 1.41651C23.0156 0.509534 21.5393 0 20 0C18.4607 0 16.9844 0.509534 15.8959 1.41651C14.8074 2.32349 14.1959 3.55361 14.1959 4.83627C14.1959 6.11893 14.8074 7.34906 15.8959 8.25603C16.9844 9.16301 18.4607 9.67254 20 9.67254ZM10.8758 16.6621C11.5426 15.0896 12.7781 13.7281 14.4122 12.7651C16.0463 11.8021 17.9985 11.285 20 11.285C22.0015 11.285 23.9537 11.8021 25.5878 12.7651C27.2219 13.7281 28.4574 15.0896 29.1242 16.6621H10.8758ZM2.35969 20.2519C1.6958 20.3015 1.08038 20.5624 0.641369 20.9803C0.202358 21.3982 -0.0264736 21.9411 0.00244129 22.496C0.0313562 23.0509 0.315793 23.5751 0.796626 23.9598C1.27746 24.3444 1.9177 24.5599 2.58426 24.5613H5.6625L6.90624 38.6671C6.93847 39.0291 7.13366 39.3676 7.45271 39.6148C7.77176 39.8619 8.1911 39.9995 8.62674 40H31.3733C31.8095 39.9995 32.2293 39.8615 32.5484 39.6137C32.8675 39.366 33.0624 39.0268 33.0938 38.6643L34.3375 24.5613H37.4157C38.0823 24.5599 38.7225 24.3444 39.2034 23.9598C39.6842 23.5751 39.9686 23.0509 39.9976 22.496C40.0265 21.9411 39.7976 21.3982 39.3586 20.9803C38.9196 20.5624 38.3042 20.3015 37.6403 20.2519C37.5657 20.258 37.4907 20.2609 37.4157 20.2605H2.58771C2.51273 20.2609 2.43432 20.258 2.35969 20.2519ZM20 25.045C20.3222 25.0452 20.6379 25.1206 20.9114 25.2625C21.1849 25.4045 21.4053 25.6073 21.5478 25.8481L22.4529 27.3739L24.4774 27.6214C24.7965 27.6601 25.0962 27.7723 25.3427 27.9455C25.5892 28.1186 25.7726 28.3458 25.8722 28.6013C25.9717 28.8568 25.9835 29.1304 25.9061 29.3912C25.8288 29.652 25.6654 29.8896 25.4344 30.077L23.9696 31.2659L24.3151 32.9442C24.3693 33.2087 24.3337 33.4806 24.2122 33.7291C24.0908 33.9777 23.8885 34.193 23.628 34.3507C23.3675 34.5085 23.0593 34.6025 22.7381 34.622C22.4169 34.6416 22.0956 34.5859 21.8103 34.4613L20 33.6668L18.1897 34.4584C17.9044 34.583 17.5831 34.6387 17.2619 34.6191C16.9407 34.5996 16.6325 34.5056 16.372 34.3479C16.1115 34.1901 15.9092 33.9748 15.7878 33.7263C15.6663 33.4777 15.6307 33.2059 15.6849 32.9413L16.0304 31.263L14.5656 30.0741C14.3346 29.8867 14.1712 29.6491 14.0939 29.3884C14.0165 29.1276 14.0283 28.8539 14.1278 28.5984C14.2274 28.3429 14.4108 28.1157 14.6573 27.9426C14.9038 27.7694 15.2035 27.6572 15.5226 27.6186L17.5471 27.3739L18.4522 25.8453C18.5947 25.6044 18.8151 25.4016 19.0886 25.2597C19.3621 25.1177 19.6778 25.0452 20 25.045Z" fill="#EC7C0B"/>
</svg>
