<svg width="18" height="18" viewBox="0 0 18 18" fill="none" xmlns="http://www.w3.org/2000/svg">
<path d="M9.3125 12.6771C8.24356 12.6771 7.33252 12.3003 6.57936 11.5466C5.82621 10.7929 5.44938 9.8819 5.44886 8.81348C5.44835 7.74505 5.82518 6.83401 6.57936 6.08034C7.33355 5.32667 8.24459 4.94984 9.3125 4.94984C10.3804 4.94984 11.2917 5.32667 12.0464 6.08034C12.8011 6.83401 13.1777 7.74505 13.1761 8.81348C13.1746 9.8819 12.7978 10.7932 12.0456 11.5474C11.2935 12.3016 10.3825 12.6781 9.3125 12.6771ZM3.90341 9.5862H0.8125V8.04075H3.90341V9.5862ZM17.8125 9.5862H14.7216V8.04075H17.8125V9.5862ZM8.53977 3.40439V0.313477H10.0852V3.40439H8.53977ZM8.53977 17.3135V14.2226H10.0852V17.3135H8.53977ZM4.98523 5.52939L3.03409 3.65552L4.13523 2.51575L5.98977 4.44757L4.98523 5.52939ZM14.4898 15.1112L12.6159 13.1601L13.6398 12.0976L15.5909 13.9714L14.4898 15.1112ZM12.5966 4.4862L14.4705 2.53507L15.6102 3.6362L13.6784 5.49075L12.5966 4.4862ZM3.01477 13.9907L4.96591 12.1169L6.02841 13.1407L4.15455 15.0919L3.01477 13.9907Z" fill="white"/>
</svg>
