<svg width="40" height="40" viewBox="0 0 40 40" fill="none" xmlns="http://www.w3.org/2000/svg">
<path d="M0 40V33.7778C0 32.5556 0.258752 31.4074 0.776256 30.3333C1.29376 29.2593 2.00913 28.4444 2.92237 27.8889C4.47489 26.9259 6.22527 26.1111 8.17352 25.4444C10.1218 24.7778 12.2679 24.4444 14.6119 24.4444C16.9559 24.4444 19.102 24.7778 21.0502 25.4444C22.9985 26.1111 24.7489 26.9259 26.3014 27.8889C27.2146 28.4444 27.93 29.2593 28.4475 30.3333C28.965 31.4074 29.2237 32.5556 29.2237 33.7778V40H0ZM14.6119 22.2222C12.6027 22.2222 10.8828 21.3519 9.45205 19.6111C8.02131 17.8704 7.30594 15.7778 7.30594 13.3333H6.84931C6.57534 13.3333 6.35495 13.2319 6.18813 13.0289C6.02131 12.8259 5.93729 12.557 5.93607 12.2222C5.93486 11.8874 6.01887 11.6185 6.18813 11.4156C6.35738 11.2126 6.57778 11.1111 6.84931 11.1111H7.30594C7.30594 9.44444 7.64079 7.94444 8.3105 6.61111C8.98021 5.27778 9.86301 4.22222 10.9589 3.44445V5.55556C10.9589 5.88889 11.0429 6.15778 11.211 6.36222C11.379 6.56667 11.5994 6.66815 11.8721 6.66667C12.1449 6.66519 12.3659 6.5637 12.5352 6.36222C12.7044 6.16074 12.7878 5.89185 12.7854 5.55556V2.55556C13.0594 2.44444 13.3486 2.36148 13.653 2.30667C13.9574 2.25185 14.277 2.2237 14.6119 2.22222C14.9467 2.22074 15.2664 2.24889 15.5708 2.30667C15.8752 2.36444 16.1644 2.44741 16.4384 2.55556V5.55556C16.4384 5.88889 16.5224 6.15778 16.6904 6.36222C16.8584 6.56667 17.0788 6.66815 17.3516 6.66667C17.6244 6.66519 17.8454 6.5637 18.0146 6.36222C18.1839 6.16074 18.2673 5.89185 18.2648 5.55556V3.44445C19.3607 4.22222 20.2435 5.27778 20.9132 6.61111C21.583 7.94444 21.9178 9.44444 21.9178 11.1111H22.3744C22.6484 11.1111 22.8694 11.2133 23.0374 11.4178C23.2055 11.6222 23.2889 11.8904 23.2877 12.2222C23.2865 12.5541 23.203 12.823 23.0374 13.0289C22.8718 13.2348 22.6508 13.3363 22.3744 13.3333H21.9178C21.9178 15.7778 21.2024 17.8704 19.7717 19.6111C18.3409 21.3519 16.621 22.2222 14.6119 22.2222ZM14.6119 17.7778C15.6164 17.7778 16.4767 17.343 17.1927 16.4733C17.9087 15.6037 18.2661 14.557 18.2648 13.3333H10.9589C10.9589 14.5556 11.3169 15.6022 12.0329 16.4733C12.7489 17.3444 13.6085 17.7793 14.6119 17.7778ZM28.3105 26.6667L28.0365 25C27.8539 24.9259 27.6791 24.843 27.5123 24.7511C27.3455 24.6593 27.1854 24.52 27.032 24.3333L25.7534 24.8889L24.8402 22.8889L25.8447 21.7778V20.4444L24.8402 19.3333L25.7534 17.3333L27.032 17.8889C27.1537 17.7407 27.3059 17.6111 27.4886 17.5C27.6712 17.3889 27.8539 17.2963 28.0365 17.2222L28.3105 15.5556H30.137L30.411 17.2222C30.5936 17.2963 30.7763 17.3889 30.9589 17.5C31.1416 17.6111 31.2938 17.7407 31.4155 17.8889L32.6941 17.3333L33.6073 19.3333L32.6027 20.4444V21.7778L33.6073 22.8889L32.6941 24.8889L31.4155 24.3333C31.2633 24.5185 31.1038 24.6578 30.937 24.7511C30.7702 24.8444 30.5948 24.9274 30.411 25L30.137 26.6667H28.3105ZM29.2237 22.7778C29.589 22.7778 29.9087 22.6111 30.1826 22.2778C30.4566 21.9444 30.5936 21.5556 30.5936 21.1111C30.5936 20.6667 30.4566 20.2778 30.1826 19.9444C29.9087 19.6111 29.589 19.4444 29.2237 19.4444C28.8584 19.4444 28.5388 19.6111 28.2648 19.9444C27.9909 20.2778 27.8539 20.6667 27.8539 21.1111C27.8539 21.5556 27.9909 21.9444 28.2648 22.2778C28.5388 22.6111 28.8584 22.7778 29.2237 22.7778ZM32.5114 15.5556L32.1461 13.2222C31.8721 13.1111 31.6213 12.9726 31.3936 12.8067C31.1659 12.6407 30.9601 12.4459 30.7763 12.2222L28.8584 13L27.5799 10.3333L29.1324 8.66667C29.0715 8.48148 29.0411 8.33333 29.0411 8.22222V7.33333C29.0411 7.22222 29.0715 7.07407 29.1324 6.88889L27.5799 5.22222L28.8584 2.55556L30.7763 3.33333C30.9589 3.11111 31.1647 2.9163 31.3936 2.74889C31.6225 2.58148 31.8734 2.44296 32.1461 2.33333L32.5114 0H35.0685L35.4338 2.33333C35.7078 2.44444 35.9592 2.5837 36.1881 2.75111C36.417 2.91852 36.6222 3.11259 36.8037 3.33333L38.7215 2.55556L40 5.22222L38.4475 6.88889C38.5084 7.07407 38.5388 7.22222 38.5388 7.33333V8.22222C38.5388 8.33333 38.5084 8.48148 38.4475 8.66667L40 10.3333L38.7215 13L36.8037 12.2222C36.621 12.4444 36.4158 12.6393 36.1881 12.8067C35.9604 12.9741 35.709 13.1126 35.4338 13.2222L35.0685 15.5556H32.5114ZM33.79 10.5556C34.4292 10.5556 34.9699 10.2867 35.4119 9.74889C35.8539 9.21111 36.0743 8.55407 36.0731 7.77778C36.0718 7.00148 35.8508 6.3437 35.41 5.80444C34.9693 5.26519 34.4292 4.99704 33.79 5C33.1507 5.00296 32.61 5.27185 32.168 5.80667C31.726 6.34148 31.5056 6.99852 31.5068 7.77778C31.5081 8.55704 31.7291 9.21482 32.1699 9.75111C32.6107 10.2874 33.1507 10.5556 33.79 10.5556Z" fill="#EC7C0B"/>
</svg>
